<svg width="50" height="50" viewBox="0 0 50 50" fill="none" xmlns="http://www.w3.org/2000/svg">
<path d="M8.39129 41.6085L8.3913 41.6085C8.7771 41.9941 9.40219 41.9941 9.7879 41.6085L9.7879 41.6085L15.7542 35.6423C16.1398 35.2566 16.1398 34.6314 15.7542 34.2456L15.7541 34.2456C15.3685 33.8602 14.7433 33.8601 14.3576 34.2456L14.3576 34.2456L8.39129 40.2119L8.39128 40.2119C8.00568 40.5976 8.00557 41.2229 8.39129 41.6085Z" fill="#3B9670" stroke="#3B9670" stroke-width="0.1"/>
<path d="M40.2118 8.39148L40.2118 8.39148L34.2455 14.3577C33.8599 14.7434 33.8599 15.3686 34.2455 15.7543L34.2455 15.7544C34.6313 16.14 35.2563 16.1399 35.6421 15.7544L35.6421 15.7543L41.6084 9.7881C41.994 9.40248 41.994 8.7772 41.6084 8.39149L41.6084 8.39147C41.2226 8.00587 40.5975 8.00586 40.2118 8.39148Z" fill="#3B9670" stroke="#3B9670" stroke-width="0.1"/>
<path d="M9.78787 8.39141L9.78787 8.39141C9.40224 8.00588 8.77697 8.00589 8.39126 8.3914L8.39125 8.39141C8.00563 8.77703 8.00564 9.40231 8.39125 9.78802L8.39125 9.78803L14.3576 15.7543L14.3576 15.7543C14.7433 16.1399 15.3685 16.1398 15.7541 15.7543L15.7541 15.7543C16.1397 15.3687 16.1397 14.7434 15.7541 14.3577L15.7541 14.3577L9.78787 8.39141Z" fill="#3B9670" stroke="#3B9670" stroke-width="0.1"/>
<path d="M41.6084 41.6086L41.6084 41.6086C41.994 41.2229 41.994 40.5977 41.6084 40.2119L41.6084 40.2119L35.6421 34.2457L35.6421 34.2457C35.2564 33.8601 34.6313 33.8602 34.2455 34.2457L34.2455 34.2457C33.8599 34.6313 33.8599 35.2566 34.2455 35.6423L34.2455 35.6423L40.2117 41.6086L40.2118 41.6086C40.5977 41.9943 41.2226 41.9942 41.6084 41.6086Z" fill="#3B9670" stroke="#3B9670" stroke-width="0.1"/>
<path d="M29.4686 38.3699L29.4686 38.3699L31.6211 43.5664L31.6211 43.5664C31.8281 44.0659 32.4029 44.3111 32.9114 44.1009L32.9114 44.1009C33.4153 43.8921 33.6545 43.3144 33.4458 42.8106L33.4004 42.8294L33.4458 42.8106L31.2933 37.614L31.2933 37.614C31.0845 37.1101 30.507 36.8712 30.0031 37.0796L30.0031 37.0796C29.4992 37.2884 29.26 37.866 29.4686 38.3699Z" fill="#3B9670" stroke="#3B9670" stroke-width="0.1"/>
<path d="M19.9964 12.9205L19.9964 12.9205C20.5003 12.7117 20.7396 12.134 20.5308 11.6302C20.5308 11.6302 20.5308 11.6302 20.5308 11.6302L18.3783 6.43365L18.3783 6.43365C18.1695 5.92983 17.5918 5.69066 17.0881 5.89922L17.0881 5.89922C16.5842 6.10797 16.3449 6.68566 16.5537 7.18949C16.5537 7.18949 16.5537 7.18949 16.5537 7.18949L18.7062 12.386C18.9136 12.8867 19.4892 13.1303 19.9964 12.9205Z" fill="#3B9670" stroke="#3B9670" stroke-width="0.1"/>
<path d="M11.6305 29.469L11.6305 29.469C12.1343 29.2604 12.712 29.4997 12.9207 30.0034M11.6305 29.469L12.8745 30.0226M11.6305 29.469L6.43396 31.6215L6.43396 31.6215M11.6305 29.469L6.43396 31.6215M12.9207 30.0034L12.8745 30.0226M12.9207 30.0034C12.9207 30.0034 12.9207 30.0034 12.9207 30.0034L12.8745 30.0226M12.9207 30.0034C13.1295 30.5073 12.8902 31.0849 12.3863 31.2937L12.3671 31.2475C12.8455 31.0493 13.0727 30.5009 12.8745 30.0226M6.43396 31.6215C5.93004 31.8303 5.69077 32.4079 5.89953 32.9118M6.43396 31.6215L5.89953 32.9118M5.89953 32.9118L5.89953 32.9118L5.89953 32.9118Z" fill="#3B9670" stroke="#3B9670" stroke-width="0.1"/>
<path d="M44.1007 17.0884L44.1007 17.0884C43.892 16.5845 43.3144 16.3456 42.8105 16.554L42.8105 16.554L37.6139 18.7065L37.6139 18.7065C37.11 18.9152 36.8708 19.4929 37.0795 19.9968L37.0795 19.9968C37.2864 20.4962 37.8612 20.7414 38.3697 20.5312L38.3697 20.5312L43.5663 18.3787C44.0702 18.1699 44.3094 17.5922 44.1007 17.0884Z" fill="#3B9670" stroke="#3B9670" stroke-width="0.1"/>
<path d="M43.5663 31.6214L43.5663 31.6214L38.3697 29.4689L38.3697 29.4688C37.8658 29.2607 37.2882 29.4994 37.0795 30.0033L37.0795 30.0033C36.8708 30.5072 37.1101 31.0848 37.6139 31.2936L37.6139 31.2936L42.8105 33.4461L42.8105 33.4461C43.3195 33.6565 43.894 33.4108 44.1007 32.9116L44.1007 32.9116C44.3094 32.4078 44.0701 31.8301 43.5663 31.6214Z" fill="#3B9670" stroke="#3B9670" stroke-width="0.1"/>
<path d="M5.89951 17.0884L5.89951 17.0884L12.8745 19.9776L12.9207 19.9967C12.9207 19.9967 12.9207 19.9967 12.9207 19.9967C13.1294 19.4928 12.8901 18.9152 12.3863 18.7065L12.3862 18.7065L7.18968 16.554L7.18966 16.554C6.68606 16.3456 6.10828 16.5846 5.89951 17.0884Z" fill="#3B9670" stroke="#3B9670" stroke-width="0.1"/>
<path d="M16.5537 42.8105C16.3449 43.3145 16.5843 43.8921 17.0881 44.1008L17.0881 44.1008C17.5958 44.3109 18.171 44.0666 18.3783 43.5664L18.3783 43.5664L20.5308 38.3698C20.7396 37.8659 20.5002 37.2883 19.9964 37.0795L19.9963 37.0795C19.4925 36.8713 18.915 37.1102 18.7062 37.614L18.7062 37.614L16.5537 42.8105ZM16.5537 42.8105L16.5999 42.8297L16.5537 42.8105L16.5537 42.8105Z" fill="#3B9670" stroke="#3B9670" stroke-width="0.1"/>
<path d="M29.4686 11.6303L29.4686 11.6303C29.26 12.1342 29.4992 12.7118 30.0031 12.9205L30.0031 12.9206C30.5121 13.131 31.0866 12.8852 31.2933 12.3861L31.2471 12.367L31.2933 12.3861L33.4458 7.18954L33.4458 7.18954C33.6545 6.68562 33.4152 6.10804 32.9114 5.89928L32.9113 5.89926C32.4075 5.69112 31.83 5.92995 31.6211 6.4337L31.6211 6.43371L29.4686 11.6303Z" fill="#3B9670" stroke="#3B9670" stroke-width="0.1"/>
<path d="M25.9875 48.0625V39.0625C25.9875 38.5172 25.5453 38.075 25 38.075C24.4547 38.075 24.0125 38.5172 24.0125 39.0625V48.0625C24.0125 48.6078 24.4547 49.05 25 49.05C25.5453 49.05 25.9875 48.6078 25.9875 48.0625Z" fill="#3B9670" stroke="#3B9670" stroke-width="0.1"/>
<path d="M25.9875 10.9375V1.9375C25.9875 1.3922 25.5453 0.95 25 0.95C24.4547 0.95 24.0125 1.3922 24.0125 1.9375V10.9375C24.0125 11.4828 24.4547 11.925 25 11.925C25.5453 11.925 25.9875 11.4828 25.9875 10.9375Z" fill="#3B9670" stroke="#3B9670" stroke-width="0.1"/>
<path d="M0.95 25C0.95 25.5453 1.3921 25.9875 1.9375 25.9875H10.9375C11.4829 25.9875 11.925 25.5453 11.925 25C11.925 24.4547 11.4829 24.0125 10.9375 24.0125H1.9375C1.3921 24.0125 0.95 24.4547 0.95 25Z" fill="#3B9670" stroke="#3B9670" stroke-width="0.1"/>
<path d="M48.0625 24.0125H39.0625C38.5172 24.0125 38.075 24.4547 38.075 25C38.075 25.5453 38.5172 25.9875 39.0625 25.9875H48.0625C48.6078 25.9875 49.05 25.5453 49.05 25C49.05 24.4547 48.6078 24.0125 48.0625 24.0125Z" fill="#3B9670" stroke="#3B9670" stroke-width="0.1"/>
<path d="M31 31.9875C31.5454 31.9875 31.9875 31.5454 31.9875 31C31.9875 30.4546 31.5454 30.0125 31 30.0125C30.4546 30.0125 30.0125 30.4546 30.0125 31C30.0125 31.5454 30.4546 31.9875 31 31.9875Z" fill="#3B9670" stroke="#3B9670" stroke-width="0.1"/>
<path d="M27.0721 32.1583L27.0721 32.1583C26.4022 32.3518 25.705 32.45 25 32.45C20.8921 32.45 17.55 29.1079 17.55 25C17.55 20.8921 20.8921 17.55 25 17.55C29.1079 17.55 32.45 20.8921 32.45 25C32.45 25.705 32.3518 26.4022 32.1583 27.0721C32.0071 27.5961 32.309 28.1436 32.833 28.2949L32.833 28.2949C33.3572 28.446 33.9045 28.1441 34.0558 27.6202C34.3008 26.772 34.425 25.8904 34.425 25C34.425 19.8029 30.1971 15.575 25 15.575C19.803 15.575 15.575 19.8029 15.575 25C15.575 30.1971 19.803 34.425 25 34.425C25.8904 34.425 26.772 34.3008 27.6202 34.0558C28.1442 33.9045 28.4462 33.3571 28.2949 32.833C28.1436 32.309 27.5959 32.0073 27.0721 32.1583Z" fill="#3B9670" stroke="#3B9670" stroke-width="0.1"/>
</svg>
