<svg width="58" height="37" viewBox="0 0 58 37" fill="none" xmlns="http://www.w3.org/2000/svg">
<mask id="path-1-outside-1_0_1771" maskUnits="userSpaceOnUse" x="0" y="0" width="58" height="37" fill="black">
<rect fill="white" width="58" height="37"/>
<path d="M33.4366 20.1387V21.0112C33.4366 21.4643 33.8038 21.8316 34.257 21.8316C34.7102 21.8316 35.0774 21.4643 35.0774 21.0112V20.1387C35.0774 19.6856 34.7102 19.3183 34.257 19.3183C33.8039 19.3183 33.4366 19.6855 33.4366 20.1387ZM5.51127 19.7241C5.57319 19.7241 5.63608 19.717 5.69898 19.7023C6.14015 19.5991 6.41406 19.1577 6.3108 18.7165C6.23368 18.3871 6.07331 17.7018 6.29865 17.4071C6.45924 17.1971 6.88585 17.0697 7.49974 17.0481C9.93747 16.9626 10.685 15.8361 11.4079 14.7467C11.7952 14.163 12.1957 13.5595 12.925 12.9943C13.6431 12.4378 13.951 12.4274 14.0008 12.4303C14.0461 12.4784 14.3668 12.8895 14.2484 14.6976C14.1861 15.646 14.3693 16.3429 14.8081 16.8278C15.4221 17.5063 16.3165 17.5369 17.0351 17.5615C17.3584 17.5725 17.6638 17.583 17.8852 17.6447C18.583 17.839 19.1953 17.7776 19.6871 17.7283C19.9902 17.6979 20.3036 17.6665 20.3701 17.7392C20.6978 18.0967 21.0721 18.2702 21.4827 18.261C22.2568 18.2397 22.7814 17.6002 23.5754 16.6322C23.6481 16.5437 23.7234 16.4519 23.8017 16.357C23.8447 16.3049 23.8758 16.2774 23.8933 16.2638C24.0066 16.2892 24.2582 16.4421 24.4285 16.5457C25.0351 16.9143 25.9518 17.4716 27.0935 16.9824C28.35 16.444 28.675 16.0448 29.2904 15.1932C29.5132 14.8851 29.7903 14.5014 30.2124 13.9985C30.9554 13.1124 32.0307 12.8548 32.4745 13.06C32.5448 13.0925 32.7585 13.1914 32.6574 13.7833C32.5129 14.6293 32.676 15.2661 33.142 15.6756C33.9495 16.3852 35.2085 15.9986 36.1278 15.7163C36.338 15.6518 36.5764 15.5786 36.6805 15.5629C36.7602 15.5558 36.9994 15.6141 37.1581 15.6533C37.9535 15.8498 39.6085 16.2579 40.4298 13.9111C40.9841 12.3274 41.3898 12.2678 42.5945 12.0909C42.7224 12.0721 42.8549 12.0527 42.9923 12.0307C45.664 11.6032 46.1631 9.85383 46.5641 8.44807C46.678 8.04891 46.7855 7.67196 46.9352 7.32684C47.1793 6.76316 47.6306 6.47382 48.2017 6.10759C48.9353 5.63711 49.8483 5.05166 50.2329 3.74359C50.4175 3.11635 50.9458 2.75679 51.2298 2.66425C51.2215 2.82428 51.1684 3.10957 50.993 3.54012C50.3758 5.05483 50.2489 5.89111 50.5402 6.52305C50.807 7.10172 51.3409 7.27871 51.66 7.38438C51.7831 7.42518 51.8994 7.46368 51.9556 7.50241C51.9556 7.50251 51.9606 7.50678 51.9698 7.51696C52.2709 7.85551 52.7895 7.8857 53.1281 7.58445C53.4666 7.2833 53.4968 6.76469 53.1955 6.42624C53.1022 6.32133 53.0012 6.23098 52.8949 6.15725C52.6394 5.98037 52.3824 5.89526 52.1761 5.8269C52.1315 5.81213 52.0775 5.79419 52.0327 5.77778C52.0352 5.616 52.0966 5.17997 52.5124 4.15926C52.9918 2.98268 52.9904 2.09236 52.5086 1.51315C52.1519 1.08445 51.589 0.912931 50.9643 1.04201C50.0927 1.22217 49.0209 2.04915 48.6587 3.28065C48.4467 4.00109 47.9725 4.30541 47.3159 4.72645C46.6394 5.16028 45.8727 5.65198 45.4296 6.67455C45.2371 7.11845 45.1096 7.56563 44.9862 7.99805C44.6168 9.29288 44.3729 10.1483 42.733 10.4106C42.6028 10.4315 42.4773 10.4499 42.3561 10.4676C41.0228 10.6634 39.7633 10.8483 38.881 13.3691C38.5526 14.3077 38.3204 14.2504 37.5512 14.0604C37.1955 13.9726 36.8279 13.882 36.4391 13.94C36.2118 13.9742 35.9495 14.0546 35.646 14.1478C35.3371 14.2426 34.5505 14.4837 34.2518 14.4369C34.2442 14.3761 34.2407 14.2585 34.2747 14.0594C34.4704 12.9137 34.055 11.9834 33.1637 11.5708C31.9291 10.9992 30.0802 11.6024 28.9552 12.944C28.4953 13.4923 28.1989 13.9024 27.9607 14.232C27.4585 14.9267 27.3393 15.0918 26.4472 15.4741C26.1152 15.6164 25.8503 15.4897 25.281 15.1435C24.718 14.8013 23.5468 14.0891 22.5369 15.3118C22.4572 15.4082 22.3807 15.5015 22.3069 15.5914C22.0282 15.9311 21.6956 16.3368 21.4832 16.5322C20.8769 15.9597 20.1299 16.0347 19.5234 16.0954C19.1133 16.1366 18.7262 16.1754 18.3255 16.0638C17.9155 15.9496 17.4965 15.9353 17.0912 15.9214C16.6606 15.9068 16.1726 15.89 16.0247 15.7266C15.9688 15.6648 15.8433 15.4513 15.8857 14.8048C15.9737 13.4636 15.9536 11.6077 14.7693 10.9782C13.6297 10.3728 12.3427 11.3695 11.9199 11.6971C10.9775 12.4275 10.4582 13.2103 10.0407 13.8393C9.39337 14.8148 9.03687 15.3521 7.4422 15.408C6.29636 15.4483 5.4732 15.7854 4.99528 16.4102C4.29892 17.3207 4.57873 18.5159 4.71317 19.0904C4.80167 19.4688 5.1388 19.7241 5.51127 19.7241ZM29.7684 20.5107C29.5746 20.7331 29.295 20.8606 29.0012 20.8606C28.7074 20.8606 28.4278 20.7332 28.2341 20.5108C27.9363 20.1692 27.4181 20.1336 27.0766 20.4313C26.735 20.7289 26.6995 21.2471 26.9971 21.5888C27.5026 22.1689 28.233 22.5016 29.0012 22.5016C29.7693 22.5016 30.4998 22.1689 31.0053 21.589C31.3031 21.2473 31.2674 20.7292 30.9258 20.4314C30.5844 20.1335 30.0661 20.1691 29.7684 20.5107ZM55.3732 14.5873C55.1423 14.3014 54.9159 14.0435 54.697 13.7941C53.7032 12.6621 53.4062 12.2368 53.694 11.5302C53.7595 11.3698 53.8173 11.1979 53.8657 11.0194C53.9844 10.5821 53.7263 10.1313 53.289 10.0126C52.8521 9.89408 52.401 10.1519 52.2823 10.5893C52.2513 10.7036 52.2151 10.8116 52.1747 10.9107C51.4798 12.6162 52.4884 13.7654 53.4638 14.8765C53.6718 15.1135 53.887 15.3585 54.0967 15.6182C54.8184 16.5117 55.2984 17.9728 55.3619 18.669C53.6647 18.2279 52.7172 17.4409 52.5436 16.3268L52.4982 16.0309C52.2982 14.7163 52.0913 13.3569 50.9389 13.0689C50.2149 12.8881 49.281 13.1284 48.6675 13.6537C48.1284 14.1154 47.867 14.7599 47.9314 15.4682C47.9514 15.689 47.9811 15.9205 48.0125 16.1657C48.1222 17.0213 48.2879 18.3143 47.8106 18.6407C46.6302 19.4484 46.5035 20.7045 46.3693 22.0344C46.3403 22.3222 46.3104 22.6197 46.2692 22.9277C46.1523 23.8055 46.4674 24.2714 46.7525 24.5077C47.4707 25.1027 48.5003 24.7624 49.3275 24.4887C49.5116 24.4279 49.6853 24.3704 49.8134 24.3383C50.1106 24.2641 50.53 24.7888 51.1314 25.9912C51.3071 26.343 51.5025 26.6447 51.6748 26.9109C52.2438 27.7901 52.6932 28.4844 52.188 30.855C51.9677 31.8886 51.6478 32.2267 51.5452 32.2819C51.4671 32.2311 51.3251 31.9975 51.4113 31.7174C51.7755 30.5337 51.7668 29.6154 51.3851 28.9878C51.1365 28.5791 50.7499 28.3168 50.2671 28.2292C49.7796 28.1408 49.4726 28.2082 49.1343 28.478C49.0488 28.5462 48.8215 28.7276 47.6756 28.9231C46.3895 29.1428 46.1407 28.9387 45.5391 28.4457C45.2658 28.2217 44.9257 27.9429 44.4539 27.6709C43.6546 27.2099 43.0749 27.3348 42.729 27.5209C41.7163 28.066 41.5735 29.6169 41.4244 32.1022C41.4034 32.452 41.3284 32.696 41.2131 32.7892C40.9521 33.0003 40.1207 32.8736 39.4526 32.772C38.6596 32.6511 37.7609 32.5144 36.9402 32.702C35.8239 32.9572 35.0177 32.6668 34.3697 32.4333C33.9846 32.2946 33.6521 32.175 33.2968 32.175C32.4396 32.175 32.2027 33.0074 32.1015 33.3629C32.0663 33.4867 32.0023 33.7116 31.9486 33.7834C31.9081 33.7896 31.7579 33.7993 31.4307 33.6842C29.7707 33.1009 28.7789 33.723 28.1227 34.1345C27.7692 34.3564 27.558 34.4819 27.3326 34.4819C26.5938 34.4819 24.8244 34.2943 24.3547 32.5562C23.8837 30.8134 22.5259 30.6808 21.7965 30.6095C21.7166 30.6017 21.6202 30.5923 21.5396 30.5813C21.2466 28.8736 19.4704 28.7908 17.2427 28.6872C15.7714 28.6187 15.0936 29.015 14.9026 30.0552C14.896 30.0911 14.8878 30.1363 14.8803 30.1677C14.8519 30.1821 14.796 30.2056 14.6985 30.2299C13.6636 30.4885 12.5993 29.1805 12.4709 28.7837C12.2524 28.1081 11.4907 27.0449 8.84544 27.5174C7.37274 27.7804 7.27736 29.2197 7.22616 29.993C7.21861 30.1067 7.20888 30.254 7.19499 30.3758C6.19802 30.4626 5.73716 31.5052 5.42551 32.2513C5.20542 31.4978 4.76426 30.4868 3.42227 29.745C3.07595 29.5536 2.65885 29.238 2.63883 28.8213C2.62811 28.5956 2.73104 28.4022 2.81013 28.3072C3.41483 28.3225 5.20334 28.2674 5.9485 27.1386C6.26113 26.6649 6.49369 25.8459 5.82587 24.6335C5.49224 24.0278 5.37979 23.4044 5.48207 22.7276C5.54978 22.2795 5.24141 21.8614 4.79346 21.7937C4.34573 21.7265 3.92743 22.0344 3.85972 22.4823C3.70373 23.5145 3.88171 24.5046 4.38872 25.4251C4.59514 25.7999 4.66635 26.1024 4.57928 26.2345C4.34825 26.5844 3.26081 26.7134 2.76955 26.6645C2 26.5878 1.3382 27.3362 1.10629 28.0798C0.96529 28.532 0.658345 30.0922 2.62866 31.1812C3.60517 31.7208 3.77626 32.3988 3.94176 33.0544C4.07325 33.5752 4.2719 34.3623 5.11517 34.5311C6.16596 34.7412 6.61621 33.66 6.91418 32.9446C7.0309 32.6647 7.24202 32.1581 7.39199 32.0157C7.83185 32.0425 8.13037 31.875 8.30495 31.7265C8.78265 31.3202 8.82553 30.6727 8.86338 30.1014C8.91655 29.2993 8.98666 29.1589 9.1339 29.1326C10.3223 28.9204 10.8539 29.1159 10.9098 29.2888C11.2735 30.4128 13.0814 32.3253 15.0965 31.8216C16.3019 31.5204 16.4468 30.7307 16.5164 30.3512C16.5168 30.3496 16.517 30.3479 16.5173 30.3463C16.6205 30.3282 16.8176 30.3099 17.1663 30.3261C18.2055 30.3744 19.1052 30.4271 19.5913 30.5831C19.9076 30.6846 19.9151 30.7589 19.933 30.9385C20.0478 32.0872 21.1212 32.192 21.6371 32.2423C22.3189 32.3088 22.6023 32.3608 22.7708 32.984C23.5578 35.8961 26.4614 36.1225 27.3326 36.1225C28.0411 36.1225 28.5698 35.7908 28.9947 35.5243C29.5835 35.1549 29.9725 34.9109 30.8868 35.2322C31.6238 35.491 32.22 35.4938 32.7093 35.2405C33.3158 34.9264 33.5288 34.3286 33.6492 33.9183C33.7059 33.9382 33.7624 33.9585 33.8137 33.977C34.573 34.2505 35.7206 34.6635 37.3058 34.3015C37.8227 34.1834 38.5256 34.2904 39.2057 34.394C40.2948 34.5597 41.4208 34.731 42.2446 34.0651C42.7367 33.6672 43.0118 33.0398 43.0622 32.2004C43.1199 31.2371 43.2244 29.4958 43.4876 29.0188C43.5237 29.0335 43.572 29.0565 43.6338 29.0922C43.9893 29.2973 44.2484 29.5095 44.499 29.7149C45.3624 30.4224 46.0687 30.862 47.9517 30.5407C49.1724 30.3323 49.6841 30.0957 50.0011 29.8773C50.0516 30.0126 50.092 30.4248 49.8429 31.235C49.6063 32.004 49.8041 32.8569 50.3473 33.4079C50.7957 33.8627 51.4089 34.0334 51.9886 33.8641C52.5897 33.6887 53.3904 33.0834 53.7925 31.1971C54.4391 28.1629 53.7339 27.0733 53.0519 26.0196C52.8884 25.7668 52.7338 25.528 52.5986 25.2576C52.049 24.1583 51.1286 22.3188 49.4151 22.7467C49.2279 22.7935 49.0258 22.8604 48.8119 22.931C48.5817 23.0072 48.1583 23.1472 47.8902 23.187C47.8916 23.1737 47.8932 23.1596 47.8953 23.1446C47.9398 22.8106 47.9711 22.4997 48.0015 22.199C48.126 20.9651 48.2091 20.3559 48.7368 19.9949C50.0425 19.1016 49.8097 17.2842 49.6396 15.9571C49.6101 15.7272 49.5824 15.5102 49.5649 15.3196C49.5487 15.1409 49.5994 15.0153 49.7343 14.8997C49.9696 14.6982 50.3328 14.6361 50.4983 14.6536C50.6621 14.8755 50.7897 15.7146 50.8754 16.2776L50.9216 16.5793C51.1285 17.9068 52.0708 19.6405 55.3854 20.361C55.958 20.4858 56.4728 20.2798 56.7622 19.8107C57.5229 18.5789 56.2951 15.7287 55.3732 14.5873ZM23.7455 19.3183C23.2924 19.3183 22.9251 19.6856 22.9251 20.1387V21.0112C22.9251 21.4643 23.2924 21.8316 23.7455 21.8316C24.1986 21.8316 24.5659 21.4643 24.5659 21.0112V20.1387C24.5659 19.6855 24.1986 19.3183 23.7455 19.3183Z"/>
</mask>
<path d="M33.4366 20.1387V21.0112C33.4366 21.4643 33.8038 21.8316 34.257 21.8316C34.7102 21.8316 35.0774 21.4643 35.0774 21.0112V20.1387C35.0774 19.6856 34.7102 19.3183 34.257 19.3183C33.8039 19.3183 33.4366 19.6855 33.4366 20.1387ZM5.51127 19.7241C5.57319 19.7241 5.63608 19.717 5.69898 19.7023C6.14015 19.5991 6.41406 19.1577 6.3108 18.7165C6.23368 18.3871 6.07331 17.7018 6.29865 17.4071C6.45924 17.1971 6.88585 17.0697 7.49974 17.0481C9.93747 16.9626 10.685 15.8361 11.4079 14.7467C11.7952 14.163 12.1957 13.5595 12.925 12.9943C13.6431 12.4378 13.951 12.4274 14.0008 12.4303C14.0461 12.4784 14.3668 12.8895 14.2484 14.6976C14.1861 15.646 14.3693 16.3429 14.8081 16.8278C15.4221 17.5063 16.3165 17.5369 17.0351 17.5615C17.3584 17.5725 17.6638 17.583 17.8852 17.6447C18.583 17.839 19.1953 17.7776 19.6871 17.7283C19.9902 17.6979 20.3036 17.6665 20.3701 17.7392C20.6978 18.0967 21.0721 18.2702 21.4827 18.261C22.2568 18.2397 22.7814 17.6002 23.5754 16.6322C23.6481 16.5437 23.7234 16.4519 23.8017 16.357C23.8447 16.3049 23.8758 16.2774 23.8933 16.2638C24.0066 16.2892 24.2582 16.4421 24.4285 16.5457C25.0351 16.9143 25.9518 17.4716 27.0935 16.9824C28.35 16.444 28.675 16.0448 29.2904 15.1932C29.5132 14.8851 29.7903 14.5014 30.2124 13.9985C30.9554 13.1124 32.0307 12.8548 32.4745 13.06C32.5448 13.0925 32.7585 13.1914 32.6574 13.7833C32.5129 14.6293 32.676 15.2661 33.142 15.6756C33.9495 16.3852 35.2085 15.9986 36.1278 15.7163C36.338 15.6518 36.5764 15.5786 36.6805 15.5629C36.7602 15.5558 36.9994 15.6141 37.1581 15.6533C37.9535 15.8498 39.6085 16.2579 40.4298 13.9111C40.9841 12.3274 41.3898 12.2678 42.5945 12.0909C42.7224 12.0721 42.8549 12.0527 42.9923 12.0307C45.664 11.6032 46.1631 9.85383 46.5641 8.44807C46.678 8.04891 46.7855 7.67196 46.9352 7.32684C47.1793 6.76316 47.6306 6.47382 48.2017 6.10759C48.9353 5.63711 49.8483 5.05166 50.2329 3.74359C50.4175 3.11635 50.9458 2.75679 51.2298 2.66425C51.2215 2.82428 51.1684 3.10957 50.993 3.54012C50.3758 5.05483 50.2489 5.89111 50.5402 6.52305C50.807 7.10172 51.3409 7.27871 51.66 7.38438C51.7831 7.42518 51.8994 7.46368 51.9556 7.50241C51.9556 7.50251 51.9606 7.50678 51.9698 7.51696C52.2709 7.85551 52.7895 7.8857 53.1281 7.58445C53.4666 7.2833 53.4968 6.76469 53.1955 6.42624C53.1022 6.32133 53.0012 6.23098 52.8949 6.15725C52.6394 5.98037 52.3824 5.89526 52.1761 5.8269C52.1315 5.81213 52.0775 5.79419 52.0327 5.77778C52.0352 5.616 52.0966 5.17997 52.5124 4.15926C52.9918 2.98268 52.9904 2.09236 52.5086 1.51315C52.1519 1.08445 51.589 0.912931 50.9643 1.04201C50.0927 1.22217 49.0209 2.04915 48.6587 3.28065C48.4467 4.00109 47.9725 4.30541 47.3159 4.72645C46.6394 5.16028 45.8727 5.65198 45.4296 6.67455C45.2371 7.11845 45.1096 7.56563 44.9862 7.99805C44.6168 9.29288 44.3729 10.1483 42.733 10.4106C42.6028 10.4315 42.4773 10.4499 42.3561 10.4676C41.0228 10.6634 39.7633 10.8483 38.881 13.3691C38.5526 14.3077 38.3204 14.2504 37.5512 14.0604C37.1955 13.9726 36.8279 13.882 36.4391 13.94C36.2118 13.9742 35.9495 14.0546 35.646 14.1478C35.3371 14.2426 34.5505 14.4837 34.2518 14.4369C34.2442 14.3761 34.2407 14.2585 34.2747 14.0594C34.4704 12.9137 34.055 11.9834 33.1637 11.5708C31.9291 10.9992 30.0802 11.6024 28.9552 12.944C28.4953 13.4923 28.1989 13.9024 27.9607 14.232C27.4585 14.9267 27.3393 15.0918 26.4472 15.4741C26.1152 15.6164 25.8503 15.4897 25.281 15.1435C24.718 14.8013 23.5468 14.0891 22.5369 15.3118C22.4572 15.4082 22.3807 15.5015 22.3069 15.5914C22.0282 15.9311 21.6956 16.3368 21.4832 16.5322C20.8769 15.9597 20.1299 16.0347 19.5234 16.0954C19.1133 16.1366 18.7262 16.1754 18.3255 16.0638C17.9155 15.9496 17.4965 15.9353 17.0912 15.9214C16.6606 15.9068 16.1726 15.89 16.0247 15.7266C15.9688 15.6648 15.8433 15.4513 15.8857 14.8048C15.9737 13.4636 15.9536 11.6077 14.7693 10.9782C13.6297 10.3728 12.3427 11.3695 11.9199 11.6971C10.9775 12.4275 10.4582 13.2103 10.0407 13.8393C9.39337 14.8148 9.03687 15.3521 7.4422 15.408C6.29636 15.4483 5.4732 15.7854 4.99528 16.4102C4.29892 17.3207 4.57873 18.5159 4.71317 19.0904C4.80167 19.4688 5.1388 19.7241 5.51127 19.7241ZM29.7684 20.5107C29.5746 20.7331 29.295 20.8606 29.0012 20.8606C28.7074 20.8606 28.4278 20.7332 28.2341 20.5108C27.9363 20.1692 27.4181 20.1336 27.0766 20.4313C26.735 20.7289 26.6995 21.2471 26.9971 21.5888C27.5026 22.1689 28.233 22.5016 29.0012 22.5016C29.7693 22.5016 30.4998 22.1689 31.0053 21.589C31.3031 21.2473 31.2674 20.7292 30.9258 20.4314C30.5844 20.1335 30.0661 20.1691 29.7684 20.5107ZM55.3732 14.5873C55.1423 14.3014 54.9159 14.0435 54.697 13.7941C53.7032 12.6621 53.4062 12.2368 53.694 11.5302C53.7595 11.3698 53.8173 11.1979 53.8657 11.0194C53.9844 10.5821 53.7263 10.1313 53.289 10.0126C52.8521 9.89408 52.401 10.1519 52.2823 10.5893C52.2513 10.7036 52.2151 10.8116 52.1747 10.9107C51.4798 12.6162 52.4884 13.7654 53.4638 14.8765C53.6718 15.1135 53.887 15.3585 54.0967 15.6182C54.8184 16.5117 55.2984 17.9728 55.3619 18.669C53.6647 18.2279 52.7172 17.4409 52.5436 16.3268L52.4982 16.0309C52.2982 14.7163 52.0913 13.3569 50.9389 13.0689C50.2149 12.8881 49.281 13.1284 48.6675 13.6537C48.1284 14.1154 47.867 14.7599 47.9314 15.4682C47.9514 15.689 47.9811 15.9205 48.0125 16.1657C48.1222 17.0213 48.2879 18.3143 47.8106 18.6407C46.6302 19.4484 46.5035 20.7045 46.3693 22.0344C46.3403 22.3222 46.3104 22.6197 46.2692 22.9277C46.1523 23.8055 46.4674 24.2714 46.7525 24.5077C47.4707 25.1027 48.5003 24.7624 49.3275 24.4887C49.5116 24.4279 49.6853 24.3704 49.8134 24.3383C50.1106 24.2641 50.53 24.7888 51.1314 25.9912C51.3071 26.343 51.5025 26.6447 51.6748 26.9109C52.2438 27.7901 52.6932 28.4844 52.188 30.855C51.9677 31.8886 51.6478 32.2267 51.5452 32.2819C51.4671 32.2311 51.3251 31.9975 51.4113 31.7174C51.7755 30.5337 51.7668 29.6154 51.3851 28.9878C51.1365 28.5791 50.7499 28.3168 50.2671 28.2292C49.7796 28.1408 49.4726 28.2082 49.1343 28.478C49.0488 28.5462 48.8215 28.7276 47.6756 28.9231C46.3895 29.1428 46.1407 28.9387 45.5391 28.4457C45.2658 28.2217 44.9257 27.9429 44.4539 27.6709C43.6546 27.2099 43.0749 27.3348 42.729 27.5209C41.7163 28.066 41.5735 29.6169 41.4244 32.1022C41.4034 32.452 41.3284 32.696 41.2131 32.7892C40.9521 33.0003 40.1207 32.8736 39.4526 32.772C38.6596 32.6511 37.7609 32.5144 36.9402 32.702C35.8239 32.9572 35.0177 32.6668 34.3697 32.4333C33.9846 32.2946 33.6521 32.175 33.2968 32.175C32.4396 32.175 32.2027 33.0074 32.1015 33.3629C32.0663 33.4867 32.0023 33.7116 31.9486 33.7834C31.9081 33.7896 31.7579 33.7993 31.4307 33.6842C29.7707 33.1009 28.7789 33.723 28.1227 34.1345C27.7692 34.3564 27.558 34.4819 27.3326 34.4819C26.5938 34.4819 24.8244 34.2943 24.3547 32.5562C23.8837 30.8134 22.5259 30.6808 21.7965 30.6095C21.7166 30.6017 21.6202 30.5923 21.5396 30.5813C21.2466 28.8736 19.4704 28.7908 17.2427 28.6872C15.7714 28.6187 15.0936 29.015 14.9026 30.0552C14.896 30.0911 14.8878 30.1363 14.8803 30.1677C14.8519 30.1821 14.796 30.2056 14.6985 30.2299C13.6636 30.4885 12.5993 29.1805 12.4709 28.7837C12.2524 28.1081 11.4907 27.0449 8.84544 27.5174C7.37274 27.7804 7.27736 29.2197 7.22616 29.993C7.21861 30.1067 7.20888 30.254 7.19499 30.3758C6.19802 30.4626 5.73716 31.5052 5.42551 32.2513C5.20542 31.4978 4.76426 30.4868 3.42227 29.745C3.07595 29.5536 2.65885 29.238 2.63883 28.8213C2.62811 28.5956 2.73104 28.4022 2.81013 28.3072C3.41483 28.3225 5.20334 28.2674 5.9485 27.1386C6.26113 26.6649 6.49369 25.8459 5.82587 24.6335C5.49224 24.0278 5.37979 23.4044 5.48207 22.7276C5.54978 22.2795 5.24141 21.8614 4.79346 21.7937C4.34573 21.7265 3.92743 22.0344 3.85972 22.4823C3.70373 23.5145 3.88171 24.5046 4.38872 25.4251C4.59514 25.7999 4.66635 26.1024 4.57928 26.2345C4.34825 26.5844 3.26081 26.7134 2.76955 26.6645C2 26.5878 1.3382 27.3362 1.10629 28.0798C0.96529 28.532 0.658345 30.0922 2.62866 31.1812C3.60517 31.7208 3.77626 32.3988 3.94176 33.0544C4.07325 33.5752 4.2719 34.3623 5.11517 34.5311C6.16596 34.7412 6.61621 33.66 6.91418 32.9446C7.0309 32.6647 7.24202 32.1581 7.39199 32.0157C7.83185 32.0425 8.13037 31.875 8.30495 31.7265C8.78265 31.3202 8.82553 30.6727 8.86338 30.1014C8.91655 29.2993 8.98666 29.1589 9.1339 29.1326C10.3223 28.9204 10.8539 29.1159 10.9098 29.2888C11.2735 30.4128 13.0814 32.3253 15.0965 31.8216C16.3019 31.5204 16.4468 30.7307 16.5164 30.3512C16.5168 30.3496 16.517 30.3479 16.5173 30.3463C16.6205 30.3282 16.8176 30.3099 17.1663 30.3261C18.2055 30.3744 19.1052 30.4271 19.5913 30.5831C19.9076 30.6846 19.9151 30.7589 19.933 30.9385C20.0478 32.0872 21.1212 32.192 21.6371 32.2423C22.3189 32.3088 22.6023 32.3608 22.7708 32.984C23.5578 35.8961 26.4614 36.1225 27.3326 36.1225C28.0411 36.1225 28.5698 35.7908 28.9947 35.5243C29.5835 35.1549 29.9725 34.9109 30.8868 35.2322C31.6238 35.491 32.22 35.4938 32.7093 35.2405C33.3158 34.9264 33.5288 34.3286 33.6492 33.9183C33.7059 33.9382 33.7624 33.9585 33.8137 33.977C34.573 34.2505 35.7206 34.6635 37.3058 34.3015C37.8227 34.1834 38.5256 34.2904 39.2057 34.394C40.2948 34.5597 41.4208 34.731 42.2446 34.0651C42.7367 33.6672 43.0118 33.0398 43.0622 32.2004C43.1199 31.2371 43.2244 29.4958 43.4876 29.0188C43.5237 29.0335 43.572 29.0565 43.6338 29.0922C43.9893 29.2973 44.2484 29.5095 44.499 29.7149C45.3624 30.4224 46.0687 30.862 47.9517 30.5407C49.1724 30.3323 49.6841 30.0957 50.0011 29.8773C50.0516 30.0126 50.092 30.4248 49.8429 31.235C49.6063 32.004 49.8041 32.8569 50.3473 33.4079C50.7957 33.8627 51.4089 34.0334 51.9886 33.8641C52.5897 33.6887 53.3904 33.0834 53.7925 31.1971C54.4391 28.1629 53.7339 27.0733 53.0519 26.0196C52.8884 25.7668 52.7338 25.528 52.5986 25.2576C52.049 24.1583 51.1286 22.3188 49.4151 22.7467C49.2279 22.7935 49.0258 22.8604 48.8119 22.931C48.5817 23.0072 48.1583 23.1472 47.8902 23.187C47.8916 23.1737 47.8932 23.1596 47.8953 23.1446C47.9398 22.8106 47.9711 22.4997 48.0015 22.199C48.126 20.9651 48.2091 20.3559 48.7368 19.9949C50.0425 19.1016 49.8097 17.2842 49.6396 15.9571C49.6101 15.7272 49.5824 15.5102 49.5649 15.3196C49.5487 15.1409 49.5994 15.0153 49.7343 14.8997C49.9696 14.6982 50.3328 14.6361 50.4983 14.6536C50.6621 14.8755 50.7897 15.7146 50.8754 16.2776L50.9216 16.5793C51.1285 17.9068 52.0708 19.6405 55.3854 20.361C55.958 20.4858 56.4728 20.2798 56.7622 19.8107C57.5229 18.5789 56.2951 15.7287 55.3732 14.5873ZM23.7455 19.3183C23.2924 19.3183 22.9251 19.6856 22.9251 20.1387V21.0112C22.9251 21.4643 23.2924 21.8316 23.7455 21.8316C24.1986 21.8316 24.5659 21.4643 24.5659 21.0112V20.1387C24.5659 19.6855 24.1986 19.3183 23.7455 19.3183Z" fill="#3B9670"/>
<path d="M33.4366 20.1387V21.0112C33.4366 21.4643 33.8038 21.8316 34.257 21.8316C34.7102 21.8316 35.0774 21.4643 35.0774 21.0112V20.1387C35.0774 19.6856 34.7102 19.3183 34.257 19.3183C33.8039 19.3183 33.4366 19.6855 33.4366 20.1387ZM5.51127 19.7241C5.57319 19.7241 5.63608 19.717 5.69898 19.7023C6.14015 19.5991 6.41406 19.1577 6.3108 18.7165C6.23368 18.3871 6.07331 17.7018 6.29865 17.4071C6.45924 17.1971 6.88585 17.0697 7.49974 17.0481C9.93747 16.9626 10.685 15.8361 11.4079 14.7467C11.7952 14.163 12.1957 13.5595 12.925 12.9943C13.6431 12.4378 13.951 12.4274 14.0008 12.4303C14.0461 12.4784 14.3668 12.8895 14.2484 14.6976C14.1861 15.646 14.3693 16.3429 14.8081 16.8278C15.4221 17.5063 16.3165 17.5369 17.0351 17.5615C17.3584 17.5725 17.6638 17.583 17.8852 17.6447C18.583 17.839 19.1953 17.7776 19.6871 17.7283C19.9902 17.6979 20.3036 17.6665 20.3701 17.7392C20.6978 18.0967 21.0721 18.2702 21.4827 18.261C22.2568 18.2397 22.7814 17.6002 23.5754 16.6322C23.6481 16.5437 23.7234 16.4519 23.8017 16.357C23.8447 16.3049 23.8758 16.2774 23.8933 16.2638C24.0066 16.2892 24.2582 16.4421 24.4285 16.5457C25.0351 16.9143 25.9518 17.4716 27.0935 16.9824C28.35 16.444 28.675 16.0448 29.2904 15.1932C29.5132 14.8851 29.7903 14.5014 30.2124 13.9985C30.9554 13.1124 32.0307 12.8548 32.4745 13.06C32.5448 13.0925 32.7585 13.1914 32.6574 13.7833C32.5129 14.6293 32.676 15.2661 33.142 15.6756C33.9495 16.3852 35.2085 15.9986 36.1278 15.7163C36.338 15.6518 36.5764 15.5786 36.6805 15.5629C36.7602 15.5558 36.9994 15.6141 37.1581 15.6533C37.9535 15.8498 39.6085 16.2579 40.4298 13.9111C40.9841 12.3274 41.3898 12.2678 42.5945 12.0909C42.7224 12.0721 42.8549 12.0527 42.9923 12.0307C45.664 11.6032 46.1631 9.85383 46.5641 8.44807C46.678 8.04891 46.7855 7.67196 46.9352 7.32684C47.1793 6.76316 47.6306 6.47382 48.2017 6.10759C48.9353 5.63711 49.8483 5.05166 50.2329 3.74359C50.4175 3.11635 50.9458 2.75679 51.2298 2.66425C51.2215 2.82428 51.1684 3.10957 50.993 3.54012C50.3758 5.05483 50.2489 5.89111 50.5402 6.52305C50.807 7.10172 51.3409 7.27871 51.66 7.38438C51.7831 7.42518 51.8994 7.46368 51.9556 7.50241C51.9556 7.50251 51.9606 7.50678 51.9698 7.51696C52.2709 7.85551 52.7895 7.8857 53.1281 7.58445C53.4666 7.2833 53.4968 6.76469 53.1955 6.42624C53.1022 6.32133 53.0012 6.23098 52.8949 6.15725C52.6394 5.98037 52.3824 5.89526 52.1761 5.8269C52.1315 5.81213 52.0775 5.79419 52.0327 5.77778C52.0352 5.616 52.0966 5.17997 52.5124 4.15926C52.9918 2.98268 52.9904 2.09236 52.5086 1.51315C52.1519 1.08445 51.589 0.912931 50.9643 1.04201C50.0927 1.22217 49.0209 2.04915 48.6587 3.28065C48.4467 4.00109 47.9725 4.30541 47.3159 4.72645C46.6394 5.16028 45.8727 5.65198 45.4296 6.67455C45.2371 7.11845 45.1096 7.56563 44.9862 7.99805C44.6168 9.29288 44.3729 10.1483 42.733 10.4106C42.6028 10.4315 42.4773 10.4499 42.3561 10.4676C41.0228 10.6634 39.7633 10.8483 38.881 13.3691C38.5526 14.3077 38.3204 14.2504 37.5512 14.0604C37.1955 13.9726 36.8279 13.882 36.4391 13.94C36.2118 13.9742 35.9495 14.0546 35.646 14.1478C35.3371 14.2426 34.5505 14.4837 34.2518 14.4369C34.2442 14.3761 34.2407 14.2585 34.2747 14.0594C34.4704 12.9137 34.055 11.9834 33.1637 11.5708C31.9291 10.9992 30.0802 11.6024 28.9552 12.944C28.4953 13.4923 28.1989 13.9024 27.9607 14.232C27.4585 14.9267 27.3393 15.0918 26.4472 15.4741C26.1152 15.6164 25.8503 15.4897 25.281 15.1435C24.718 14.8013 23.5468 14.0891 22.5369 15.3118C22.4572 15.4082 22.3807 15.5015 22.3069 15.5914C22.0282 15.9311 21.6956 16.3368 21.4832 16.5322C20.8769 15.9597 20.1299 16.0347 19.5234 16.0954C19.1133 16.1366 18.7262 16.1754 18.3255 16.0638C17.9155 15.9496 17.4965 15.9353 17.0912 15.9214C16.6606 15.9068 16.1726 15.89 16.0247 15.7266C15.9688 15.6648 15.8433 15.4513 15.8857 14.8048C15.9737 13.4636 15.9536 11.6077 14.7693 10.9782C13.6297 10.3728 12.3427 11.3695 11.9199 11.6971C10.9775 12.4275 10.4582 13.2103 10.0407 13.8393C9.39337 14.8148 9.03687 15.3521 7.4422 15.408C6.29636 15.4483 5.4732 15.7854 4.99528 16.4102C4.29892 17.3207 4.57873 18.5159 4.71317 19.0904C4.80167 19.4688 5.1388 19.7241 5.51127 19.7241ZM29.7684 20.5107C29.5746 20.7331 29.295 20.8606 29.0012 20.8606C28.7074 20.8606 28.4278 20.7332 28.2341 20.5108C27.9363 20.1692 27.4181 20.1336 27.0766 20.4313C26.735 20.7289 26.6995 21.2471 26.9971 21.5888C27.5026 22.1689 28.233 22.5016 29.0012 22.5016C29.7693 22.5016 30.4998 22.1689 31.0053 21.589C31.3031 21.2473 31.2674 20.7292 30.9258 20.4314C30.5844 20.1335 30.0661 20.1691 29.7684 20.5107ZM55.3732 14.5873C55.1423 14.3014 54.9159 14.0435 54.697 13.7941C53.7032 12.6621 53.4062 12.2368 53.694 11.5302C53.7595 11.3698 53.8173 11.1979 53.8657 11.0194C53.9844 10.5821 53.7263 10.1313 53.289 10.0126C52.8521 9.89408 52.401 10.1519 52.2823 10.5893C52.2513 10.7036 52.2151 10.8116 52.1747 10.9107C51.4798 12.6162 52.4884 13.7654 53.4638 14.8765C53.6718 15.1135 53.887 15.3585 54.0967 15.6182C54.8184 16.5117 55.2984 17.9728 55.3619 18.669C53.6647 18.2279 52.7172 17.4409 52.5436 16.3268L52.4982 16.0309C52.2982 14.7163 52.0913 13.3569 50.9389 13.0689C50.2149 12.8881 49.281 13.1284 48.6675 13.6537C48.1284 14.1154 47.867 14.7599 47.9314 15.4682C47.9514 15.689 47.9811 15.9205 48.0125 16.1657C48.1222 17.0213 48.2879 18.3143 47.8106 18.6407C46.6302 19.4484 46.5035 20.7045 46.3693 22.0344C46.3403 22.3222 46.3104 22.6197 46.2692 22.9277C46.1523 23.8055 46.4674 24.2714 46.7525 24.5077C47.4707 25.1027 48.5003 24.7624 49.3275 24.4887C49.5116 24.4279 49.6853 24.3704 49.8134 24.3383C50.1106 24.2641 50.53 24.7888 51.1314 25.9912C51.3071 26.343 51.5025 26.6447 51.6748 26.9109C52.2438 27.7901 52.6932 28.4844 52.188 30.855C51.9677 31.8886 51.6478 32.2267 51.5452 32.2819C51.4671 32.2311 51.3251 31.9975 51.4113 31.7174C51.7755 30.5337 51.7668 29.6154 51.3851 28.9878C51.1365 28.5791 50.7499 28.3168 50.2671 28.2292C49.7796 28.1408 49.4726 28.2082 49.1343 28.478C49.0488 28.5462 48.8215 28.7276 47.6756 28.9231C46.3895 29.1428 46.1407 28.9387 45.5391 28.4457C45.2658 28.2217 44.9257 27.9429 44.4539 27.6709C43.6546 27.2099 43.0749 27.3348 42.729 27.5209C41.7163 28.066 41.5735 29.6169 41.4244 32.1022C41.4034 32.452 41.3284 32.696 41.2131 32.7892C40.9521 33.0003 40.1207 32.8736 39.4526 32.772C38.6596 32.6511 37.7609 32.5144 36.9402 32.702C35.8239 32.9572 35.0177 32.6668 34.3697 32.4333C33.9846 32.2946 33.6521 32.175 33.2968 32.175C32.4396 32.175 32.2027 33.0074 32.1015 33.3629C32.0663 33.4867 32.0023 33.7116 31.9486 33.7834C31.9081 33.7896 31.7579 33.7993 31.4307 33.6842C29.7707 33.1009 28.7789 33.723 28.1227 34.1345C27.7692 34.3564 27.558 34.4819 27.3326 34.4819C26.5938 34.4819 24.8244 34.2943 24.3547 32.5562C23.8837 30.8134 22.5259 30.6808 21.7965 30.6095C21.7166 30.6017 21.6202 30.5923 21.5396 30.5813C21.2466 28.8736 19.4704 28.7908 17.2427 28.6872C15.7714 28.6187 15.0936 29.015 14.9026 30.0552C14.896 30.0911 14.8878 30.1363 14.8803 30.1677C14.8519 30.1821 14.796 30.2056 14.6985 30.2299C13.6636 30.4885 12.5993 29.1805 12.4709 28.7837C12.2524 28.1081 11.4907 27.0449 8.84544 27.5174C7.37274 27.7804 7.27736 29.2197 7.22616 29.993C7.21861 30.1067 7.20888 30.254 7.19499 30.3758C6.19802 30.4626 5.73716 31.5052 5.42551 32.2513C5.20542 31.4978 4.76426 30.4868 3.42227 29.745C3.07595 29.5536 2.65885 29.238 2.63883 28.8213C2.62811 28.5956 2.73104 28.4022 2.81013 28.3072C3.41483 28.3225 5.20334 28.2674 5.9485 27.1386C6.26113 26.6649 6.49369 25.8459 5.82587 24.6335C5.49224 24.0278 5.37979 23.4044 5.48207 22.7276C5.54978 22.2795 5.24141 21.8614 4.79346 21.7937C4.34573 21.7265 3.92743 22.0344 3.85972 22.4823C3.70373 23.5145 3.88171 24.5046 4.38872 25.4251C4.59514 25.7999 4.66635 26.1024 4.57928 26.2345C4.34825 26.5844 3.26081 26.7134 2.76955 26.6645C2 26.5878 1.3382 27.3362 1.10629 28.0798C0.96529 28.532 0.658345 30.0922 2.62866 31.1812C3.60517 31.7208 3.77626 32.3988 3.94176 33.0544C4.07325 33.5752 4.2719 34.3623 5.11517 34.5311C6.16596 34.7412 6.61621 33.66 6.91418 32.9446C7.0309 32.6647 7.24202 32.1581 7.39199 32.0157C7.83185 32.0425 8.13037 31.875 8.30495 31.7265C8.78265 31.3202 8.82553 30.6727 8.86338 30.1014C8.91655 29.2993 8.98666 29.1589 9.1339 29.1326C10.3223 28.9204 10.8539 29.1159 10.9098 29.2888C11.2735 30.4128 13.0814 32.3253 15.0965 31.8216C16.3019 31.5204 16.4468 30.7307 16.5164 30.3512C16.5168 30.3496 16.517 30.3479 16.5173 30.3463C16.6205 30.3282 16.8176 30.3099 17.1663 30.3261C18.2055 30.3744 19.1052 30.4271 19.5913 30.5831C19.9076 30.6846 19.9151 30.7589 19.933 30.9385C20.0478 32.0872 21.1212 32.192 21.6371 32.2423C22.3189 32.3088 22.6023 32.3608 22.7708 32.984C23.5578 35.8961 26.4614 36.1225 27.3326 36.1225C28.0411 36.1225 28.5698 35.7908 28.9947 35.5243C29.5835 35.1549 29.9725 34.9109 30.8868 35.2322C31.6238 35.491 32.22 35.4938 32.7093 35.2405C33.3158 34.9264 33.5288 34.3286 33.6492 33.9183C33.7059 33.9382 33.7624 33.9585 33.8137 33.977C34.573 34.2505 35.7206 34.6635 37.3058 34.3015C37.8227 34.1834 38.5256 34.2904 39.2057 34.394C40.2948 34.5597 41.4208 34.731 42.2446 34.0651C42.7367 33.6672 43.0118 33.0398 43.0622 32.2004C43.1199 31.2371 43.2244 29.4958 43.4876 29.0188C43.5237 29.0335 43.572 29.0565 43.6338 29.0922C43.9893 29.2973 44.2484 29.5095 44.499 29.7149C45.3624 30.4224 46.0687 30.862 47.9517 30.5407C49.1724 30.3323 49.6841 30.0957 50.0011 29.8773C50.0516 30.0126 50.092 30.4248 49.8429 31.235C49.6063 32.004 49.8041 32.8569 50.3473 33.4079C50.7957 33.8627 51.4089 34.0334 51.9886 33.8641C52.5897 33.6887 53.3904 33.0834 53.7925 31.1971C54.4391 28.1629 53.7339 27.0733 53.0519 26.0196C52.8884 25.7668 52.7338 25.528 52.5986 25.2576C52.049 24.1583 51.1286 22.3188 49.4151 22.7467C49.2279 22.7935 49.0258 22.8604 48.8119 22.931C48.5817 23.0072 48.1583 23.1472 47.8902 23.187C47.8916 23.1737 47.8932 23.1596 47.8953 23.1446C47.9398 22.8106 47.9711 22.4997 48.0015 22.199C48.126 20.9651 48.2091 20.3559 48.7368 19.9949C50.0425 19.1016 49.8097 17.2842 49.6396 15.9571C49.6101 15.7272 49.5824 15.5102 49.5649 15.3196C49.5487 15.1409 49.5994 15.0153 49.7343 14.8997C49.9696 14.6982 50.3328 14.6361 50.4983 14.6536C50.6621 14.8755 50.7897 15.7146 50.8754 16.2776L50.9216 16.5793C51.1285 17.9068 52.0708 19.6405 55.3854 20.361C55.958 20.4858 56.4728 20.2798 56.7622 19.8107C57.5229 18.5789 56.2951 15.7287 55.3732 14.5873ZM23.7455 19.3183C23.2924 19.3183 22.9251 19.6856 22.9251 20.1387V21.0112C22.9251 21.4643 23.2924 21.8316 23.7455 21.8316C24.1986 21.8316 24.5659 21.4643 24.5659 21.0112V20.1387C24.5659 19.6855 24.1986 19.3183 23.7455 19.3183Z" stroke="#3B9670" stroke-width="0.2" mask="url(#path-1-outside-1_0_1771)"/>
</svg>
