<svg width="44" height="48" viewBox="0 0 44 48" fill="none" xmlns="http://www.w3.org/2000/svg">
<path d="M37.9352 38.5999C37.5468 38.5999 37.2321 38.9146 37.2321 39.3031V47.2969C37.2321 47.6853 37.5468 48.0001 37.9352 48.0001C38.3236 48.0001 38.6383 47.6853 38.6383 47.2969V39.3031C38.6383 38.9147 38.3236 38.5999 37.9352 38.5999Z" fill="#3B9670"/>
<path d="M21.2311 38.5999C20.8427 38.5999 20.528 38.9146 20.528 39.3031V47.2969C20.528 47.6853 20.8427 48.0001 21.2311 48.0001C21.6195 48.0001 21.9342 47.6853 21.9342 47.2969V39.3031C21.9342 38.9147 21.6195 38.5999 21.2311 38.5999Z" fill="#3B9670"/>
<path d="M32.7805 28.1459V27.271C35.5897 26.1748 37.7233 23.6808 38.3404 20.644C38.4358 20.6517 38.5314 20.6569 38.6273 20.6569C40.5902 20.6569 42.1871 19.06 42.1871 17.0972C42.1871 15.954 41.6448 14.9357 40.8046 14.2839V10.3456C40.8144 10.3226 40.8248 10.3001 40.8343 10.277C41.1823 9.42834 41.3137 8.49675 41.2146 7.58278C41.1833 7.29319 41.1419 7.00209 41.0915 6.71737C40.4042 2.82506 37.0124 0 33.0265 0H32.8854C32.497 0 32.1823 0.314719 32.1823 0.703125C32.1823 1.09153 32.497 1.40625 32.8854 1.40625H33.0265C36.3289 1.40625 39.1382 3.74269 39.7066 6.96187C39.7515 7.21594 39.7885 7.47572 39.8165 7.73428C39.8905 8.41613 39.7924 9.111 39.5331 9.74344C38.898 11.292 37.406 12.2926 35.7321 12.2926H23.4352C21.7634 12.2926 20.2722 11.2937 19.6361 9.74775C19.6354 9.74606 19.6345 9.74391 19.6336 9.74175C19.3739 9.10875 19.2757 8.41378 19.3498 7.73184C19.3778 7.47422 19.4146 7.21519 19.4594 6.96178C20.0276 3.74269 22.837 1.40625 26.1394 1.40625H29.7144C30.1028 1.40625 30.4175 1.09153 30.4175 0.703125C30.4175 0.314719 30.1028 0 29.7144 0H26.1394C22.1534 0 18.7616 2.82506 18.0744 6.71728C18.0243 7.00116 17.9829 7.29141 17.9516 7.57978C17.8519 8.49591 17.9845 9.42975 18.3344 10.2803C18.3351 10.282 18.3361 10.2843 18.337 10.2865C18.3448 10.3055 18.3534 10.3239 18.3614 10.3428V14.2837C17.5209 14.9354 16.9784 15.9538 16.9784 17.0971C16.9784 19.0599 18.5757 20.6568 20.539 20.6568C20.6281 20.6568 20.7173 20.6523 20.8064 20.6456C21.1431 22.3913 21.9937 23.9949 23.2839 25.2759C24.1828 26.1684 25.2368 26.8465 26.3849 27.2856V28.146C23.6975 28.414 21.2686 29.5368 19.3643 31.2322L13.7835 25.6513C13.6516 25.5195 13.4729 25.4454 13.2863 25.4454H0.709259C0.320853 25.4454 0.00613403 25.7602 0.00613403 26.1486C0.00613403 26.537 0.320853 26.8517 0.709259 26.8517H12.9953L18.3682 32.2247C16.3794 34.44 15.1728 37.3643 15.1728 40.5453V42.161C15.1728 42.5494 15.4875 42.8641 15.8759 42.8641C16.2644 42.8641 16.5791 42.5494 16.5791 42.161V40.5453C16.5791 37.7501 17.6293 35.1785 19.3635 33.22L19.6372 33.4937C19.7745 33.6309 19.9544 33.6996 20.1344 33.6996C20.3144 33.6996 20.4944 33.6309 20.6317 33.4937C20.9063 33.219 20.9063 32.7739 20.6317 32.4993L20.3605 32.2281C22.0069 30.7842 24.0861 29.8183 26.3851 29.5595V30.4101C26.3851 32.173 27.8199 33.6073 29.5833 33.6073C31.3463 33.6073 32.7806 32.173 32.7806 30.4101V29.5593C38.3218 30.1827 42.5872 34.9076 42.5872 40.5453V47.2969C42.5872 47.6853 42.9019 48 43.2903 48C43.6787 48 43.9934 47.6853 43.9934 47.2969V40.5452C43.9933 34.1373 39.1035 28.7762 32.7805 28.1459ZM38.6272 19.2506C38.5889 19.2506 38.5505 19.2496 38.5124 19.2475C38.5186 19.109 38.5223 18.9698 38.5223 18.8297V14.9487C38.5573 14.947 38.592 14.9438 38.6272 14.9438C39.8146 14.9438 40.7807 15.9098 40.7807 17.0973C40.7807 18.2847 39.8146 19.2506 38.6272 19.2506ZM39.3982 12.3076V13.6226C39.1498 13.5675 38.8919 13.5376 38.6271 13.5376C38.592 13.5376 38.5572 13.539 38.5222 13.54V13.3417C38.5222 13.2112 38.5184 13.0804 38.5126 12.9501C38.8283 12.7661 39.1249 12.551 39.3982 12.3076ZM19.7678 12.3063C20.0409 12.5497 20.3374 12.7647 20.6528 12.9487C20.6471 13.0795 20.6432 13.2107 20.6432 13.3416V13.5399C20.6085 13.5389 20.5739 13.5375 20.5392 13.5375C20.2742 13.5375 20.0164 13.5675 19.7678 13.6226V12.3063ZM20.5391 19.2506C19.3511 19.2506 18.3847 18.2846 18.3847 17.0972C18.3847 15.9097 19.3512 14.9437 20.5391 14.9437C20.5739 14.9437 20.6084 14.9468 20.6431 14.9486V18.9328C20.6431 19.0382 20.6456 19.1431 20.6492 19.2478C20.6126 19.2497 20.5758 19.2506 20.5391 19.2506ZM22.0495 18.9328V13.5233C22.4948 13.638 22.9595 13.6988 23.4352 13.6988H35.732C36.2072 13.6988 36.6712 13.6381 37.116 13.5237V18.8297C37.116 23.0095 33.7622 26.435 29.64 26.4656C29.6214 26.4658 29.6029 26.4658 29.5843 26.4658C27.5808 26.4658 25.6971 25.6902 24.2748 24.2781C22.8397 22.8533 22.0495 20.955 22.0495 18.9328ZM29.5832 32.201C28.5951 32.201 27.7913 31.3976 27.7913 30.41V27.6931C28.3751 27.8112 28.9748 27.8721 29.5841 27.872C29.606 27.872 29.6283 27.872 29.6503 27.8718C30.24 27.8674 30.8163 27.804 31.3742 27.6882V30.4099C31.3742 31.3975 30.5708 32.201 29.5832 32.201Z" fill="#3B9670"/>
<path d="M15.8755 44.6288C15.4871 44.6288 15.1724 44.9435 15.1724 45.3319V47.2969C15.1724 47.6853 15.4871 48 15.8755 48C16.264 48 16.5787 47.6853 16.5787 47.2969V45.3319C16.5787 44.9435 16.264 44.6288 15.8755 44.6288Z" fill="#3B9670"/>
<path d="M33.4481 17.5813C33.4508 17.5814 33.4536 17.5814 33.4563 17.5814C33.8409 17.5814 34.1548 17.2718 34.1592 16.8863C34.1637 16.498 33.8525 16.1796 33.4642 16.1752L33.4563 16.1751C33.4535 16.175 33.4507 16.175 33.448 16.175C33.0635 16.175 32.7535 16.4846 32.7491 16.8701C32.7446 17.2584 33.0597 17.5769 33.4481 17.5813Z" fill="#3B9670"/>
<path d="M25.7175 16.1751H25.7097C25.3213 16.1751 25.0105 16.4898 25.0105 16.8782C25.0105 17.2666 25.3291 17.5814 25.7175 17.5814C26.1059 17.5814 26.4207 17.2666 26.4207 16.8782C26.4207 16.4898 26.1058 16.1751 25.7175 16.1751Z" fill="#3B9670"/>
<path d="M11.4282 28.8693H2.5351C2.14669 28.8693 1.83197 29.184 1.83197 29.5724C1.83197 29.9608 2.14669 30.2756 2.5351 30.2756H11.4281C11.8165 30.2756 12.1313 29.9608 12.1313 29.5724C12.1313 29.184 11.8165 28.8693 11.4282 28.8693Z" fill="#3B9670"/>
<path d="M11.4288 31.3382H6.36255C5.97414 31.3382 5.65942 31.6529 5.65942 32.0413C5.65942 32.4297 5.97414 32.7444 6.36255 32.7444H11.4288C11.8172 32.7444 12.1319 32.4297 12.1319 32.0413C12.1319 31.6529 11.8171 31.3382 11.4288 31.3382Z" fill="#3B9670"/>
<path d="M11.4288 33.8068H6.36255C5.97414 33.8068 5.65942 34.1216 5.65942 34.51C5.65942 34.8984 5.97414 35.2131 6.36255 35.2131H11.4288C11.8172 35.2131 12.1319 34.8984 12.1319 34.51C12.1319 34.1216 11.8171 33.8068 11.4288 33.8068Z" fill="#3B9670"/>
<path d="M10.4622 37.3857H8.21469C7.3101 37.3857 6.57407 38.1217 6.57407 39.0263V41.2739C6.57407 42.1785 7.3101 42.9145 8.21469 42.9145H10.4622C11.3668 42.9145 12.1028 42.1785 12.1028 41.2739V39.0263C12.1028 38.1217 11.3668 37.3857 10.4622 37.3857ZM10.6965 41.2739C10.6965 41.4032 10.5914 41.5083 10.4622 41.5083H8.21469C8.08541 41.5083 7.98032 41.4032 7.98032 41.2739V39.0263C7.98032 38.8971 8.08541 38.792 8.21469 38.792H10.4622C10.5914 38.792 10.6965 38.8971 10.6965 39.0263V41.2739Z" fill="#3B9670"/>
<path d="M2.34881 19.8995C3.50315 21.4958 5.16422 22.6473 7.28634 23.3221C7.39378 23.3562 7.50421 23.3733 7.61475 23.3733C7.72528 23.3733 7.83572 23.3562 7.94325 23.3221C10.0653 22.6473 11.7264 21.4958 12.8806 19.8995C13.4448 19.1195 13.7632 18.3926 13.931 17.9204C14.0345 17.6293 14.0871 17.3235 14.0871 17.0116V15.3875C14.0871 14.9991 13.7723 14.6844 13.3839 14.6844C12.9955 14.6844 12.6808 14.9991 12.6808 15.3875V17.0116C12.6808 17.1624 12.6556 17.3097 12.6059 17.4494C12.4688 17.8353 12.2076 18.4306 11.7411 19.0757C10.7844 20.3986 9.39656 21.3655 7.61465 21.9505C5.83284 21.3654 4.44478 20.3985 3.48825 19.0758C3.32034 18.8434 3.16593 18.599 3.02943 18.3495C2.71481 17.7738 2.5484 17.1152 2.5484 16.4447V10.8542L7.61456 9.62041L12.6806 10.8542V12.2165C12.6806 12.6049 12.9953 12.9197 13.3837 12.9197C13.7722 12.9197 14.0869 12.6049 14.0869 12.2165V10.6031C14.0869 10.1002 13.7456 9.66597 13.2572 9.5471L7.87097 8.23535C7.70343 8.19475 7.52597 8.19475 7.35731 8.23553L1.97184 9.5471C1.48331 9.66597 1.14206 10.1001 1.14206 10.6031V16.4446C1.14206 17.3501 1.368 18.242 1.7955 19.0241C1.9605 19.3251 2.1465 19.6196 2.34881 19.8995Z" fill="#3B9670"/>
<path d="M7.61499 17.8002C8.0034 17.8002 8.31812 17.4855 8.31812 17.0971V16.106H9.30915C9.69756 16.106 10.0123 15.7913 10.0123 15.4029C10.0123 15.0145 9.69756 14.6998 9.30915 14.6998H8.31812V13.7087C8.31812 13.3203 8.0034 13.0056 7.61499 13.0056C7.22659 13.0056 6.91187 13.3203 6.91187 13.7087V14.6998H5.92084C5.53243 14.6998 5.21771 15.0145 5.21771 15.4029C5.21771 15.7913 5.53243 16.106 5.92084 16.106H6.91187V17.0971C6.91187 17.4855 7.22659 17.8002 7.61499 17.8002Z" fill="#3B9670"/>
<path d="M32.6865 20.9323C32.7005 20.5441 32.3973 20.2183 32.0092 20.2042C31.62 20.1913 31.2952 20.4934 31.2811 20.8816C31.2479 21.7999 30.5018 22.5194 29.5824 22.5194C28.6629 22.5194 27.9168 21.8 27.8838 20.8816C27.8699 20.4935 27.5437 20.1899 27.1558 20.2042C26.7677 20.2182 26.4644 20.5441 26.4784 20.9322C26.5388 22.6107 27.9022 23.9256 29.5823 23.9256C31.2624 23.9256 32.6259 22.6109 32.6865 20.9323Z" fill="#3B9670"/>
</svg>
