<svg width="207" height="46" viewBox="0 0 207 46" fill="none" xmlns="http://www.w3.org/2000/svg">
<path d="M3.45551 44.7102C1.92904 44.7102 0.683167 43.4683 0.683167 41.9445V3.4503C0.683167 1.92494 1.92824 0.683838 3.45551 0.683838H41.9958C43.5247 0.683838 44.7665 1.92494 44.7665 3.4503V41.9445C44.7665 43.4683 43.5255 44.7102 41.9958 44.7102H3.45551Z" fill="white"/>
<path d="M41.9957 1.36922C43.1477 1.36922 44.0793 2.30285 44.0793 3.45027V41.9445C44.0793 43.0943 43.1477 44.0239 41.9957 44.0239H3.45541C2.30414 44.0239 1.37335 43.0943 1.37335 41.9445V3.45027C1.37335 2.30285 2.30414 1.36922 3.45541 1.36922H41.9957ZM41.9957 0H3.45541C1.54892 0 0 1.54617 0 3.45027V41.9445C0 43.8486 1.54892 45.3947 3.45541 45.3947H41.9957C43.9014 45.3947 45.4519 43.8486 45.4519 41.9445V3.45027C45.4519 1.54617 43.9014 0 41.9957 0Z" fill="#4E6A58"/>
<path d="M40.9824 2.49072H4.46649C3.37856 2.49072 2.49426 3.37471 2.49426 4.46047V40.9329C2.49426 42.0194 3.37856 42.9018 4.46649 42.9018H40.9824C42.072 42.9018 42.9563 42.0194 42.9563 40.9329V4.46127C42.9571 3.37551 42.0728 2.49072 40.9824 2.49072ZM23.1514 36.541C13.7761 36.541 6.2431 30.8183 5.92803 24.3461C5.69713 19.5547 8.21614 14.0066 14.2451 11.3218C16.4995 10.3097 20.3341 9.46972 24.0645 9.42969C25.4138 9.38645 26.4721 8.95166 28.0563 8.82835C29.3944 8.70905 31.1269 8.66741 32.2741 9.07577C33.7349 9.71314 34.6384 10.9214 35.6646 11.843L34.636 12.5709L36.4174 13.5333L34.3265 13.1714L34.1317 13.9833C32.5074 13.82 30.7308 13.5333 29.1258 13.3708C27.2257 12.936 25.6479 12.6485 23.6741 12.6045C15.2328 12.4852 9.51492 18.1919 9.71214 23.7032C9.90616 30.739 18.7844 33.3574 24.2193 33.3574C39.3637 33.443 39.6371 20.0455 34.3995 19.7709C32.8987 19.7004 30.6507 29.2993 27.0173 29.2633C23.9098 29.2313 22.0883 20.1712 20.565 20.1712C19.2646 20.2041 17.7951 26.6802 16.5709 28.8974C15.9046 30.1409 12.3947 26.6058 12.632 26.0437C12.8701 25.484 14.1657 28.0014 15.0732 27.2119C15.6713 26.6802 16.9308 17.2695 20.4792 16.9812C23.5947 16.7426 25.8395 26.9789 27.1848 26.882C28.8372 26.8476 31.4027 16.8731 34.1694 17.1493C42.917 18.0413 42.1233 36.5514 23.1514 36.541Z" fill="#4E6A58"/>
<path d="M30.4231 10.6916C31.131 10.7212 31.4181 10.6844 31.4581 10.529C31.4958 10.3729 31.123 10.1887 30.6131 10.0638C30.1048 9.94291 29.6623 10.1287 29.6286 10.2808C29.5845 10.4401 29.898 10.6708 30.4231 10.6916Z" fill="#4E6A58"/>
<path d="M69.3223 25.0538C69.0225 25.1411 68.6762 25.2212 68.2833 25.2932C67.8897 25.3645 67.4503 25.4246 66.9653 25.475C66.481 25.5238 65.9543 25.5487 65.3867 25.5487C63.9404 25.5487 62.6905 25.3325 61.6379 24.9009C60.5852 24.4709 59.7185 23.888 59.0371 23.1545C58.3556 22.4211 57.8505 21.5683 57.5202 20.5963C57.1907 19.625 57.0264 18.5945 57.0264 17.5047C57.0264 16.2196 57.2348 15.0393 57.6509 13.9656C58.067 12.8918 58.6635 11.9654 59.4395 11.1863C60.2156 10.4072 61.1544 9.80188 62.2568 9.3711C63.3583 8.93951 64.5946 8.72412 65.9647 8.72412C66.9116 8.72412 67.7269 8.78257 68.4124 8.90028C69.0979 9.01798 69.6454 9.12928 70.0535 9.23497V13.7614C69.8867 13.6629 69.6847 13.5628 69.4458 13.4611C69.2069 13.3594 68.9383 13.2666 68.6393 13.1833C68.3394 13.1 68.0123 13.0319 67.6564 12.9791C67.3004 12.9263 66.9212 12.8998 66.5203 12.8998C65.9527 12.8998 65.4075 12.9815 64.8848 13.144C64.3621 13.3066 63.9043 13.562 63.5107 13.9095C63.117 14.2578 62.8028 14.6998 62.5679 15.2371C62.3329 15.7744 62.2159 16.4134 62.2159 17.1548C62.2159 17.7826 62.3105 18.3559 62.4997 18.8731C62.6889 19.3912 62.9655 19.8332 63.3287 20.1999C63.6919 20.5666 64.1368 20.8525 64.6635 21.0567C65.1895 21.2609 65.786 21.3634 66.4522 21.3634C66.8386 21.3634 67.2074 21.3345 67.5594 21.2785C67.9113 21.2216 68.2392 21.148 68.5423 21.0575C68.8453 20.967 69.1235 20.8685 69.3777 20.7628C69.631 20.6571 69.8563 20.5546 70.0535 20.4561V24.824C69.8651 24.8889 69.6214 24.9674 69.3223 25.0538Z" fill="#4E6A58"/>
<path d="M87.5021 25.2629V16.3462C87.5021 16.0596 87.5061 15.7545 87.5133 15.4334C87.5205 15.1123 87.5302 14.7944 87.5422 14.4805C87.5534 14.1667 87.5662 13.8664 87.5815 13.5789C87.5967 13.2915 87.6079 13.0417 87.6151 12.8303H87.4789C87.4332 13.0721 87.3842 13.3259 87.3313 13.5902C87.2784 13.8552 87.2271 14.1082 87.1782 14.35C87.1293 14.5918 87.082 14.8136 87.0363 15.0138C86.9906 15.214 86.9529 15.3709 86.9225 15.4846L84.5261 25.2637H79.9146L77.4036 15.5975C77.3732 15.4918 77.3371 15.3277 77.2954 15.1043C77.2537 14.8817 77.2064 14.6375 77.1535 14.3725C77.1006 14.1074 77.0493 13.8376 77.0004 13.5613C76.9515 13.2851 76.9074 13.0417 76.8697 12.8295H76.7334C76.7486 13.1922 76.7655 13.5894 76.7847 14.0201C76.8032 14.4517 76.82 14.8825 76.8352 15.3133C76.8505 15.7441 76.8641 16.1588 76.8753 16.5552C76.8865 16.9523 76.8921 17.2983 76.8921 17.5929V25.2621H72.5869V8.99487H79.9363L82.1739 17.8323C82.2116 17.9684 82.2476 18.1366 82.2813 18.3368C82.315 18.537 82.3495 18.7467 82.3831 18.9661C82.4176 19.1855 82.4497 19.4065 82.4801 19.6299C82.5106 19.8525 82.533 20.0511 82.5483 20.2257H82.6164C82.6389 20.0439 82.6661 19.8437 82.6958 19.6243C82.7255 19.4049 82.7607 19.1855 82.7984 18.9661C82.8361 18.7467 82.8738 18.5353 82.9123 18.3312C82.9499 18.127 82.9836 17.946 83.0141 17.7867L85.1042 8.99487H92.3397V25.2629H87.5021Z" fill="#4E6A58"/>
<path d="M95.5666 20.8048V17.5491H101.78V20.8048H95.5666Z" fill="#4E6A58"/>
<path d="M114.024 25.2629L110.413 18.388C110.381 18.32 110.344 18.2351 110.298 18.1334C110.252 18.0309 110.209 17.9276 110.168 17.8211C110.126 17.7154 110.088 17.6129 110.054 17.5144C110.02 17.416 109.996 17.3327 109.98 17.2646H109.924V25.2621H105.016V8.99487H109.924V16.7321H109.98C110.025 16.6032 110.094 16.4303 110.184 16.2101C110.276 15.9907 110.369 15.7865 110.468 15.5975L113.717 8.99487H119.533L114.909 16.7546L119.975 25.2629H114.024Z" fill="#4E6A58"/>
<path d="M129.654 25.2633V16.9022H127.803C127.643 18.1121 127.471 19.1619 127.285 20.0506C127.099 20.9394 126.893 21.6977 126.666 22.3255C126.439 22.9532 126.183 23.4673 125.9 23.8676C125.616 24.2696 125.292 24.5827 124.929 24.8093C124.565 25.0367 124.154 25.192 123.696 25.2753C123.239 25.3586 122.721 25.3994 122.145 25.3994C121.843 25.3994 121.537 25.381 121.23 25.3425C120.923 25.3049 120.684 25.2569 120.51 25.1952V22.2006C120.722 22.2758 120.964 22.3143 121.237 22.3143C121.456 22.3143 121.66 22.2686 121.85 22.1781C122.039 22.0877 122.217 21.9211 122.384 21.6785C122.551 21.4359 122.709 21.11 122.861 20.6968C123.013 20.2845 123.16 19.7576 123.304 19.1138C123.449 18.4708 123.592 17.7014 123.737 16.8054C123.88 15.9086 124.028 14.8556 124.179 13.6458H134.492V25.2625H129.654V25.2633Z" fill="#4E6A58"/>
<path d="M145.34 25.2635V18.9675C145.219 19.2021 145.077 19.4591 144.914 19.7385C144.751 20.0188 144.583 20.287 144.409 20.5441L141.103 25.2635H136.82V13.6467H141.274V19.5912C141.32 19.4927 141.38 19.3758 141.456 19.2397C141.531 19.1036 141.611 18.9675 141.694 18.8313C141.778 18.6952 141.857 18.5663 141.933 18.4454C142.009 18.3245 142.073 18.2268 142.126 18.1507L145.204 13.6467H149.759V25.2635H145.34Z" fill="#4E6A58"/>
<path d="M159.618 25.2635V20.737H156.914V25.2635H152.076V13.6467H156.914V17.5942H159.618V13.6467H164.457V25.2635H159.618Z" fill="#4E6A58"/>
<path d="M175.293 25.2635V18.9675C175.172 19.2021 175.029 19.4591 174.866 19.7385C174.703 20.0188 174.536 20.287 174.361 20.5441L171.056 25.2635H166.774V13.6467H171.226V19.5912C171.272 19.4927 171.332 19.3758 171.408 19.2397C171.485 19.1036 171.563 18.9675 171.647 18.8313C171.731 18.6952 171.81 18.5663 171.885 18.4454C171.962 18.3245 172.026 18.2268 172.079 18.1507L175.156 13.6467H179.712V25.2635H175.293Z" fill="#4E6A58"/>
<path d="M189.502 25.2631L186.913 19.2962H186.867V25.2631H182.029V13.6584H186.867V19.1033H186.913L189.265 13.6472H194.717L191.57 18.9679L194.899 25.2639H189.502V25.2631Z" fill="#4E6A58"/>
<path d="M202.271 25.2631V23.4936H202.225C201.861 24.1365 201.386 24.6394 200.799 25.0029C200.213 25.3656 199.506 25.5474 198.681 25.5474C198.09 25.5474 197.574 25.4545 197.136 25.2687C196.696 25.0846 196.331 24.8284 196.04 24.5033C195.749 24.1782 195.53 23.7978 195.387 23.3631C195.243 22.9283 195.171 22.4615 195.171 21.9618C195.171 21.5382 195.227 21.1147 195.341 20.6919C195.454 20.2683 195.665 19.8744 195.971 19.5116C196.278 19.1481 196.705 18.8326 197.255 18.5644C197.804 18.2962 198.514 18.1048 199.384 17.9919L202.271 17.6171C202.271 17.4202 202.223 17.2432 202.128 17.0839C202.033 16.9245 201.903 16.7884 201.737 16.6755C201.569 16.5618 201.37 16.4753 201.14 16.4145C200.909 16.3536 200.657 16.3232 200.385 16.3232C199.999 16.3232 199.614 16.356 199.232 16.4201C198.85 16.4849 198.483 16.5698 198.131 16.6755C197.779 16.7812 197.446 16.9005 197.131 17.0326C196.817 17.1655 196.527 17.2993 196.262 17.4354V14.2934C196.542 14.1725 196.878 14.0548 197.267 13.9419C197.657 13.829 198.07 13.7305 198.506 13.6472C198.941 13.5639 199.378 13.4959 199.818 13.443C200.257 13.3902 200.67 13.3638 201.056 13.3638C202.116 13.3638 203.007 13.4791 203.725 13.7097C204.444 13.9411 205.024 14.2846 205.463 14.7426C205.902 15.2006 206.216 15.7715 206.406 16.4553C206.595 17.1399 206.69 17.9398 206.69 18.855V25.2647H202.271V25.2631ZM200.634 20.1698C200.263 20.2307 199.966 20.3532 199.744 20.5381C199.52 20.7231 199.409 20.9825 199.409 21.3148C199.409 21.4437 199.429 21.5719 199.47 21.7008C199.512 21.8297 199.579 21.9466 199.669 22.0523C199.76 22.1588 199.88 22.2437 200.027 22.3077C200.174 22.3726 200.354 22.4046 200.566 22.4046C200.808 22.4046 201.034 22.3574 201.242 22.2629C201.451 22.1684 201.63 22.0323 201.782 21.8545C201.933 21.6768 202.053 21.463 202.139 21.2131C202.227 20.9633 202.271 20.6879 202.271 20.3852V19.9432L200.634 20.1698Z" fill="#4E6A58"/>
<path d="M60.8089 35.3659V31.7603L60.6991 32.0534C60.6686 32.1359 60.6373 32.2191 60.6029 32.3056C60.5692 32.3929 60.5395 32.4674 60.5155 32.529L59.385 35.3651H59.0796L57.8602 32.529C57.8361 32.473 57.8065 32.4001 57.7728 32.312C57.7391 32.2239 57.7071 32.1383 57.6766 32.0574C57.6413 31.9629 57.6044 31.8636 57.5667 31.7603V35.3659H57.2076V31.1942H57.6565L58.9289 34.0824C58.9593 34.1448 58.9906 34.2209 59.0251 34.3106C59.0587 34.3995 59.0916 34.486 59.1213 34.5668C59.1566 34.6621 59.1918 34.7574 59.2271 34.8559C59.2648 34.7606 59.3033 34.6669 59.3418 34.574C59.3746 34.4956 59.4075 34.4115 59.442 34.3234C59.4756 34.2353 59.5053 34.1593 59.5294 34.0968L60.7159 31.1926H61.1769V35.3643H60.8089V35.3659Z" fill="#4E6A58"/>
<path d="M65.3499 35.3658V33.3736H62.8862V35.3658H62.511V31.1941H62.8862V33.0317H65.3499V31.1941H65.7251V35.3658H65.3499Z" fill="#4E6A58"/>
<path d="M70.7141 33.289C70.7141 33.5796 70.6748 33.8567 70.5962 34.1193C70.5168 34.3836 70.3958 34.615 70.233 34.8143C70.0695 35.0137 69.8642 35.1731 69.6165 35.2908C69.3688 35.4093 69.077 35.4693 68.7394 35.4693C68.4075 35.4693 68.1181 35.4101 67.8704 35.2932C67.6226 35.1763 67.4174 35.0201 67.2522 34.8232C67.0879 34.6262 66.9652 34.3964 66.8835 34.1345C66.8017 33.8727 66.7616 33.5957 66.7616 33.305C66.7616 32.9143 66.8185 32.5796 66.9324 32.2993C67.047 32.0191 67.1977 31.7893 67.3853 31.6107C67.5729 31.4321 67.7886 31.3 68.0323 31.2175C68.2752 31.1343 68.5262 31.0942 68.7843 31.0942C69.0786 31.0942 69.3439 31.1431 69.582 31.2408C69.8193 31.3385 70.0222 31.481 70.1897 31.6667C70.3573 31.8525 70.4864 32.0823 70.577 32.3546C70.6676 32.6268 70.7141 32.9383 70.7141 33.289ZM70.322 33.281C70.322 32.9711 70.2851 32.6997 70.2122 32.4675C70.1384 32.2353 70.0342 32.0439 69.8995 31.8901C69.7648 31.7388 69.6021 31.6243 69.4105 31.5482C69.2189 31.4722 69.0048 31.4337 68.7683 31.4337C68.523 31.4337 68.3017 31.4762 68.1029 31.5595C67.904 31.6435 67.7349 31.766 67.593 31.927C67.4511 32.0863 67.342 32.2833 67.2667 32.5147C67.1905 32.7477 67.152 33.0127 67.152 33.3114C67.152 33.578 67.1881 33.8223 67.2603 34.0449C67.3324 34.2675 67.4366 34.4588 67.5721 34.6198C67.7084 34.7791 67.8752 34.904 68.074 34.9921C68.2728 35.0802 68.4981 35.125 68.7515 35.125C69.0208 35.125 69.2533 35.0794 69.4514 34.9881C69.6494 34.8968 69.8121 34.7703 69.9412 34.6054C70.0703 34.4404 70.1657 34.2458 70.2282 34.0208C70.2908 33.7958 70.322 33.5492 70.322 33.281Z" fill="#4E6A58"/>
<path d="M72.1251 31.5368V35.3658H71.7499V31.1941H73.7894V31.5368H72.1251Z" fill="#4E6A58"/>
<path d="M78.0073 33.289C78.0073 33.5796 77.968 33.8567 77.8894 34.1193C77.8101 34.3836 77.689 34.615 77.5263 34.8143C77.3627 35.0137 77.1575 35.1731 76.9097 35.2908C76.662 35.4093 76.3702 35.4693 76.0326 35.4693C75.7007 35.4693 75.4113 35.4101 75.1636 35.2932C74.9159 35.1763 74.7106 35.0201 74.5455 34.8232C74.3811 34.6262 74.2584 34.3964 74.1767 34.1345C74.0949 33.8727 74.0548 33.5957 74.0548 33.305C74.0548 32.9143 74.1117 32.5796 74.2256 32.2993C74.3402 32.0191 74.4909 31.7893 74.6785 31.6107C74.8661 31.4321 75.0818 31.3 75.3255 31.2175C75.5685 31.1343 75.8194 31.0942 76.0775 31.0942C76.3718 31.0942 76.6371 31.1431 76.8753 31.2408C77.1126 31.3385 77.3154 31.481 77.483 31.6667C77.6505 31.8525 77.7796 32.0823 77.8702 32.3546C77.9608 32.6268 78.0073 32.9383 78.0073 33.289ZM77.616 33.281C77.616 32.9711 77.5792 32.6997 77.5062 32.4675C77.4325 32.2353 77.3282 32.0439 77.1935 31.8901C77.0589 31.7388 76.8961 31.6243 76.7045 31.5482C76.5129 31.4722 76.2988 31.4337 76.0623 31.4337C75.817 31.4337 75.5957 31.4762 75.3969 31.5595C75.1981 31.6435 75.0289 31.766 74.887 31.927C74.7451 32.0863 74.6361 32.2833 74.5607 32.5147C74.4845 32.7477 74.446 33.0127 74.446 33.3114C74.446 33.578 74.4821 33.8223 74.5543 34.0449C74.6264 34.2675 74.7307 34.4588 74.8662 34.6198C75.0024 34.7791 75.1692 34.904 75.368 34.9921C75.5669 35.0802 75.7921 35.125 76.0455 35.125C76.3149 35.125 76.5474 35.0794 76.7454 34.9881C76.9434 34.8968 77.1062 34.7703 77.2352 34.6054C77.3643 34.4404 77.4597 34.2458 77.5222 34.0208C77.5848 33.7958 77.616 33.5492 77.616 33.281Z" fill="#4E6A58"/>
<path d="M81.8828 35.3658V31.5368H79.4191V35.3658H79.0439V31.1941H82.258V35.3658H81.8828Z" fill="#4E6A58"/>
<path d="M87.2384 33.1296C87.2384 33.4724 87.1951 33.7862 87.1077 34.0737C87.0203 34.3611 86.8968 34.6062 86.7365 34.8127C86.5761 35.0193 86.3805 35.1803 86.1488 35.2964C85.9179 35.4125 85.6598 35.4701 85.3736 35.4701C85.1835 35.4701 85.0136 35.4437 84.8637 35.3917C84.7137 35.3396 84.5823 35.274 84.4676 35.1923C84.353 35.1106 84.2568 35.0193 84.1782 34.9192C84.0988 34.8191 84.0355 34.7207 83.9866 34.6254H83.9705V37.2861H83.5953V31.1959H83.9705V32.0551H83.9866C84.0547 31.9134 84.1405 31.7837 84.2439 31.6667C84.3474 31.5482 84.4652 31.4474 84.5983 31.3633C84.7322 31.2792 84.8789 31.2127 85.0392 31.1647C85.1996 31.1175 85.3695 31.0942 85.5491 31.0942C85.8209 31.0942 86.0622 31.1423 86.2715 31.2384C86.4807 31.3353 86.6563 31.4722 86.7998 31.6499C86.9425 31.8285 87.0516 32.0423 87.1261 32.2929C87.2015 32.5403 87.2384 32.8198 87.2384 33.1296ZM86.8471 33.1377C86.8471 32.8662 86.8134 32.6252 86.7469 32.4146C86.6804 32.204 86.5874 32.0271 86.4695 31.8813C86.3517 31.7356 86.2097 31.6251 86.0454 31.549C85.881 31.473 85.6991 31.4345 85.501 31.4345C85.3054 31.4345 85.1322 31.4602 84.9815 31.5122C84.8308 31.5635 84.6985 31.6323 84.5855 31.7188C84.4724 31.8029 84.377 31.903 84.2976 32.0159C84.2191 32.1288 84.1557 32.2449 84.1084 32.3666C84.0603 32.4867 84.0259 32.6092 84.0042 32.7309C83.9826 32.8526 83.9713 32.9671 83.9713 33.0736V33.5989C83.9713 33.7782 84.0002 33.9584 84.0587 34.1401C84.1173 34.3235 84.2063 34.4869 84.3257 34.631C84.4452 34.7767 84.5951 34.8952 84.7747 34.9873C84.9543 35.0794 85.1651 35.1266 85.4072 35.1266C85.6245 35.1266 85.8217 35.0778 85.9989 34.9809C86.1753 34.8856 86.3268 34.7495 86.4535 34.5741C86.5801 34.3988 86.6772 34.1898 86.7453 33.944C86.8134 33.6998 86.8471 33.4307 86.8471 33.1377Z" fill="#4E6A58"/>
<path d="M91.9261 33.289C91.9261 33.5796 91.8868 33.8567 91.8082 34.1193C91.7289 34.3836 91.6078 34.615 91.4451 34.8143C91.2815 35.0137 91.0763 35.1731 90.8285 35.2908C90.5808 35.4093 90.289 35.4693 89.9515 35.4693C89.6196 35.4693 89.3301 35.4101 89.0824 35.2932C88.8347 35.1763 88.6294 35.0201 88.4643 34.8232C88.2999 34.6262 88.1773 34.3964 88.0955 34.1345C88.0137 33.8727 87.9736 33.5957 87.9736 33.305C87.9736 32.9143 88.0306 32.5796 88.1444 32.2993C88.259 32.0191 88.4098 31.7893 88.5974 31.6107C88.785 31.4321 89.0006 31.3 89.2444 31.2175C89.4873 31.1343 89.7382 31.0942 89.9964 31.0942C90.2906 31.0942 90.556 31.1431 90.7941 31.2408C91.0314 31.3385 91.2342 31.481 91.4018 31.6667C91.5693 31.8525 91.6984 32.0823 91.789 32.3546C91.8796 32.6268 91.9261 32.9383 91.9261 33.289ZM91.5341 33.281C91.5341 32.9711 91.4972 32.6997 91.4242 32.4675C91.3505 32.2353 91.2462 32.0439 91.1116 31.8901C90.9769 31.7388 90.8141 31.6243 90.6225 31.5482C90.4309 31.4722 90.2168 31.4337 89.9803 31.4337C89.735 31.4337 89.5137 31.4762 89.3149 31.5595C89.1161 31.6435 88.9469 31.766 88.805 31.927C88.6631 32.0863 88.5541 32.2833 88.4787 32.5147C88.4025 32.7477 88.3641 33.0127 88.3641 33.3114C88.3641 33.578 88.4001 33.8223 88.4723 34.0449C88.5445 34.2675 88.6487 34.4588 88.7842 34.6198C88.9205 34.7791 89.0872 34.904 89.286 34.9921C89.4849 35.0802 89.7102 35.125 89.9635 35.125C90.2329 35.125 90.4654 35.0794 90.6634 34.9881C90.8614 34.8968 91.0242 34.7703 91.1532 34.6054C91.2823 34.4404 91.3777 34.2458 91.4403 34.0208C91.5028 33.7958 91.5341 33.5492 91.5341 33.281Z" fill="#4E6A58"/>
<path d="M97.3305 33.3039C97.3305 33.6057 97.28 33.8828 97.1773 34.1358C97.0755 34.3872 96.9344 34.605 96.7556 34.7868C96.576 34.9694 96.3644 35.1111 96.1191 35.2128C95.8745 35.3145 95.6092 35.3649 95.3238 35.3649H95.177V37.3242H94.7978V35.3649H94.6511C94.3657 35.3649 94.1003 35.3145 93.8558 35.2128C93.6113 35.1111 93.3988 34.9686 93.2192 34.7868C93.0397 34.6042 92.8994 34.3872 92.7975 34.1358C92.6957 33.8828 92.6444 33.6057 92.6444 33.3039C92.6444 32.9844 92.6925 32.6929 92.7871 32.4327C92.8825 32.1717 93.0172 31.9491 93.1904 31.7665C93.3644 31.5831 93.5744 31.4422 93.8189 31.3429C94.0635 31.2436 94.3344 31.194 94.6311 31.194H94.7978V29.426H95.177V31.1948H95.3438C95.6436 31.1948 95.9146 31.2444 96.1576 31.3437C96.4013 31.443 96.6097 31.5847 96.7837 31.7673C96.9577 31.9507 97.0924 32.1725 97.187 32.4335C97.2832 32.6937 97.3305 32.9844 97.3305 33.3039ZM94.7978 31.5367H94.6391C94.4106 31.5367 94.1981 31.5727 94.0025 31.6464C93.8069 31.7201 93.6377 31.8306 93.495 31.9779C93.3523 32.1268 93.2401 32.3118 93.1583 32.5344C93.0765 32.757 93.0364 33.0164 93.0364 33.3127C93.0364 33.5817 93.0773 33.8219 93.1583 34.0341C93.2401 34.2455 93.3539 34.4249 93.5006 34.5714C93.6482 34.7179 93.8213 34.83 94.0226 34.9077C94.2238 34.9854 94.4443 35.0246 94.6832 35.0246H94.7978V31.5367ZM96.9392 33.3127C96.9392 33.0164 96.8983 32.7578 96.8166 32.5344C96.7348 32.3118 96.6217 32.126 96.4782 31.9779C96.3339 31.8306 96.1632 31.7201 95.9667 31.6464C95.7695 31.5727 95.5555 31.5367 95.3238 31.5367H95.177V35.0238H95.2917C95.5306 35.0238 95.7511 34.9846 95.9523 34.9069C96.1535 34.8292 96.3275 34.7171 96.4742 34.5706C96.6209 34.4241 96.7356 34.2447 96.8166 34.0333C96.8983 33.8219 96.9392 33.5817 96.9392 33.3127Z" fill="#4E6A58"/>
<path d="M101.239 35.3658V31.8787C101.217 31.9091 101.195 31.9388 101.175 31.9684C101.155 31.998 101.139 32.0212 101.125 32.0372L98.6163 35.3658H98.351V31.1941H98.7262V34.6484C98.7422 34.6187 98.759 34.5907 98.7751 34.5627C98.7911 34.5363 98.8087 34.5114 98.828 34.4898L101.317 31.1941H101.618V35.3658H101.239Z" fill="#4E6A58"/>
<path d="M105.424 35.3657V31.5367H104.204C104.158 32.1557 104.098 32.7066 104.022 33.1886C103.947 33.6706 103.85 34.0774 103.729 34.4081C103.608 34.7396 103.459 34.9918 103.282 35.164C103.105 35.3369 102.892 35.4226 102.642 35.4226C102.601 35.4226 102.559 35.4194 102.518 35.4122C102.476 35.405 102.439 35.397 102.409 35.3898V35.0559C102.431 35.0647 102.466 35.0719 102.515 35.0783C102.564 35.0847 102.603 35.0879 102.633 35.0879C102.815 35.0879 102.975 35.0038 103.11 34.8317C103.246 34.6611 103.363 34.4105 103.46 34.0806C103.559 33.7507 103.642 33.3439 103.708 32.8603C103.775 32.3767 103.828 31.8218 103.869 31.1948H105.798V35.3665H105.424V35.3657Z" fill="#4E6A58"/>
<path d="M110.001 34.1159C110.001 34.3273 109.964 34.5114 109.891 34.6692C109.817 34.8269 109.721 34.9566 109.603 35.0599C109.485 35.1632 109.351 35.2401 109.199 35.2897C109.048 35.3402 108.895 35.3658 108.741 35.3658H107.137V31.1941H107.513V32.9052H108.708C108.91 32.9052 109.09 32.9324 109.249 32.9869C109.408 33.0413 109.542 33.1214 109.654 33.2255C109.767 33.3304 109.852 33.4569 109.912 33.6066C109.971 33.7564 110.001 33.9253 110.001 34.1159ZM109.61 34.1159C109.61 33.9934 109.59 33.8797 109.55 33.7732C109.511 33.6667 109.45 33.5754 109.368 33.4977C109.286 33.4201 109.185 33.3592 109.063 33.3144C108.941 33.2687 108.796 33.2471 108.631 33.2471H107.512V35.0239H108.638C108.815 35.0239 108.963 34.9999 109.087 34.9518C109.21 34.9046 109.309 34.8389 109.387 34.7565C109.464 34.674 109.521 34.5771 109.556 34.4674C109.591 34.3585 109.61 34.2408 109.61 34.1159Z" fill="#4E6A58"/>
<path d="M113.843 35.3658V33.3736H111.38V35.3658H111.005V31.1941H111.38V33.0317H113.843V31.1941H114.219V35.3658H113.843Z" fill="#4E6A58"/>
<path d="M118.421 34.1159C118.421 34.3273 118.383 34.5114 118.31 34.6692C118.236 34.8269 118.14 34.9566 118.023 35.0599C117.904 35.1632 117.77 35.2401 117.619 35.2897C117.468 35.3402 117.315 35.3658 117.16 35.3658H115.557V31.1941H115.933V32.9052H117.127C117.329 32.9052 117.509 32.9324 117.668 32.9869C117.827 33.0413 117.962 33.1214 118.073 33.2255C118.186 33.3304 118.271 33.4569 118.331 33.6066C118.391 33.7564 118.421 33.9253 118.421 34.1159ZM118.029 34.1159C118.029 33.9934 118.009 33.8797 117.97 33.7732C117.931 33.6667 117.87 33.5754 117.788 33.4977C117.706 33.4201 117.604 33.3592 117.482 33.3144C117.36 33.2687 117.215 33.2471 117.05 33.2471H115.932V35.0239H117.058C117.234 35.0239 117.383 34.9999 117.506 34.9518C117.628 34.9046 117.728 34.8389 117.806 34.7565C117.883 34.6732 117.94 34.5771 117.976 34.4674C118.01 34.3585 118.029 34.2408 118.029 34.1159ZM119.334 35.3658V31.1941H119.71V35.3658H119.334Z" fill="#4E6A58"/>
<path d="M123.935 35.366V31.8789C123.914 31.9093 123.892 31.9389 123.872 31.9685C123.852 31.9982 123.835 32.0214 123.822 32.0374L121.313 35.366H121.048V31.1943H121.423V34.6485C121.44 34.6189 121.456 34.5909 121.473 34.5628C121.489 34.5364 121.506 34.5116 121.525 34.49L124.013 31.1943H124.315V35.366H123.935ZM122.773 30.2286C122.933 30.2286 123.076 30.2062 123.201 30.1589C123.326 30.1133 123.434 30.0508 123.525 29.9716C123.616 29.8931 123.688 29.8026 123.741 29.6993C123.795 29.596 123.827 29.4879 123.842 29.3774H124.241C124.214 29.5248 124.162 29.6673 124.089 29.8074C124.014 29.9467 123.915 30.0717 123.794 30.1798C123.671 30.2895 123.524 30.3751 123.352 30.4408C123.181 30.5056 122.987 30.5385 122.769 30.5385C122.551 30.5385 122.36 30.5056 122.197 30.4408C122.035 30.3751 121.897 30.2895 121.785 30.1798C121.674 30.0717 121.585 29.9467 121.518 29.8074C121.452 29.6673 121.404 29.524 121.377 29.3774H121.777C121.791 29.4887 121.821 29.596 121.866 29.6993C121.912 29.8026 121.977 29.8931 122.058 29.9716C122.14 30.0516 122.239 30.1141 122.356 30.1589C122.473 30.2062 122.608 30.2286 122.763 30.2286H122.773Z" fill="#4E6A58"/>
<path d="M131.539 35.3659V31.7603L131.428 32.0534C131.398 32.1359 131.367 32.2191 131.332 32.3056C131.299 32.3929 131.27 32.4674 131.245 32.529L130.115 35.3651H129.809L128.589 32.529C128.566 32.473 128.537 32.4001 128.502 32.312C128.468 32.2239 128.436 32.1383 128.407 32.0574C128.371 31.9629 128.335 31.8636 128.297 31.7603V35.3659H127.938V31.1942H128.387L129.66 34.0824C129.689 34.1448 129.721 34.2209 129.755 34.3106C129.79 34.3995 129.821 34.486 129.851 34.5668C129.887 34.6621 129.922 34.7574 129.957 34.8559C129.995 34.7606 130.033 34.6669 130.072 34.574C130.105 34.4956 130.138 34.4115 130.172 34.3234C130.206 34.2353 130.235 34.1593 130.259 34.0968L131.446 31.1926H131.906V35.3643H131.539V35.3659Z" fill="#4E6A58"/>
<path d="M133.33 33.2963C133.33 33.5813 133.364 33.8375 133.433 34.0641C133.5 34.2907 133.598 34.4829 133.728 34.6415C133.857 34.7984 134.013 34.9193 134.197 35.001C134.38 35.0843 134.588 35.1259 134.819 35.1259C135.09 35.1259 135.337 35.0786 135.555 34.985C135.774 34.8913 135.985 34.7664 136.19 34.6078V35.0066C136.105 35.0666 136.012 35.1243 135.909 35.1803C135.807 35.2356 135.696 35.2852 135.577 35.3277C135.458 35.3701 135.328 35.4029 135.19 35.4294C135.051 35.4542 134.901 35.4686 134.741 35.4686C134.509 35.4686 134.286 35.4262 134.068 35.3437C133.849 35.2612 133.657 35.1307 133.49 34.9529C133.324 34.7752 133.189 34.5462 133.089 34.2667C132.988 33.9865 132.938 33.6502 132.938 33.2562C132.938 32.9688 132.981 32.6933 133.066 32.4315C133.151 32.1697 133.275 31.9399 133.435 31.7413C133.596 31.5427 133.792 31.3858 134.023 31.2689C134.254 31.152 134.516 31.0935 134.809 31.0935C135.106 31.0935 135.357 31.1496 135.562 31.2625C135.766 31.3754 135.933 31.5251 136.06 31.7133C136.186 31.8998 136.277 32.1168 136.335 32.3626C136.392 32.6093 136.42 32.8647 136.42 33.1305V33.2979H133.33V33.2963ZM135.927 32.3002C135.865 32.112 135.781 31.9527 135.676 31.823C135.57 31.6948 135.442 31.598 135.294 31.5323C135.145 31.4674 134.979 31.4346 134.795 31.4346C134.574 31.4346 134.379 31.4746 134.21 31.5523C134.042 31.6316 133.897 31.7381 133.776 31.8742C133.655 32.0103 133.559 32.1713 133.489 32.3578C133.418 32.5428 133.371 32.7422 133.346 32.9536H136.03C136.022 32.7069 135.988 32.4899 135.927 32.3002Z" fill="#4E6A58"/>
<path d="M140.648 36.466V35.3658H137.315V36.466H136.973V35.0239H137.339C137.524 34.7597 137.687 34.4762 137.824 34.1719C137.964 33.8685 138.08 33.5514 138.176 33.2223C138.271 32.894 138.345 32.5577 138.396 32.2142C138.447 31.8707 138.478 31.5304 138.485 31.1941H140.345V35.0239H140.99V36.466H140.648ZM139.971 31.5368H138.828C138.807 31.8267 138.77 32.1229 138.718 32.424C138.667 32.7259 138.597 33.0253 138.508 33.324C138.419 33.6234 138.313 33.9157 138.189 34.2032C138.066 34.489 137.923 34.7629 137.76 35.0239H139.971V31.5368Z" fill="#4E6A58"/>
<path d="M144.731 35.3658V31.8787C144.71 31.9091 144.687 31.9388 144.667 31.9684C144.647 31.998 144.63 32.0212 144.617 32.0372L142.107 35.3658H141.842V31.1941H142.218V34.6484C142.234 34.6187 142.251 34.5907 142.267 34.5627C142.284 34.5363 142.301 34.5114 142.32 34.4898L144.808 31.1941H145.11V35.3658H144.731Z" fill="#4E6A58"/>
<path d="M149.961 36.8855V35.3665H146.445V31.1948H146.821V35.0246H149.284V31.1948H149.66V35.0246H150.304V36.8855H149.961Z" fill="#4E6A58"/>
<path d="M154.044 35.3658V31.8787C154.022 31.9091 154.001 31.9388 153.981 31.9684C153.961 31.998 153.944 32.0212 153.93 32.0372L151.422 35.3658H151.157V31.1941H151.532V34.6484C151.549 34.6187 151.564 34.5907 151.582 34.5627C151.598 34.5363 151.615 34.5114 151.634 34.4898L154.123 31.1941H154.424V35.3658H154.044Z" fill="#4E6A58"/>
<path d="M158.596 35.3658V33.3736H156.133V35.3658H155.757V31.1941H156.133V33.0317H158.596V31.1941H158.971V35.3658H158.596Z" fill="#4E6A58"/>
<path d="M162.578 35.3765C162.39 35.4374 162.165 35.4686 161.904 35.4686C161.616 35.4686 161.355 35.4165 161.121 35.3141C160.887 35.2108 160.688 35.065 160.524 34.8793C160.359 34.6935 160.232 34.4709 160.142 34.2115C160.052 33.952 160.007 33.6654 160.007 33.3539C160.007 33.012 160.06 32.7029 160.166 32.4251C160.272 32.148 160.418 31.9102 160.604 31.7125C160.79 31.5139 161.013 31.3609 161.267 31.2544C161.522 31.1464 161.801 31.0935 162.104 31.0935C162.291 31.0935 162.464 31.1119 162.622 31.152C162.779 31.192 162.915 31.2368 163.029 31.2889V31.7125C162.915 31.6412 162.777 31.5779 162.615 31.5203C162.453 31.4642 162.264 31.4354 162.046 31.4354C161.796 31.4354 161.569 31.4835 161.365 31.5787C161.16 31.6732 160.987 31.8053 160.844 31.9735C160.701 32.1416 160.592 32.3418 160.514 32.5724C160.437 32.803 160.398 33.056 160.398 33.3299C160.398 33.6101 160.435 33.8608 160.512 34.0834C160.588 34.3052 160.694 34.4949 160.829 34.6495C160.964 34.804 161.123 34.9225 161.31 35.0042C161.496 35.0859 161.7 35.1259 161.921 35.1259C162.165 35.1259 162.379 35.0915 162.565 35.0242C162.75 34.9553 162.9 34.8785 163.014 34.7912V35.1819C162.911 35.2516 162.766 35.3157 162.578 35.3765Z" fill="#4E6A58"/>
<path d="M166.372 35.3658L164.41 33.3208H164.393V35.3658H164.018V31.1941H164.393V33.1863H164.41L166.347 31.1941H166.832L164.809 33.2311L166.898 35.3658H166.372Z" fill="#4E6A58"/>
<path d="M170.54 35.3658V31.8787C170.519 31.9091 170.498 31.9388 170.478 31.9684C170.458 31.998 170.44 32.0212 170.426 32.0372L167.918 35.3658H167.653V31.1941H168.028V34.6484C168.045 34.6187 168.06 34.5907 168.078 34.5627C168.094 34.5363 168.111 34.5114 168.13 34.4898L170.619 31.1941H170.92V35.3658H170.54Z" fill="#4E6A58"/>
<path d="M175.142 35.366V31.8789C175.121 31.9093 175.098 31.9389 175.078 31.9685C175.058 31.9982 175.041 32.0214 175.028 32.0374L172.518 35.366H172.253V31.1943H172.629V34.6485C172.645 34.6189 172.662 34.5909 172.678 34.5628C172.695 34.5364 172.712 34.5116 172.731 34.49L175.219 31.1943H175.521V35.366H175.142ZM173.979 30.2286C174.14 30.2286 174.283 30.2062 174.408 30.1589C174.532 30.1133 174.641 30.0508 174.732 29.9716C174.822 29.8931 174.894 29.8026 174.948 29.6993C175.002 29.596 175.034 29.4879 175.048 29.3774H175.448C175.421 29.5248 175.369 29.6673 175.295 29.8074C175.22 29.9467 175.121 30.0717 174.999 30.1798C174.877 30.2895 174.73 30.3751 174.559 30.4408C174.388 30.5056 174.193 30.5385 173.975 30.5385C173.757 30.5385 173.567 30.5056 173.404 30.4408C173.241 30.3751 173.103 30.2895 172.992 30.1798C172.88 30.0717 172.792 29.9467 172.724 29.8074C172.658 29.6673 172.61 29.524 172.583 29.3774H172.983C172.997 29.4887 173.026 29.596 173.073 29.6993C173.119 29.8026 173.183 29.8931 173.264 29.9716C173.346 30.0516 173.446 30.1141 173.562 30.1589C173.679 30.2062 173.815 30.2286 173.97 30.2286H173.979Z" fill="#4E6A58"/>
<path d="M180.437 33.3216L181.8 35.3666H181.322L180.437 33.9485C180.396 33.8861 180.357 33.8252 180.32 33.7668C180.284 33.7083 180.25 33.6539 180.22 33.6058H180.204C180.187 33.6331 180.172 33.6579 180.157 33.6811C180.141 33.7043 180.126 33.7299 180.11 33.7548C180.093 33.7812 180.075 33.8092 180.057 33.8404C180.038 33.8717 180.014 33.9077 179.988 33.9485L179.066 35.3666H178.609L180.004 33.3296L178.634 31.1949H179.074L180.004 32.6898C180.033 32.7363 180.069 32.7915 180.11 32.8572C180.151 32.922 180.188 32.9853 180.22 33.0477H180.237C180.272 32.9885 180.308 32.9308 180.343 32.8724C180.378 32.8163 180.413 32.7595 180.445 32.705L181.416 31.1941H181.857L180.437 33.3216Z" fill="#4E6A58"/>
<path d="M186.2 33.289C186.2 33.5796 186.161 33.8567 186.083 34.1193C186.003 34.3836 185.883 34.615 185.72 34.8143C185.557 35.0137 185.351 35.1731 185.104 35.2908C184.856 35.4093 184.564 35.4693 184.227 35.4693C183.895 35.4693 183.605 35.4101 183.357 35.2932C183.11 35.1763 182.904 35.0201 182.739 34.8232C182.574 34.6262 182.452 34.3964 182.37 34.1345C182.288 33.8727 182.248 33.5957 182.248 33.305C182.248 32.9143 182.305 32.5796 182.419 32.2993C182.533 32.0191 182.685 31.7893 182.872 31.6107C183.058 31.4321 183.275 31.3 183.519 31.2175C183.762 31.1351 184.012 31.0942 184.271 31.0942C184.565 31.0942 184.83 31.1431 185.068 31.2408C185.306 31.3385 185.509 31.481 185.676 31.6667C185.843 31.8525 185.973 32.0823 186.063 32.3546C186.154 32.6268 186.2 32.9383 186.2 33.289ZM185.809 33.281C185.809 32.9711 185.773 32.6997 185.699 32.4675C185.626 32.2353 185.521 32.0439 185.387 31.8901C185.252 31.7388 185.089 31.6243 184.898 31.5482C184.706 31.4722 184.492 31.4337 184.255 31.4337C184.009 31.4337 183.789 31.4762 183.59 31.5595C183.391 31.6435 183.222 31.766 183.08 31.927C182.938 32.0863 182.829 32.2833 182.754 32.5147C182.677 32.7477 182.639 33.0127 182.639 33.3114C182.639 33.578 182.675 33.8223 182.747 34.0449C182.819 34.2675 182.924 34.4588 183.059 34.6198C183.195 34.7791 183.363 34.904 183.562 34.9921C183.76 35.0802 183.986 35.125 184.239 35.125C184.508 35.125 184.741 35.0794 184.938 34.9881C185.136 34.8968 185.298 34.7703 185.428 34.6054C185.557 34.4404 185.652 34.2458 185.715 34.0208C185.777 33.7958 185.809 33.5492 185.809 33.281Z" fill="#4E6A58"/>
<path d="M189.709 35.3657V31.5367H188.49C188.443 32.1557 188.383 32.7066 188.308 33.1886C188.233 33.6706 188.135 34.0774 188.014 34.4081C187.894 34.7396 187.744 34.9918 187.567 35.164C187.39 35.3361 187.178 35.4226 186.927 35.4226C186.886 35.4226 186.844 35.4194 186.802 35.4122C186.761 35.405 186.724 35.397 186.694 35.3898V35.0559C186.716 35.0647 186.751 35.0719 186.8 35.0783C186.85 35.0847 186.889 35.0879 186.919 35.0879C187.101 35.0879 187.26 35.0038 187.396 34.8317C187.532 34.6611 187.648 34.4105 187.747 34.0806C187.845 33.7507 187.928 33.3439 187.994 32.8603C188.061 32.3767 188.114 31.8218 188.155 31.1948H190.084V35.3665H189.709V35.3657Z" fill="#4E6A58"/>
<path d="M194.612 36.466V35.3658H191.279V36.466H190.937V35.0239H191.303C191.488 34.7597 191.65 34.4762 191.788 34.1719C191.928 33.8685 192.044 33.5514 192.139 33.2223C192.235 32.894 192.309 32.5577 192.36 32.2142C192.411 31.8707 192.442 31.5304 192.449 31.1941H194.309V35.0239H194.954V36.466H194.612ZM193.934 31.5368H192.792C192.77 31.8267 192.734 32.1229 192.682 32.424C192.631 32.7259 192.56 33.0253 192.471 33.324C192.383 33.6234 192.277 33.9157 192.153 34.2032C192.03 34.489 191.887 34.7629 191.723 35.0239H193.934V31.5368Z" fill="#4E6A58"/>
<path d="M198.696 35.3658V31.8787C198.674 31.9091 198.652 31.9388 198.632 31.9684C198.612 31.998 198.595 32.0212 198.581 32.0372L196.072 35.3658H195.807V31.1941H196.183V34.6484C196.199 34.6187 196.215 34.5907 196.231 34.5627C196.248 34.5363 196.266 34.5114 196.284 34.4898L198.773 31.1941H199.075V35.3658H198.696Z" fill="#4E6A58"/>
<path d="M203.248 35.3658V33.3736H200.784V35.3658H200.409V31.1941H200.784V33.0317H203.248V31.1941H203.623V35.3658H203.248Z" fill="#4E6A58"/>
<path d="M205.336 31.5368V35.3658H204.96V31.1941H207V31.5368H205.336Z" fill="#4E6A58"/>
<g clip-path="url(#clip0_109_30)">
<path d="M3.45539 44.7102C1.92892 44.7102 0.683044 43.4683 0.683044 41.9445V3.4503C0.683044 1.92494 1.92812 0.683838 3.45539 0.683838H41.9957C43.5245 0.683838 44.7664 1.92494 44.7664 3.4503V41.9445C44.7664 43.4683 43.5253 44.7102 41.9957 44.7102H3.45539Z" fill="white"/>
<path d="M41.9957 1.36922C43.1477 1.36922 44.0793 2.30285 44.0793 3.45027V41.9445C44.0793 43.0943 43.1477 44.0239 41.9957 44.0239H3.45541C2.30414 44.0239 1.37335 43.0943 1.37335 41.9445V3.45027C1.37335 2.30285 2.30414 1.36922 3.45541 1.36922H41.9957ZM41.9957 0H3.45541C1.54892 0 0 1.54617 0 3.45027V41.9445C0 43.8486 1.54892 45.3947 3.45541 45.3947H41.9957C43.9014 45.3947 45.4519 43.8486 45.4519 41.9445V3.45027C45.4519 1.54617 43.9014 0 41.9957 0Z" fill="#4E6A58"/>
<path d="M40.9823 2.49097H4.46637C3.37844 2.49097 2.49414 3.37495 2.49414 4.46072V40.9331C2.49414 42.0197 3.37844 42.9021 4.46637 42.9021H40.9823C42.0718 42.9021 42.9561 42.0197 42.9561 40.9331V4.46152C42.9569 3.37575 42.0726 2.49097 40.9823 2.49097ZM23.1513 36.5412C13.7759 36.5412 6.24298 30.8185 5.92791 24.3464C5.69701 19.5549 8.21601 14.0068 14.2449 11.322C16.4994 10.3099 20.334 9.46997 24.0644 9.42993C25.4137 9.38669 26.472 8.95191 28.0562 8.8286C29.3942 8.70929 31.1268 8.66766 32.274 9.07602C33.7348 9.71338 34.6383 10.9217 35.6645 11.8433L34.6359 12.5711L36.4173 13.5336L34.3264 13.1717L34.1316 13.9836C32.5073 13.8202 30.7307 13.5336 29.1257 13.371C27.2256 12.9362 25.6478 12.6488 23.674 12.6048C15.2327 12.4854 9.5148 18.1921 9.71202 23.7034C9.90604 30.7393 18.7843 33.3576 24.2191 33.3576C39.3636 33.4433 39.637 20.0458 34.3994 19.7711C32.8986 19.7007 30.6505 29.2996 27.0171 29.2636C23.9097 29.2315 22.0882 20.1715 20.5649 20.1715C19.2645 20.2043 17.795 26.6805 16.5707 28.8976C15.9045 30.1411 12.3946 26.606 12.6319 26.0439C12.87 25.4842 14.1656 28.0016 15.0731 27.2121C15.6712 26.6805 16.9307 17.2697 20.4791 16.9814C23.5946 16.7428 25.8394 26.9791 27.1847 26.8822C28.837 26.8478 31.4025 16.8733 34.1693 17.1496C42.9168 18.0416 42.1231 36.5516 23.1513 36.5412Z" fill="#4E6A58"/>
<path d="M30.4228 10.6918C31.1307 10.7214 31.4178 10.6846 31.4578 10.5293C31.4955 10.3731 31.1227 10.189 30.6128 10.0641C30.1045 9.94315 29.662 10.1289 29.6283 10.2811C29.5842 10.4404 29.8977 10.671 30.4228 10.6918Z" fill="#4E6A58"/>
<path d="M69.3223 25.0533C69.0225 25.1406 68.6762 25.2207 68.2833 25.2928C67.8897 25.364 67.4503 25.4241 66.9653 25.4745C66.481 25.5234 65.9543 25.5482 65.3867 25.5482C63.9404 25.5482 62.6905 25.332 61.6379 24.9004C60.5852 24.4704 59.7185 23.8875 59.0371 23.1541C58.3556 22.4206 57.8505 21.5678 57.5202 20.5958C57.1907 19.6245 57.0264 18.594 57.0264 17.5042C57.0264 16.2191 57.2348 15.0388 57.6509 13.9651C58.067 12.8913 58.6635 11.9649 59.4395 11.1858C60.2156 10.4067 61.1544 9.80139 62.2568 9.37061C63.3583 8.93902 64.5946 8.72363 65.9647 8.72363C66.9116 8.72363 67.7269 8.78208 68.4124 8.89979C69.0979 9.01749 69.6454 9.12879 70.0535 9.23449V13.7609C69.8868 13.6624 69.6847 13.5623 69.4458 13.4606C69.2069 13.359 68.9383 13.2661 68.6393 13.1828C68.3394 13.0995 68.0123 13.0315 67.6564 12.9786C67.3004 12.9258 66.9212 12.8993 66.5203 12.8993C65.9527 12.8993 65.4075 12.981 64.8848 13.1436C64.3621 13.3061 63.9043 13.5615 63.5107 13.909C63.117 14.2574 62.8028 14.6993 62.5679 15.2366C62.333 15.7739 62.2159 16.4129 62.2159 17.1543C62.2159 17.7821 62.3105 18.3554 62.4997 18.8727C62.6889 19.3907 62.9655 19.8327 63.3287 20.1994C63.6919 20.5662 64.1368 20.852 64.6635 21.0562C65.1895 21.2604 65.786 21.3629 66.4522 21.3629C66.8386 21.3629 67.2074 21.334 67.5594 21.278C67.9113 21.2211 68.2392 21.1475 68.5423 21.057C68.8453 20.9665 69.1235 20.868 69.3777 20.7623C69.631 20.6566 69.8563 20.5541 70.0535 20.4557V24.8235C69.8651 24.8884 69.6214 24.9669 69.3223 25.0533Z" fill="#4E6A58"/>
<path d="M87.5021 25.2632V16.3464C87.5021 16.0598 87.5061 15.7547 87.5133 15.4336C87.5205 15.1126 87.5302 14.7947 87.5422 14.4808C87.5534 14.1669 87.5662 13.8666 87.5815 13.5792C87.5967 13.2917 87.6079 13.0419 87.6151 12.8305H87.4789C87.4332 13.0723 87.3843 13.3262 87.3313 13.5904C87.2784 13.8554 87.2271 14.1085 87.1782 14.3503C87.1293 14.5921 87.082 14.8139 87.0363 15.0141C86.9906 15.2142 86.9529 15.3712 86.9225 15.4849L84.5261 25.264H79.9146L77.4036 15.5978C77.3732 15.4921 77.3371 15.3279 77.2954 15.1045C77.2537 14.8819 77.2064 14.6377 77.1535 14.3727C77.1006 14.1077 77.0493 13.8378 77.0004 13.5616C76.9515 13.2853 76.9074 13.0419 76.8697 12.8297H76.7334C76.7486 13.1924 76.7655 13.5896 76.7847 14.0204C76.8032 14.452 76.82 14.8827 76.8352 15.3135C76.8505 15.7443 76.8641 16.1591 76.8753 16.5554C76.8865 16.9526 76.8921 17.2985 76.8921 17.5932V25.2624H72.5869V8.99512H79.9363L82.1739 17.8326C82.2116 17.9687 82.2476 18.1368 82.2813 18.337C82.315 18.5372 82.3495 18.747 82.3831 18.9664C82.4176 19.1858 82.4497 19.4068 82.4801 19.6302C82.5106 19.8528 82.533 20.0513 82.5483 20.2259H82.6164C82.6389 20.0441 82.6661 19.844 82.6958 19.6246C82.7255 19.4052 82.7607 19.1858 82.7984 18.9664C82.8361 18.747 82.8738 18.5356 82.9123 18.3314C82.9499 18.1272 82.9836 17.9463 83.0141 17.7869L85.1042 8.99512H92.3397V25.2632H87.5021Z" fill="#4E6A58"/>
<path d="M95.5667 20.8048V17.5491H101.78V20.8048H95.5667Z" fill="#4E6A58"/>
<path d="M114.025 25.2632L110.413 18.3883C110.382 18.3202 110.344 18.2353 110.298 18.1336C110.253 18.0311 110.209 17.9279 110.168 17.8214C110.126 17.7157 110.088 17.6132 110.054 17.5147C110.02 17.4162 109.996 17.3329 109.98 17.2649H109.924V25.2624H105.016V8.99512H109.924V16.7324H109.98C110.026 16.6035 110.094 16.4305 110.184 16.2103C110.276 15.9909 110.37 15.7868 110.468 15.5978L113.717 8.99512H119.533L114.909 16.7548L119.975 25.2632H114.025Z" fill="#4E6A58"/>
<path d="M129.654 25.263V16.902H127.803C127.643 18.1119 127.471 19.1616 127.285 20.0504C127.099 20.9392 126.893 21.6975 126.666 22.3252C126.439 22.953 126.184 23.467 125.9 23.8674C125.616 24.2694 125.292 24.5824 124.929 24.809C124.565 25.0364 124.154 25.1918 123.696 25.275C123.239 25.3583 122.721 25.3992 122.145 25.3992C121.843 25.3992 121.538 25.3807 121.231 25.3423C120.923 25.3047 120.684 25.2566 120.51 25.195V22.2003C120.722 22.2756 120.964 22.314 121.237 22.314C121.456 22.314 121.66 22.2684 121.85 22.1779C122.039 22.0874 122.217 21.9209 122.384 21.6782C122.551 21.4356 122.709 21.1097 122.861 20.6966C123.013 20.2842 123.16 19.7573 123.305 19.1136C123.449 18.4706 123.592 17.7011 123.737 16.8051C123.88 15.9083 124.028 14.8554 124.179 13.6455H134.493V25.2622H129.654V25.263Z" fill="#4E6A58"/>
<path d="M145.341 25.2632V18.9672C145.219 19.2018 145.077 19.4588 144.914 19.7383C144.751 20.0185 144.583 20.2868 144.409 20.5438L141.103 25.2632H136.821V13.6465H141.274V19.591C141.32 19.4925 141.38 19.3756 141.456 19.2395C141.532 19.1033 141.611 18.9672 141.694 18.8311C141.778 18.695 141.857 18.5661 141.933 18.4451C142.009 18.3242 142.074 18.2266 142.126 18.1505L145.204 13.6465H149.76V25.2632H145.341Z" fill="#4E6A58"/>
<path d="M159.618 25.2632V20.7368H156.914V25.2632H152.076V13.6465H156.914V17.594H159.618V13.6465H164.457V25.2632H159.618Z" fill="#4E6A58"/>
<path d="M175.293 25.2632V18.9672C175.172 19.2018 175.029 19.4588 174.866 19.7383C174.704 20.0185 174.536 20.2868 174.361 20.5438L171.057 25.2632H166.774V13.6465H171.227V19.591C171.272 19.4925 171.332 19.3756 171.409 19.2395C171.485 19.1033 171.563 18.9672 171.647 18.8311C171.731 18.695 171.81 18.5661 171.886 18.4451C171.962 18.3242 172.026 18.2266 172.079 18.1505L175.157 13.6465H179.712V25.2632H175.293Z" fill="#4E6A58"/>
<path d="M189.503 25.2631L186.913 19.2962H186.867V25.2631H182.029V13.6584H186.867V19.1033H186.913L189.265 13.6472H194.717L191.57 18.9679L194.899 25.2639H189.503V25.2631Z" fill="#4E6A58"/>
<path d="M202.271 25.2631V23.4936H202.225C201.861 24.1365 201.386 24.6394 200.799 25.0029C200.213 25.3656 199.506 25.5474 198.681 25.5474C198.09 25.5474 197.574 25.4545 197.136 25.2687C196.696 25.0846 196.331 24.8284 196.04 24.5033C195.749 24.1782 195.53 23.7978 195.387 23.3631C195.243 22.9283 195.171 22.4615 195.171 21.9618C195.171 21.5382 195.227 21.1147 195.341 20.6919C195.454 20.2683 195.665 19.8744 195.971 19.5116C196.278 19.1481 196.705 18.8326 197.255 18.5644C197.804 18.2962 198.514 18.1048 199.385 17.9919L202.271 17.6171C202.271 17.4202 202.223 17.2432 202.128 17.0839C202.033 16.9245 201.903 16.7884 201.737 16.6755C201.569 16.5618 201.37 16.4753 201.14 16.4145C200.909 16.3536 200.657 16.3232 200.385 16.3232C199.999 16.3232 199.614 16.356 199.232 16.4201C198.85 16.4849 198.483 16.5698 198.131 16.6755C197.779 16.7812 197.446 16.9005 197.131 17.0326C196.817 17.1655 196.527 17.2993 196.262 17.4354V14.2934C196.542 14.1725 196.878 14.0548 197.267 13.9419C197.657 13.829 198.071 13.7305 198.506 13.6472C198.941 13.5639 199.378 13.4959 199.818 13.443C200.257 13.3902 200.67 13.3638 201.056 13.3638C202.116 13.3638 203.007 13.4791 203.725 13.7097C204.444 13.9411 205.024 14.2846 205.463 14.7426C205.903 15.2006 206.216 15.7715 206.406 16.4553C206.595 17.1399 206.69 17.9398 206.69 18.855V25.2647H202.271V25.2631ZM200.634 20.1698C200.263 20.2307 199.966 20.3532 199.744 20.5381C199.52 20.7231 199.409 20.9825 199.409 21.3148C199.409 21.4437 199.429 21.5719 199.47 21.7008C199.512 21.8297 199.579 21.9466 199.669 22.0523C199.76 22.1588 199.88 22.2437 200.027 22.3077C200.174 22.3726 200.354 22.4046 200.566 22.4046C200.808 22.4046 201.034 22.3574 201.242 22.2629C201.451 22.1684 201.63 22.0323 201.782 21.8545C201.933 21.6768 202.053 21.463 202.139 21.2131C202.227 20.9633 202.271 20.6879 202.271 20.3852V19.9432L200.634 20.1698Z" fill="#4E6A58"/>
<path d="M60.8089 35.3657V31.7601L60.6991 32.0531C60.6686 32.1356 60.6373 32.2189 60.6029 32.3054C60.5692 32.3926 60.5395 32.4671 60.5155 32.5288L59.385 35.3649H59.0796L57.8602 32.5288C57.8361 32.4727 57.8065 32.3999 57.7728 32.3118C57.7391 32.2237 57.7071 32.138 57.6766 32.0571C57.6413 31.9627 57.6044 31.8634 57.5667 31.7601V35.3657H57.2076V31.194H57.6565L58.9289 34.0821C58.9593 34.1446 58.9906 34.2207 59.0251 34.3104C59.0587 34.3992 59.0916 34.4857 59.1213 34.5666C59.1566 34.6619 59.1918 34.7571 59.2271 34.8556C59.2648 34.7604 59.3033 34.6667 59.3417 34.5738C59.3746 34.4953 59.4075 34.4112 59.442 34.3232C59.4756 34.2351 59.5053 34.159 59.5294 34.0966L60.7159 31.1924H61.1769V35.3641H60.8089V35.3657Z" fill="#4E6A58"/>
<path d="M65.3498 35.3658V33.3736H62.8861V35.3658H62.5109V31.1941H62.8861V33.0317H65.3498V31.1941H65.725V35.3658H65.3498Z" fill="#4E6A58"/>
<path d="M70.7141 33.2887C70.7141 33.5794 70.6748 33.8564 70.5963 34.1191C70.5169 34.3833 70.3958 34.6147 70.2331 34.8141C70.0695 35.0135 69.8643 35.1728 69.6166 35.2905C69.3688 35.409 69.077 35.4691 68.7395 35.4691C68.4076 35.4691 68.1182 35.4098 67.8704 35.2929C67.6227 35.176 67.4175 35.0199 67.2523 34.8229C67.088 34.6259 66.9653 34.3961 66.8835 34.1343C66.8017 33.8725 66.7617 33.5954 66.7617 33.3048C66.7617 32.914 66.8186 32.5793 66.9324 32.2991C67.0471 32.0188 67.1978 31.789 67.3854 31.6105C67.573 31.4319 67.7887 31.2998 68.0324 31.2173C68.2753 31.134 68.5262 31.094 68.7844 31.094C69.0786 31.094 69.344 31.1428 69.5821 31.2405C69.8194 31.3382 70.0223 31.4807 70.1898 31.6665C70.3574 31.8523 70.4864 32.0821 70.577 32.3543C70.6676 32.6266 70.7141 32.938 70.7141 33.2887ZM70.3221 33.2807C70.3221 32.9709 70.2852 32.6994 70.2123 32.4672C70.1385 32.235 70.0343 32.0436 69.8996 31.8899C69.7649 31.7386 69.6021 31.6241 69.4105 31.548C69.2189 31.4719 69.0049 31.4335 68.7684 31.4335C68.523 31.4335 68.3018 31.4759 68.1029 31.5592C67.9041 31.6433 67.7349 31.7658 67.593 31.9267C67.4511 32.0861 67.3421 32.283 67.2667 32.5145C67.1906 32.7475 67.1521 33.0125 67.1521 33.3112C67.1521 33.5778 67.1882 33.822 67.2603 34.0446C67.3325 34.2672 67.4367 34.4586 67.5722 34.6195C67.7085 34.7789 67.8752 34.9038 68.0741 34.9919C68.2729 35.0799 68.4982 35.1248 68.7515 35.1248C69.0209 35.1248 69.2534 35.0791 69.4514 34.9879C69.6494 34.8966 69.8122 34.7701 69.9413 34.6051C70.0703 34.4402 70.1658 34.2456 70.2283 34.0206C70.2908 33.7956 70.3221 33.549 70.3221 33.2807Z" fill="#4E6A58"/>
<path d="M72.1252 31.5368V35.3658H71.75V31.1941H73.7896V31.5368H72.1252Z" fill="#4E6A58"/>
<path d="M78.0074 33.2887C78.0074 33.5794 77.9681 33.8564 77.8896 34.1191C77.8102 34.3833 77.6891 34.6147 77.5264 34.8141C77.3628 35.0135 77.1576 35.1728 76.9099 35.2905C76.6621 35.409 76.3703 35.4691 76.0328 35.4691C75.7009 35.4691 75.4114 35.4098 75.1637 35.2929C74.916 35.176 74.7107 35.0199 74.5456 34.8229C74.3812 34.6259 74.2586 34.3961 74.1768 34.1343C74.095 33.8725 74.0549 33.5954 74.0549 33.3048C74.0549 32.914 74.1119 32.5793 74.2257 32.2991C74.3403 32.0188 74.4911 31.789 74.6787 31.6105C74.8663 31.4319 75.0819 31.2998 75.3257 31.2173C75.5686 31.134 75.8195 31.094 76.0777 31.094C76.3719 31.094 76.6373 31.1428 76.8754 31.2405C77.1127 31.3382 77.3155 31.4807 77.4831 31.6665C77.6507 31.8523 77.7797 32.0821 77.8703 32.3543C77.9609 32.6266 78.0074 32.938 78.0074 33.2887ZM77.6162 33.2807C77.6162 32.9709 77.5793 32.6994 77.5063 32.4672C77.4326 32.235 77.3284 32.0436 77.1937 31.8899C77.059 31.7386 76.8962 31.6241 76.7046 31.548C76.513 31.4719 76.299 31.4335 76.0624 31.4335C75.8171 31.4335 75.5958 31.4759 75.397 31.5592C75.1982 31.6433 75.029 31.7658 74.8871 31.9267C74.7452 32.0861 74.6362 32.283 74.5608 32.5145C74.4847 32.7475 74.4462 33.0125 74.4462 33.3112C74.4462 33.5778 74.4822 33.822 74.5544 34.0446C74.6266 34.2672 74.7308 34.4586 74.8663 34.6195C75.0026 34.7789 75.1693 34.9038 75.3682 34.9919C75.567 35.0799 75.7923 35.1248 76.0456 35.1248C76.315 35.1248 76.5475 35.0791 76.7455 34.9879C76.9435 34.8966 77.1063 34.7701 77.2354 34.6051C77.3644 34.4402 77.4598 34.2456 77.5224 34.0206C77.5849 33.7956 77.6162 33.549 77.6162 33.2807Z" fill="#4E6A58"/>
<path d="M81.8829 35.3658V31.5368H79.4192V35.3658H79.044V31.1941H82.2581V35.3658H81.8829Z" fill="#4E6A58"/>
<path d="M87.2384 33.1294C87.2384 33.4721 87.1951 33.786 87.1077 34.0734C87.0203 34.3609 86.8969 34.6059 86.7365 34.8125C86.5762 35.0191 86.3806 35.18 86.1489 35.2961C85.918 35.4122 85.6598 35.4699 85.3736 35.4699C85.1836 35.4699 85.0136 35.4435 84.8637 35.3914C84.7138 35.3394 84.5823 35.2737 84.4677 35.192C84.353 35.1104 84.2568 35.0191 84.1783 34.919C84.0989 34.8189 84.0355 34.7204 83.9866 34.6251H83.9706V37.2859H83.5954V31.1957H83.9706V32.0548H83.9866C84.0548 31.9131 84.1406 31.7834 84.244 31.6665C84.3474 31.548 84.4653 31.4471 84.5984 31.363C84.7322 31.279 84.879 31.2125 85.0393 31.1645C85.1996 31.1172 85.3696 31.094 85.5492 31.094C85.821 31.094 86.0623 31.142 86.2715 31.2381C86.4808 31.335 86.6564 31.4719 86.7999 31.6497C86.9426 31.8282 87.0516 32.042 87.1262 32.2927C87.2015 32.5401 87.2384 32.8195 87.2384 33.1294ZM86.8472 33.1374C86.8472 32.866 86.8135 32.625 86.747 32.4144C86.6804 32.2038 86.5874 32.0268 86.4696 31.8811C86.3517 31.7354 86.2098 31.6249 86.0455 31.5488C85.8811 31.4727 85.6991 31.4343 85.5011 31.4343C85.3055 31.4343 85.1323 31.4599 84.9816 31.512C84.8309 31.5632 84.6986 31.6321 84.5855 31.7185C84.4725 31.8026 84.3771 31.9027 84.2977 32.0156C84.2191 32.1285 84.1558 32.2446 84.1085 32.3663C84.0604 32.4864 84.0259 32.6089 84.0043 32.7306C83.9826 32.8524 83.9714 32.9669 83.9714 33.0734V33.5986C83.9714 33.778 84.0003 33.9581 84.0588 34.1399C84.1173 34.3233 84.2063 34.4866 84.3258 34.6307C84.4452 34.7765 84.5951 34.895 84.7747 34.9871C84.9543 35.0791 85.1652 35.1264 85.4073 35.1264C85.6246 35.1264 85.8218 35.0775 85.999 34.9806C86.1753 34.8854 86.3269 34.7492 86.4535 34.5739C86.5802 34.3985 86.6772 34.1895 86.7454 33.9437C86.8135 33.6995 86.8472 33.4305 86.8472 33.1374Z" fill="#4E6A58"/>
<path d="M91.926 33.2887C91.926 33.5794 91.8868 33.8564 91.8082 34.1191C91.7288 34.3833 91.6078 34.6147 91.445 34.8141C91.2815 35.0135 91.0762 35.1728 90.8285 35.2905C90.5808 35.409 90.2889 35.4691 89.9514 35.4691C89.6195 35.4691 89.3301 35.4098 89.0823 35.2929C88.8346 35.176 88.6294 35.0199 88.4642 34.8229C88.2999 34.6259 88.1772 34.3961 88.0954 34.1343C88.0137 33.8725 87.9736 33.5954 87.9736 33.3048C87.9736 32.914 88.0305 32.5793 88.1443 32.2991C88.259 32.0188 88.4097 31.789 88.5973 31.6105C88.7849 31.4319 89.0006 31.2998 89.2443 31.2173C89.4872 31.134 89.7381 31.094 89.9963 31.094C90.2905 31.094 90.5559 31.1428 90.794 31.2405C91.0313 31.3382 91.2342 31.4807 91.4017 31.6665C91.5693 31.8523 91.6983 32.0821 91.7889 32.3543C91.8795 32.6266 91.926 32.938 91.926 33.2887ZM91.534 33.2807C91.534 32.9709 91.4971 32.6994 91.4242 32.4672C91.3504 32.235 91.2462 32.0436 91.1115 31.8899C90.9768 31.7386 90.8141 31.6241 90.6224 31.548C90.4308 31.4719 90.2168 31.4335 89.9803 31.4335C89.7349 31.4335 89.5137 31.4759 89.3148 31.5592C89.116 31.6433 88.9469 31.7658 88.8049 31.9267C88.663 32.0861 88.554 32.283 88.4787 32.5145C88.4025 32.7475 88.364 33.0125 88.364 33.3112C88.364 33.5778 88.4001 33.822 88.4722 34.0446C88.5444 34.2672 88.6486 34.4586 88.7841 34.6195C88.9204 34.7789 89.0872 34.9038 89.286 34.9919C89.4848 35.0799 89.7101 35.1248 89.9634 35.1248C90.2328 35.1248 90.4653 35.0791 90.6633 34.9879C90.8614 34.8966 91.0241 34.7701 91.1532 34.6051C91.2823 34.4402 91.3777 34.2456 91.4402 34.0206C91.5027 33.7956 91.534 33.549 91.534 33.2807Z" fill="#4E6A58"/>
<path d="M97.3305 33.3039C97.3305 33.6057 97.28 33.8828 97.1773 34.1358C97.0755 34.3872 96.9344 34.605 96.7556 34.7868C96.576 34.9694 96.3644 35.1111 96.1191 35.2128C95.8745 35.3145 95.6092 35.3649 95.3238 35.3649H95.177V37.3242H94.7978V35.3649H94.6511C94.3657 35.3649 94.1003 35.3145 93.8558 35.2128C93.6113 35.1111 93.3988 34.9686 93.2192 34.7868C93.0397 34.6042 92.8994 34.3872 92.7975 34.1358C92.6957 33.8828 92.6444 33.6057 92.6444 33.3039C92.6444 32.9844 92.6925 32.6929 92.7871 32.4327C92.8825 32.1717 93.0172 31.9491 93.1904 31.7665C93.3644 31.5831 93.5744 31.4422 93.8189 31.3429C94.0635 31.2436 94.3344 31.194 94.6311 31.194H94.7978V29.426H95.177V31.1948H95.3438C95.6436 31.1948 95.9146 31.2444 96.1576 31.3437C96.4013 31.443 96.6097 31.5847 96.7837 31.7673C96.9577 31.9507 97.0924 32.1725 97.187 32.4335C97.2832 32.6937 97.3305 32.9844 97.3305 33.3039ZM94.7978 31.5367H94.6391C94.4106 31.5367 94.1981 31.5727 94.0025 31.6464C93.8069 31.7201 93.6377 31.8306 93.495 31.9779C93.3523 32.1268 93.2401 32.3118 93.1583 32.5344C93.0765 32.757 93.0364 33.0164 93.0364 33.3127C93.0364 33.5817 93.0773 33.8219 93.1583 34.0341C93.2401 34.2455 93.3539 34.4249 93.5006 34.5714C93.6482 34.7179 93.8213 34.83 94.0226 34.9077C94.2238 34.9854 94.4443 35.0246 94.6832 35.0246H94.7978V31.5367ZM96.9392 33.3127C96.9392 33.0164 96.8983 32.7578 96.8166 32.5344C96.7348 32.3118 96.6217 32.126 96.4782 31.9779C96.3339 31.8306 96.1632 31.7201 95.9667 31.6464C95.7695 31.5727 95.5555 31.5367 95.3238 31.5367H95.177V35.0238H95.2917C95.5306 35.0238 95.7511 34.9846 95.9523 34.9069C96.1535 34.8292 96.3275 34.7171 96.4742 34.5706C96.6209 34.4241 96.7356 34.2447 96.8166 34.0333C96.8983 33.8219 96.9392 33.5817 96.9392 33.3127Z" fill="#4E6A58"/>
<path d="M101.239 35.3658V31.8787C101.217 31.9091 101.196 31.9388 101.175 31.9684C101.155 31.998 101.139 32.0212 101.125 32.0372L98.6164 35.3658H98.351V31.1941H98.7262V34.6484C98.7422 34.6187 98.7591 34.5907 98.7751 34.5627C98.7912 34.5363 98.8088 34.5114 98.828 34.4898L101.317 31.1941H101.618V35.3658H101.239Z" fill="#4E6A58"/>
<path d="M105.424 35.3657V31.5367H104.204C104.158 32.1557 104.098 32.7066 104.022 33.1886C103.947 33.6706 103.85 34.0774 103.729 34.4081C103.608 34.7396 103.459 34.9918 103.282 35.164C103.105 35.3369 102.892 35.4226 102.642 35.4226C102.601 35.4226 102.559 35.4194 102.518 35.4122C102.476 35.405 102.439 35.397 102.409 35.3898V35.0559C102.431 35.0647 102.466 35.0719 102.515 35.0783C102.564 35.0847 102.603 35.0879 102.633 35.0879C102.815 35.0879 102.975 35.0038 103.11 34.8317C103.246 34.6611 103.363 34.4105 103.46 34.0806C103.559 33.7507 103.642 33.3439 103.708 32.8603C103.775 32.3767 103.828 31.8218 103.869 31.1948H105.798V35.3665H105.424V35.3657Z" fill="#4E6A58"/>
<path d="M110.001 34.1159C110.001 34.3273 109.964 34.5114 109.891 34.6692C109.817 34.8269 109.721 34.9566 109.603 35.0599C109.485 35.1632 109.351 35.2401 109.199 35.2897C109.048 35.3402 108.895 35.3658 108.741 35.3658H107.137V31.1941H107.513V32.9052H108.708C108.91 32.9052 109.09 32.9324 109.249 32.9869C109.408 33.0413 109.542 33.1214 109.654 33.2255C109.767 33.3304 109.852 33.4569 109.912 33.6066C109.971 33.7564 110.001 33.9253 110.001 34.1159ZM109.61 34.1159C109.61 33.9934 109.59 33.8797 109.55 33.7732C109.511 33.6667 109.45 33.5754 109.368 33.4977C109.286 33.4201 109.185 33.3592 109.063 33.3144C108.941 33.2687 108.796 33.2471 108.631 33.2471H107.512V35.0239H108.638C108.815 35.0239 108.963 34.9999 109.087 34.9518C109.21 34.9046 109.309 34.8389 109.387 34.7565C109.464 34.674 109.521 34.5771 109.556 34.4674C109.591 34.3585 109.61 34.2408 109.61 34.1159Z" fill="#4E6A58"/>
<path d="M113.843 35.3658V33.3736H111.38V35.3658H111.005V31.1941H111.38V33.0317H113.843V31.1941H114.219V35.3658H113.843Z" fill="#4E6A58"/>
<path d="M118.42 34.1159C118.42 34.3273 118.383 34.5114 118.31 34.6692C118.236 34.8269 118.14 34.9566 118.023 35.0599C117.904 35.1632 117.769 35.2401 117.619 35.2897C117.468 35.3402 117.315 35.3658 117.16 35.3658H115.557V31.1941H115.933V32.9052H117.127C117.329 32.9052 117.509 32.9324 117.668 32.9869C117.827 33.0413 117.962 33.1214 118.073 33.2255C118.186 33.3304 118.271 33.4569 118.331 33.6066C118.391 33.7564 118.42 33.9253 118.42 34.1159ZM118.029 34.1159C118.029 33.9934 118.009 33.8797 117.97 33.7732C117.931 33.6667 117.87 33.5754 117.788 33.4977C117.706 33.4201 117.604 33.3592 117.482 33.3144C117.36 33.2687 117.215 33.2471 117.05 33.2471H115.932V35.0239H117.058C117.234 35.0239 117.383 34.9999 117.506 34.9518C117.628 34.9046 117.728 34.8389 117.806 34.7565C117.883 34.6732 117.939 34.5771 117.975 34.4674C118.01 34.3585 118.029 34.2408 118.029 34.1159ZM119.334 35.3658V31.1941H119.71V35.3658H119.334Z" fill="#4E6A58"/>
<path d="M123.935 35.3657V31.8786C123.914 31.909 123.892 31.9387 123.872 31.9683C123.852 31.9979 123.835 32.0211 123.822 32.0372L121.313 35.3657H121.048V31.194H121.423V34.6483C121.44 34.6187 121.456 34.5906 121.473 34.5626C121.489 34.5362 121.506 34.5114 121.525 34.4897L124.013 31.194H124.315V35.3657H123.935ZM122.773 30.2284C122.933 30.2284 123.076 30.2059 123.201 30.1587C123.326 30.1131 123.434 30.0506 123.525 29.9713C123.616 29.8929 123.688 29.8024 123.741 29.6991C123.795 29.5958 123.827 29.4877 123.842 29.3772H124.241C124.214 29.5245 124.162 29.6671 124.089 29.8072C124.014 29.9465 123.915 30.0714 123.794 30.1795C123.671 30.2892 123.524 30.3749 123.352 30.4405C123.181 30.5054 122.987 30.5382 122.769 30.5382C122.551 30.5382 122.36 30.5054 122.197 30.4405C122.035 30.3749 121.897 30.2892 121.785 30.1795C121.674 30.0714 121.585 29.9465 121.518 29.8072C121.452 29.6671 121.404 29.5237 121.377 29.3772H121.777C121.791 29.4885 121.821 29.5958 121.866 29.6991C121.912 29.8024 121.977 29.8929 122.058 29.9713C122.14 30.0514 122.239 30.1139 122.356 30.1587C122.473 30.2059 122.608 30.2284 122.763 30.2284H122.773Z" fill="#4E6A58"/>
<path d="M131.539 35.3657V31.7601L131.428 32.0531C131.398 32.1356 131.367 32.2189 131.332 32.3054C131.299 32.3926 131.27 32.4671 131.245 32.5288L130.115 35.3649H129.809L128.589 32.5288C128.566 32.4727 128.537 32.3999 128.502 32.3118C128.468 32.2237 128.436 32.138 128.407 32.0571C128.371 31.9627 128.335 31.8634 128.297 31.7601V35.3657H127.938V31.194H128.387L129.66 34.0821C129.689 34.1446 129.721 34.2207 129.755 34.3104C129.79 34.3992 129.821 34.4857 129.851 34.5666C129.887 34.6619 129.922 34.7571 129.957 34.8556C129.995 34.7604 130.033 34.6667 130.072 34.5738C130.105 34.4953 130.138 34.4112 130.172 34.3232C130.206 34.2351 130.235 34.159 130.259 34.0966L131.446 31.1924H131.906V35.3641H131.539V35.3657Z" fill="#4E6A58"/>
<path d="M133.33 33.2958C133.33 33.5808 133.364 33.8371 133.433 34.0637C133.5 34.2903 133.599 34.4824 133.728 34.641C133.857 34.7979 134.013 34.9188 134.197 35.0005C134.38 35.0838 134.588 35.1254 134.819 35.1254C135.091 35.1254 135.337 35.0782 135.556 34.9845C135.774 34.8908 135.985 34.7659 136.19 34.6073V35.0061C136.106 35.0661 136.012 35.1238 135.909 35.1798C135.807 35.2351 135.696 35.2847 135.577 35.3272C135.458 35.3696 135.328 35.4024 135.19 35.4289C135.051 35.4537 134.901 35.4681 134.741 35.4681C134.509 35.4681 134.286 35.4257 134.068 35.3432C133.85 35.2607 133.657 35.1302 133.49 34.9524C133.324 34.7747 133.189 34.5457 133.089 34.2662C132.988 33.986 132.938 33.6497 132.938 33.2557C132.938 32.9683 132.981 32.6928 133.066 32.431C133.151 32.1692 133.276 31.9394 133.435 31.7408C133.596 31.5422 133.792 31.3853 134.023 31.2684C134.254 31.1515 134.517 31.093 134.809 31.093C135.106 31.093 135.358 31.1491 135.562 31.262C135.766 31.3749 135.933 31.5246 136.06 31.7128C136.186 31.8993 136.277 32.1163 136.335 32.3621C136.392 32.6088 136.42 32.8642 136.42 33.13V33.2974H133.33V33.2958ZM135.927 32.2997C135.865 32.1115 135.781 31.9522 135.676 31.8225C135.57 31.6944 135.443 31.5975 135.294 31.5318C135.145 31.4669 134.979 31.4341 134.795 31.4341C134.574 31.4341 134.379 31.4742 134.21 31.5518C134.042 31.6311 133.897 31.7376 133.777 31.8737C133.656 32.0098 133.559 32.1708 133.489 32.3573C133.418 32.5423 133.371 32.7417 133.346 32.9531H136.03C136.022 32.7064 135.988 32.4895 135.927 32.2997Z" fill="#4E6A58"/>
<path d="M140.648 36.466V35.3658H137.315V36.466H136.973V35.0239H137.339C137.524 34.7597 137.687 34.4762 137.824 34.1719C137.964 33.8685 138.08 33.5514 138.176 33.2223C138.271 32.894 138.345 32.5577 138.396 32.2142C138.447 31.8707 138.478 31.5304 138.485 31.1941H140.345V35.0239H140.99V36.466H140.648ZM139.971 31.5368H138.828C138.807 31.8267 138.77 32.1229 138.718 32.424C138.667 32.7259 138.597 33.0253 138.508 33.324C138.419 33.6234 138.313 33.9157 138.189 34.2032C138.066 34.489 137.923 34.7629 137.76 35.0239H139.971V31.5368Z" fill="#4E6A58"/>
<path d="M144.731 35.3658V31.8787C144.71 31.9091 144.687 31.9388 144.667 31.9684C144.647 31.998 144.63 32.0212 144.617 32.0372L142.107 35.3658H141.842V31.1941H142.218V34.6484C142.234 34.6187 142.251 34.5907 142.267 34.5627C142.284 34.5363 142.301 34.5114 142.32 34.4898L144.808 31.1941H145.111V35.3658H144.731Z" fill="#4E6A58"/>
<path d="M149.961 36.8855V35.3665H146.445V31.1948H146.821V35.0246H149.283V31.1948H149.659V35.0246H150.304V36.8855H149.961Z" fill="#4E6A58"/>
<path d="M154.044 35.3658V31.8787C154.022 31.9091 154.002 31.9388 153.982 31.9684C153.962 31.998 153.944 32.0212 153.93 32.0372L151.422 35.3658H151.157V31.1941H151.532V34.6484C151.549 34.6187 151.564 34.5907 151.582 34.5627C151.598 34.5363 151.615 34.5114 151.634 34.4898L154.123 31.1941H154.424V35.3658H154.044Z" fill="#4E6A58"/>
<path d="M158.596 35.3658V33.3736H156.133V35.3658H155.757V31.1941H156.133V33.0317H158.596V31.1941H158.971V35.3658H158.596Z" fill="#4E6A58"/>
<path d="M162.578 35.376C162.39 35.4369 162.165 35.4681 161.904 35.4681C161.616 35.4681 161.355 35.4161 161.121 35.3136C160.888 35.2103 160.688 35.0645 160.524 34.8788C160.359 34.693 160.232 34.4704 160.142 34.211C160.052 33.9516 160.007 33.6649 160.007 33.3534C160.007 33.0115 160.06 32.7024 160.166 32.4246C160.272 32.1476 160.419 31.9097 160.605 31.712C160.791 31.5134 161.013 31.3605 161.268 31.254C161.522 31.1459 161.802 31.093 162.104 31.093C162.291 31.093 162.464 31.1114 162.622 31.1515C162.779 31.1915 162.915 31.2363 163.029 31.2884V31.712C162.915 31.6407 162.777 31.5774 162.615 31.5198C162.453 31.4637 162.264 31.4349 162.046 31.4349C161.796 31.4349 161.569 31.483 161.365 31.5782C161.16 31.6727 160.987 31.8048 160.844 31.973C160.702 32.1411 160.593 32.3413 160.514 32.5719C160.437 32.8025 160.398 33.0556 160.398 33.3294C160.398 33.6097 160.435 33.8603 160.512 34.0829C160.589 34.3047 160.694 34.4944 160.829 34.649C160.964 34.8035 161.123 34.922 161.31 35.0037C161.496 35.0854 161.7 35.1254 161.921 35.1254C162.165 35.1254 162.38 35.091 162.565 35.0237C162.75 34.9548 162.9 34.878 163.014 34.7907V35.1814C162.911 35.2511 162.766 35.3152 162.578 35.376Z" fill="#4E6A58"/>
<path d="M166.372 35.3658L164.41 33.3208H164.393V35.3658H164.018V31.1941H164.393V33.1863H164.41L166.347 31.1941H166.832L164.81 33.2311L166.898 35.3658H166.372Z" fill="#4E6A58"/>
<path d="M170.54 35.3658V31.8787C170.519 31.9091 170.498 31.9388 170.478 31.9684C170.458 31.998 170.44 32.0212 170.426 32.0372L167.918 35.3658H167.653V31.1941H168.028V34.6484C168.045 34.6187 168.061 34.5907 168.078 34.5627C168.094 34.5363 168.111 34.5114 168.13 34.4898L170.619 31.1941H170.92V35.3658H170.54Z" fill="#4E6A58"/>
<path d="M175.142 35.3657V31.8786C175.12 31.909 175.098 31.9387 175.078 31.9683C175.058 31.9979 175.041 32.0211 175.027 32.0372L172.518 35.3657H172.253V31.194H172.629V34.6483C172.645 34.6187 172.662 34.5906 172.678 34.5626C172.694 34.5362 172.712 34.5114 172.731 34.4897L175.219 31.194H175.521V35.3657H175.142ZM173.979 30.2284C174.14 30.2284 174.283 30.2059 174.408 30.1587C174.532 30.1131 174.641 30.0506 174.732 29.9713C174.822 29.8929 174.894 29.8024 174.948 29.6991C175.002 29.5958 175.034 29.4877 175.048 29.3772H175.448C175.421 29.5245 175.369 29.6671 175.294 29.8072C175.22 29.9465 175.121 30.0714 174.999 30.1795C174.877 30.2892 174.73 30.3749 174.558 30.4405C174.388 30.5054 174.193 30.5382 173.975 30.5382C173.757 30.5382 173.567 30.5054 173.404 30.4405C173.241 30.3749 173.103 30.2892 172.992 30.1795C172.88 30.0714 172.791 29.9465 172.724 29.8072C172.658 29.6671 172.61 29.5237 172.583 29.3772H172.983C172.997 29.4885 173.026 29.5958 173.073 29.6991C173.119 29.8024 173.183 29.8929 173.264 29.9713C173.346 30.0514 173.446 30.1139 173.562 30.1587C173.679 30.2059 173.814 30.2284 173.97 30.2284H173.979Z" fill="#4E6A58"/>
<path d="M180.437 33.3216L181.8 35.3666H181.322L180.437 33.9485C180.396 33.8861 180.357 33.8252 180.32 33.7668C180.284 33.7083 180.25 33.6539 180.22 33.6058H180.204C180.187 33.6331 180.172 33.6579 180.157 33.6811C180.141 33.7043 180.126 33.7299 180.11 33.7548C180.093 33.7812 180.075 33.8092 180.057 33.8404C180.038 33.8717 180.014 33.9077 179.988 33.9485L179.066 35.3666H178.609L180.004 33.3296L178.634 31.1949H179.074L180.004 32.6898C180.033 32.7363 180.069 32.7915 180.11 32.8572C180.151 32.922 180.188 32.9853 180.22 33.0477H180.237C180.272 32.9885 180.308 32.9308 180.343 32.8724C180.378 32.8163 180.413 32.7595 180.445 32.705L181.416 31.1941H181.857L180.437 33.3216Z" fill="#4E6A58"/>
<path d="M186.2 33.2887C186.2 33.5794 186.161 33.8564 186.083 34.1191C186.003 34.3833 185.883 34.6147 185.72 34.8141C185.557 35.0135 185.351 35.1728 185.103 35.2905C184.856 35.409 184.564 35.4691 184.226 35.4691C183.894 35.4691 183.605 35.4098 183.357 35.2929C183.11 35.176 182.904 35.0199 182.739 34.8229C182.574 34.6259 182.451 34.3961 182.37 34.1343C182.288 33.8725 182.248 33.5954 182.248 33.3048C182.248 32.914 182.305 32.5793 182.419 32.2991C182.533 32.0188 182.685 31.789 182.871 31.6105C183.058 31.4319 183.275 31.2998 183.518 31.2173C183.762 31.1348 184.012 31.094 184.27 31.094C184.565 31.094 184.83 31.1428 185.068 31.2405C185.306 31.3382 185.509 31.4807 185.676 31.6665C185.843 31.8523 185.973 32.0821 186.063 32.3543C186.154 32.6266 186.2 32.938 186.2 33.2887ZM185.809 33.2807C185.809 32.9709 185.773 32.6994 185.699 32.4672C185.625 32.235 185.521 32.0436 185.386 31.8899C185.252 31.7386 185.089 31.6241 184.897 31.548C184.706 31.4719 184.492 31.4335 184.255 31.4335C184.009 31.4335 183.789 31.4759 183.59 31.5592C183.391 31.6433 183.222 31.7658 183.08 31.9267C182.938 32.0861 182.829 32.283 182.754 32.5145C182.677 32.7475 182.639 33.0125 182.639 33.3112C182.639 33.5778 182.675 33.822 182.747 34.0446C182.819 34.2672 182.924 34.4586 183.059 34.6195C183.195 34.7789 183.363 34.9038 183.562 34.9919C183.76 35.0799 183.986 35.1248 184.238 35.1248C184.508 35.1248 184.741 35.0791 184.938 34.9879C185.136 34.8966 185.298 34.7701 185.428 34.6051C185.556 34.4402 185.652 34.2456 185.714 34.0206C185.777 33.7956 185.809 33.549 185.809 33.2807Z" fill="#4E6A58"/>
<path d="M189.709 35.3657V31.5367H188.49C188.443 32.1557 188.383 32.7066 188.308 33.1886C188.233 33.6706 188.135 34.0774 188.014 34.4081C187.893 34.7396 187.744 34.9918 187.567 35.164C187.39 35.3361 187.178 35.4226 186.927 35.4226C186.886 35.4226 186.844 35.4194 186.802 35.4122C186.761 35.405 186.724 35.397 186.694 35.3898V35.0559C186.716 35.0647 186.751 35.0719 186.8 35.0783C186.85 35.0847 186.889 35.0879 186.919 35.0879C187.101 35.0879 187.26 35.0038 187.396 34.8317C187.532 34.6611 187.648 34.4105 187.747 34.0806C187.845 33.7507 187.928 33.3439 187.994 32.8603C188.061 32.3767 188.114 31.8218 188.155 31.1948H190.084V35.3665H189.709V35.3657Z" fill="#4E6A58"/>
<path d="M194.612 36.466V35.3658H191.279V36.466H190.937V35.0239H191.303C191.488 34.7597 191.65 34.4762 191.788 34.1719C191.928 33.8685 192.044 33.5514 192.139 33.2223C192.235 32.894 192.309 32.5577 192.36 32.2142C192.411 31.8707 192.442 31.5304 192.449 31.1941H194.309V35.0239H194.954V36.466H194.612ZM193.934 31.5368H192.792C192.77 31.8267 192.734 32.1229 192.682 32.424C192.631 32.7259 192.56 33.0253 192.471 33.324C192.383 33.6234 192.276 33.9157 192.153 34.2032C192.03 34.489 191.887 34.7629 191.723 35.0239H193.934V31.5368Z" fill="#4E6A58"/>
<path d="M198.696 35.3658V31.8787C198.674 31.9091 198.652 31.9388 198.632 31.9684C198.612 31.998 198.595 32.0212 198.581 32.0372L196.072 35.3658H195.806V31.1941H196.182V34.6484C196.198 34.6187 196.215 34.5907 196.231 34.5627C196.248 34.5363 196.266 34.5114 196.284 34.4898L198.773 31.1941H199.075V35.3658H198.696Z" fill="#4E6A58"/>
<path d="M203.248 35.3658V33.3736H200.784V35.3658H200.409V31.1941H200.784V33.0317H203.248V31.1941H203.623V35.3658H203.248Z" fill="#4E6A58"/>
<path d="M205.337 31.5368V35.3658H204.961V31.1941H207V31.5368H205.337Z" fill="#4E6A58"/>
</g>
<defs>
<clipPath id="clip0_109_30">
<rect width="207" height="45.3947" fill="white"/>
</clipPath>
</defs>
</svg>
