<svg width="14" height="22" viewBox="0 0 14 22" fill="none" xmlns="http://www.w3.org/2000/svg">
<path d="M6.99999 19.9759C7.41315 19.9759 7.74809 19.641 7.74809 19.2278C7.74809 18.8147 7.41315 18.4797 6.99999 18.4797C6.58683 18.4797 6.25189 18.8147 6.25189 19.2278C6.25189 19.641 6.58683 19.9759 6.99999 19.9759Z" fill="#3B9670"/>
<path d="M10.9046 0H2.27372C1.01992 0 0 1.02002 0 2.27372V19.7263C0 20.98 1.02002 22 2.27372 22H10.9047C12.1584 22 13.1784 20.98 13.1784 19.7263V2.27372C13.1783 1.02002 12.1584 0 10.9046 0ZM1.46667 4.44918H11.7116V16.6612H1.46667V4.44918ZM2.27372 1.46667H10.9047C11.3497 1.46667 11.7117 1.82874 11.7117 2.27372V2.98252H1.46667V2.27372C1.46667 1.82874 1.82864 1.46667 2.27372 1.46667ZM10.9046 20.5333H2.27372C1.82874 20.5333 1.46667 20.1713 1.46667 19.7263V18.1278H11.7116V19.7263C11.7116 20.1713 11.3497 20.5333 10.9046 20.5333Z" fill="#3B9670"/>
</svg>
