<svg width="41" height="44" viewBox="0 0 41 44" fill="none" xmlns="http://www.w3.org/2000/svg">
<path d="M35.1429 18.4684V7.69514C35.1429 6.84512 34.4873 6.15607 33.6786 6.15607H23.4287C23.4287 2.75619 20.8063 0 17.5715 0C14.3367 0 11.7143 2.75619 11.7143 6.15616H1.4644C0.655668 6.15616 8.57979e-05 6.84521 8.57979e-05 7.69514V21.2048C0.000343192 22.0548 0.656097 22.7436 1.46474 22.7434C1.82638 22.7433 2.17515 22.6025 2.44395 22.3482C3.64006 21.2038 5.49227 21.2953 6.58104 22.5525C7.66982 23.8096 7.58282 25.7564 6.38671 26.9007C5.26928 27.9699 3.56139 27.9699 2.44395 26.9007C1.84285 26.3321 0.917008 26.3833 0.375967 27.015C0.134016 27.2975 8.57979e-05 27.6641 0 28.0442V41.5539C0 42.4039 0.655582 43.093 1.46431 43.093H14.3178C15.1265 43.0928 15.7819 42.4035 15.7817 41.5535C15.7816 41.1734 15.6477 40.8069 15.4057 40.5243C14.3169 39.2672 14.4039 37.3204 15.6 36.1761C16.7961 35.0317 18.6484 35.1231 19.7371 36.3803C20.7543 37.5548 20.7543 39.3499 19.7371 40.5243C19.1961 41.1561 19.2448 42.1292 19.8458 42.6979C20.1146 42.9522 20.4634 43.093 20.825 43.093H33.6785C34.4873 43.093 35.1428 42.404 35.1428 41.554V30.7806C38.3777 30.7806 41 28.0244 41 24.6245C41 21.2245 38.3778 18.4684 35.1429 18.4684ZM35.1429 27.7026C34.8097 27.6974 34.4798 27.6318 34.1677 27.5087C33.4055 27.2248 32.5686 27.6442 32.2985 28.4453C32.2429 28.6101 32.2145 28.7836 32.2144 28.9584V40.0148H23.2383C23.3648 39.5126 23.4288 38.9953 23.4287 38.4758C23.4287 35.0758 20.8063 32.3196 17.5715 32.3196C14.3367 32.3196 11.7143 35.0758 11.7143 38.4758C11.7142 38.9953 11.7782 39.5126 11.9047 40.0148H2.92863V30.5806C3.40644 30.7136 3.89866 30.7809 4.39294 30.7807C7.62778 30.7807 10.2501 28.0245 10.2501 24.6246C10.2501 21.2246 7.62778 18.4684 4.39294 18.4684C3.89866 18.4682 3.40644 18.5355 2.92863 18.6685V9.2342H13.4481C14.2568 9.23375 14.9119 8.54425 14.9115 7.69432C14.9114 7.51947 14.8829 7.34597 14.8274 7.18112C14.7103 6.85315 14.6479 6.50641 14.643 6.15616C14.643 4.45622 15.9541 3.07813 17.5715 3.07813C19.1889 3.07813 20.5 4.45622 20.5 6.15616C20.4951 6.50641 20.4327 6.85315 20.3156 7.18112C20.0455 7.98226 20.4444 8.86195 21.2067 9.14582C21.3634 9.20426 21.5286 9.23411 21.6949 9.2342H32.2143V20.2906C32.2147 21.1406 32.8707 21.8292 33.6794 21.8288C33.8457 21.8287 34.0108 21.7988 34.1676 21.7404C34.4796 21.6173 34.8095 21.5517 35.1427 21.5465C36.7601 21.5465 38.0713 22.9246 38.0713 24.6246C38.0713 26.3245 36.7603 27.7026 35.1429 27.7026Z" fill="white"/>
</svg>
