<svg width="18" height="18" viewBox="0 0 18 18" fill="none" xmlns="http://www.w3.org/2000/svg">
<path d="M15.5027 2.76954C13.8038 0.996254 11.4532 -0.00450337 8.99741 1.52356e-05C4.03455 -0.0062355 0.00625786 4.01189 7.12473e-06 8.97479C-0.00308059 11.4288 0.997564 13.7772 2.76953 15.4749C2.77469 15.48 2.77661 15.4877 2.78173 15.4923C2.83377 15.5424 2.89033 15.5848 2.94305 15.633C3.08764 15.7615 3.23224 15.8946 3.38455 16.0186C3.46615 16.0829 3.55099 16.1471 3.63454 16.2062C3.7785 16.3136 3.92245 16.4209 4.07281 16.5199C4.17501 16.5842 4.2804 16.6484 4.38512 16.7127C4.52392 16.7962 4.66211 16.8804 4.80543 16.9569C4.9269 17.0211 5.0509 17.0764 5.1743 17.1349C5.30925 17.1991 5.44229 17.2634 5.58044 17.3212C5.7186 17.379 5.85743 17.424 5.99751 17.4742C6.13759 17.5243 6.25842 17.5706 6.39274 17.6117C6.54441 17.6573 6.69993 17.6926 6.85416 17.7306C6.98268 17.762 7.10735 17.798 7.23975 17.8238C7.4171 17.8591 7.59706 17.8816 7.77701 17.906C7.88821 17.9215 7.9968 17.9433 8.10924 17.9542C8.40359 17.9831 8.70046 17.9992 8.99993 17.9992C9.2994 17.9992 9.59631 17.9831 9.89062 17.9542C10.0031 17.9433 10.1117 17.9215 10.2229 17.906C10.4028 17.8816 10.5827 17.8591 10.7601 17.8238C10.8886 17.798 11.0172 17.7595 11.1457 17.7306C11.2999 17.6926 11.4555 17.6573 11.6071 17.6117C11.7414 17.5706 11.8712 17.5204 12.0024 17.4742C12.1335 17.4279 12.2825 17.3778 12.4194 17.3212C12.5563 17.2647 12.6906 17.1985 12.8256 17.1349C12.949 17.0764 13.073 17.0211 13.1944 16.9569C13.3378 16.8804 13.4759 16.7962 13.6147 16.7127C13.7195 16.6484 13.8249 16.5899 13.9271 16.5199C14.0774 16.4209 14.2214 16.3136 14.3653 16.2062C14.4489 16.142 14.5337 16.0841 14.6153 16.0186C14.7676 15.8965 14.9122 15.7667 15.0568 15.633C15.1095 15.5848 15.1661 15.5424 15.2181 15.4923C15.2233 15.4878 15.2252 15.4801 15.2303 15.4749C18.8141 12.0416 18.936 6.35321 15.5027 2.76954ZM14.0583 14.8021C13.9413 14.9049 13.8205 15.0026 13.6984 15.097C13.6265 15.1523 13.5545 15.2069 13.4805 15.2596C13.3642 15.3438 13.246 15.4235 13.1258 15.5C13.0384 15.5559 12.9491 15.6099 12.8591 15.6626C12.746 15.7269 12.6309 15.7911 12.5146 15.8554C12.4118 15.9081 12.307 15.9576 12.2017 16.0064C12.0963 16.0552 11.9799 16.1073 11.8662 16.1529C11.7524 16.1986 11.6316 16.2416 11.5127 16.2814C11.4041 16.3187 11.2955 16.3573 11.1856 16.39C11.0571 16.4286 10.9228 16.4601 10.7898 16.4922C10.6856 16.5166 10.5828 16.5443 10.4774 16.5649C10.3251 16.5944 10.1696 16.615 10.0135 16.6362C9.92478 16.6477 9.83674 16.6638 9.74738 16.6728C9.50059 16.6966 9.2506 16.7107 8.99805 16.7107C8.7455 16.7107 8.49551 16.6966 8.24871 16.6728C8.1594 16.6638 8.07136 16.6477 7.98264 16.6362C7.82649 16.615 7.67097 16.5944 7.51866 16.5649C7.41326 16.5443 7.31043 16.5167 7.20635 16.4922C7.07331 16.4601 6.94092 16.428 6.81048 16.39C6.7006 16.3573 6.59197 16.3187 6.48337 16.2814C6.36449 16.2403 6.24558 16.1985 6.1299 16.1529C6.01423 16.1073 5.90499 16.0572 5.79444 16.0064C5.68388 15.9557 5.58428 15.9081 5.48148 15.8554C5.36517 15.795 5.25013 15.7313 5.13702 15.6626C5.04706 15.6099 4.9577 15.5559 4.87031 15.5C4.75015 15.4235 4.63188 15.3438 4.51556 15.2596C4.44164 15.207 4.36968 15.1523 4.29769 15.097C4.17557 15.0026 4.05477 14.9042 3.93782 14.8021C3.90954 14.7809 3.88382 14.7539 3.85622 14.7294C3.88495 12.5433 5.28937 10.6129 7.36058 9.91277C8.39621 10.4054 9.59861 10.4054 10.6342 9.91277C12.7054 10.6129 14.1098 12.5432 14.1386 14.7294C14.1116 14.7539 14.0859 14.7783 14.0583 14.8021ZM6.75645 5.15265C7.45227 3.91516 9.01951 3.47606 10.257 4.17189C11.4945 4.86772 11.9336 6.43496 11.2378 7.67245C11.0069 8.08304 10.6676 8.42231 10.257 8.65321C10.2538 8.65321 10.2499 8.65321 10.2461 8.65705C10.0757 8.75191 9.89556 8.8282 9.70883 8.88457C9.67543 8.89421 9.64455 8.90705 9.60923 8.91541C9.54495 8.93212 9.47747 8.94368 9.41128 8.95524C9.28664 8.97705 9.16053 8.9897 9.03405 8.99316H8.96077C8.83429 8.9897 8.70818 8.97705 8.58354 8.95524C8.51927 8.94368 8.45115 8.93212 8.38563 8.91541C8.35155 8.90705 8.32135 8.89421 8.28603 8.88457C8.0993 8.8282 7.9192 8.75194 7.74877 8.65705L7.73721 8.65321C6.49971 7.95739 6.06062 6.39015 6.75645 5.15265ZM15.2786 13.4551C14.8662 11.5316 13.5996 9.90084 11.8379 9.02536C13.278 7.45661 13.1737 5.01743 11.605 3.57732C10.0362 2.1372 7.59706 2.24151 6.15694 3.81025C4.80309 5.28505 4.80309 7.5506 6.15694 9.02536C4.39525 9.90087 3.12861 11.5316 2.71621 13.4551C0.251919 9.98394 1.06813 5.17231 4.53928 2.70801C8.01043 0.243718 12.8221 1.05993 15.2864 4.53108C16.2127 5.83594 16.71 7.39678 16.7092 8.99704C16.7092 10.5959 16.209 12.1547 15.2786 13.4551Z" fill="white"/>
</svg>
