<svg width="24" height="24" viewBox="0 0 24 24" fill="none" xmlns="http://www.w3.org/2000/svg">
<path fill-rule="evenodd" clip-rule="evenodd" d="M15.9985 9.0059C15.7385 9.0059 15.4785 8.8949 15.2895 8.7149C15.1985 8.6139 15.1295 8.5049 15.0795 8.3839C15.0295 8.2639 14.9995 8.1339 14.9995 8.0049C14.9995 7.8739 15.0305 7.7439 15.0805 7.6239C15.1305 7.5049 15.2005 7.3939 15.2905 7.2949C15.5715 7.0249 16.0115 6.9259 16.3815 7.0869C16.5115 7.1359 16.6105 7.2059 16.7105 7.2969C16.8005 7.3969 16.8705 7.5069 16.9205 7.6269C16.9705 7.7469 16.9995 7.8769 16.9995 8.0069C16.9995 8.1369 16.9695 8.2669 16.9195 8.3869C16.8695 8.5069 16.7985 8.6169 16.7085 8.7169C16.5185 8.8959 16.2585 9.0059 15.9985 9.0059Z" fill="#005DF6"/>
<path d="M20 11H20.764C21.447 11 22 10.447 22 9.764C22 9.296 21.735 8.868 21.317 8.658L20 8V7.999C20 4.686 17.314 2 14.001 2C10.69 2 8.005 4.683 8.003 7.995C8.002 9.474 6.213 10.213 5.167 9.167L4.835 8.835C3.789 7.789 2 8.53 2 10.009V12V13C2 17.971 6.029 22 11 22H12C16.08 22 19.446 18.946 19.938 15" stroke="#005DF6" stroke-width="2" stroke-linecap="round"/>
<path d="M8.12598 15C8.56998 16.725 10.136 18 12 18C13.864 18 15.43 16.725 15.874 15" stroke="#005DF6" stroke-width="2" stroke-linecap="round"/>
</svg>
