<svg width="24" height="24" viewBox="0 0 24 24" fill="none" xmlns="http://www.w3.org/2000/svg">
<path d="M12 1.99979V5.94379V8.94379H10C8.896 8.94379 8 8.04879 8 6.94379V5.94379C4.687 5.94379 2 8.63079 2 11.9438V19.9768C2 21.6088 3.85 22.5538 5.172 21.5968L5.709 21.2078C7.415 19.9738 9.467 19.3098 11.572 19.3098H12.428C14.533 19.3098 16.585 19.9738 18.291 21.2078L18.828 21.5968C20.15 22.5538 22 21.6088 22 19.9768V11.9438C22 8.63079 19.313 5.94379 16 5.94379" stroke="#005DF6" stroke-width="2" stroke-linecap="round"/>
<path d="M6.00592 13.9466H7.99992" stroke="#005DF6" stroke-width="2" stroke-linecap="round" stroke-linejoin="round"/>
<path d="M14.0024 13.9466L18.0024 13.9566" stroke="#005DF6" stroke-width="2" stroke-linecap="round" stroke-linejoin="round"/>
<path d="M16.0024 11.9441V15.9461" stroke="#005DF6" stroke-width="2" stroke-linecap="round" stroke-linejoin="round"/>
</svg>
