<svg width="24" height="24" viewBox="0 0 24 24" fill="none" xmlns="http://www.w3.org/2000/svg">
<path d="M6 17.7835H9C10.104 17.7835 11 18.6795 11 19.7835V21.7835H2V16.7835C2 13.4705 4.687 10.7835 8 10.7835H10L9.995 2.4595L16 4.7835L21.995 2.4595L22 15.7835C22 19.0965 19.313 21.7835 16 21.7835H15" stroke="#005DF6" stroke-width="2" stroke-linecap="round"/>
<path fill-rule="evenodd" clip-rule="evenodd" d="M14 9.78349C13.74 9.78349 13.48 9.67349 13.29 9.49349C13.11 9.30349 13 9.04349 13 8.78349C13 8.52349 13.11 8.26349 13.29 8.07349C13.66 7.70349 14.33 7.70349 14.71 8.07349C14.89 8.26349 15 8.52349 15 8.78349C15 9.04349 14.89 9.30349 14.71 9.49349C14.52 9.67349 14.26 9.78349 14 9.78349Z" fill="#005DF6"/>
<path fill-rule="evenodd" clip-rule="evenodd" d="M18 9.7835C17.74 9.7835 17.48 9.6735 17.29 9.4935C17.2 9.3935 17.13 9.2835 17.08 9.1635C17.03 9.0435 17 8.9135 17 8.7835C17 8.5235 17.11 8.2635 17.29 8.0735C17.52 7.8435 17.87 7.7335 18.2 7.8035C18.26 7.8135 18.32 7.8335 18.38 7.8635C18.44 7.8835 18.5 7.9135 18.56 7.9535C18.61 7.9935 18.66 8.0335 18.71 8.0735C18.89 8.2635 19 8.5235 19 8.7835C19 9.0435 18.89 9.3035 18.71 9.4935C18.66 9.5335 18.61 9.5835 18.56 9.6135C18.5 9.6535 18.44 9.6835 18.38 9.7035C18.32 9.7335 18.26 9.7535 18.2 9.7635C18.13 9.7735 18.07 9.7835 18 9.7835Z" fill="#005DF6"/>
<path fill-rule="evenodd" clip-rule="evenodd" d="M16.0098 12.7835C15.4578 12.7835 15.0048 12.3355 15.0048 11.7835C15.0048 11.2315 15.4478 10.7835 15.9998 10.7835H16.0098C16.5628 10.7835 17.0098 11.2315 17.0098 11.7835C17.0098 12.3355 16.5628 12.7835 16.0098 12.7835Z" fill="#005DF6"/>
</svg>
