<svg width="24" height="24" viewBox="0 0 24 24" fill="none" xmlns="http://www.w3.org/2000/svg">
<path fill-rule="evenodd" clip-rule="evenodd" d="M6 16C5.74 16 5.48 15.89 5.29 15.71C5.11 15.52 5 15.27 5 15C5 14.74 5.11 14.48 5.29 14.29C5.66 13.92 6.34 13.92 6.71 14.29C6.89 14.48 7 14.74 7 15C7 15.27 6.89 15.52 6.71 15.71C6.52 15.89 6.26 16 6 16Z" fill="#005DF6"/>
<path fill-rule="evenodd" clip-rule="evenodd" d="M18 16C17.74 16 17.48 15.89 17.29 15.71C17.11 15.52 17 15.27 17 15C17 14.87 17.03 14.74 17.08 14.62C17.13 14.49 17.2 14.39 17.29 14.29C17.67 13.92 18.34 13.92 18.71 14.29C18.8 14.39 18.87 14.49 18.92 14.62C18.97 14.74 19 14.87 19 15C19 15.07 18.99 15.13 18.98 15.2C18.97 15.26 18.95 15.32 18.92 15.38C18.9 15.44 18.87 15.5 18.83 15.56C18.79 15.61 18.75 15.66 18.71 15.71C18.52 15.89 18.26 16 18 16Z" fill="#005DF6"/>
<path fill-rule="evenodd" clip-rule="evenodd" d="M4 11L5 2H19L20 11C21.104 11 22 11.896 22 13V20C22 21.104 21.104 22 20 22C18.896 22 18 21.104 18 20V19H6V20C6 21.104 5.104 22 4 22C2.896 22 2 21.104 2 20V13C2 11.896 2.896 11 4 11Z" stroke="#005DF6" stroke-width="2" stroke-linecap="round"/>
<path d="M4 11H16" stroke="#005DF6" stroke-width="2" stroke-linecap="round"/>
<path d="M9 15H15" stroke="#005DF6" stroke-width="2" stroke-linecap="round"/>
</svg>
