<svg width="24" height="24" viewBox="0 0 24 24" fill="none" xmlns="http://www.w3.org/2000/svg">
<path d="M18.9951 19.1436C17.1421 17.3286 15.9931 14.7986 15.9931 11.9996C15.9931 9.2016 17.1421 6.6716 18.9951 4.8566L18.9961 4.8546C17.1931 3.0886 14.7241 1.9996 12.0001 1.9996C6.47712 1.9996 2.00012 6.4766 2.00012 11.9996C2.00012 13.4226 2.29712 14.7756 2.83212 16.0006" stroke="#005DF6" stroke-width="2" stroke-linecap="round"/>
<path d="M5.13235 4.9873C6.91035 6.7923 8.00735 9.2703 8.00735 12.0033C8.00735 14.8013 6.85835 17.3303 5.00635 19.1453C6.80935 20.9103 9.27735 22.0003 12.0003 22.0003C17.5233 22.0003 22.0003 17.5233 22.0003 12.0003C22.0003 10.5773 21.7033 9.2243 21.1673 7.9993" stroke="#005DF6" stroke-width="2" stroke-linecap="round"/>
</svg>
