<svg width="125" height="28" viewBox="0 0 125 28" fill="none" xmlns="http://www.w3.org/2000/svg">
<path fill-rule="evenodd" clip-rule="evenodd" d="M15.3798 20.9984C10.6749 21.5964 6.69974 17.6208 7.29804 12.9149C7.7054 9.70703 10.2954 7.11683 13.5022 6.70899C18.2074 6.11095 22.1822 10.0866 21.5843 14.7925C21.1766 18.0004 18.5869 20.5906 15.3798 20.9984ZM15.8189 0.414873C7.27805 -0.431009 0.159223 6.68938 1.00531 15.2317C1.63106 21.5533 6.74326 26.6666 13.063 27.2925C21.6039 28.1388 28.7227 21.018 27.877 12.4757C27.2513 6.1537 22.1391 1.04076 15.8189 0.414873Z" fill="#005BFF"/>
<path fill-rule="evenodd" clip-rule="evenodd" d="M35.1231 0.949341C33.1702 0.949341 31.6321 2.7266 32.0379 4.75209C32.335 6.23758 33.7273 7.25209 35.2419 7.25209H44.0364L30.3504 25.3125C29.9011 25.905 30.3237 26.756 31.0671 26.756H52.5365C54.0506 26.756 55.4429 25.7415 55.7401 24.2564C56.1459 22.2305 54.6078 20.4533 52.6549 20.4533H41.9392L55.6158 2.4062C56.069 1.80816 55.6421 0.949341 54.8916 0.949341H35.1231Z" fill="#005BFF"/>
<path fill-rule="evenodd" clip-rule="evenodd" d="M120.912 1.02094C119.45 1.32878 118.446 2.68957 118.446 4.18408V14.6794L101.393 1.14761C100.798 0.675842 99.9221 1.09937 99.9221 1.85819V23.5264C99.9221 25.0209 100.926 26.3821 102.388 26.69C104.427 27.1194 106.223 25.5747 106.223 23.6107V13.0256L123.277 26.5578C123.871 27.0296 124.747 26.606 124.747 25.8472V4.10016C124.747 2.13584 122.951 0.591528 120.912 1.02094Z" fill="#005BFF"/>
<path fill-rule="evenodd" clip-rule="evenodd" d="M76.51 0.346375C66.0696 0.346375 57.606 6.39186 57.606 13.8499C57.606 21.3079 66.0696 27.3534 76.51 27.3534C86.9505 27.3534 95.4141 21.3079 95.4141 13.8499C95.4141 6.39186 86.9505 0.346375 76.51 0.346375ZM76.51 6.64912C83.7229 6.64912 89.1127 10.4507 89.1127 13.8499C89.1127 17.2491 83.7229 21.0507 76.51 21.0507C69.2971 21.0507 63.9073 17.2491 63.9073 13.8499C63.9073 10.4507 69.2971 6.64912 76.51 6.64912Z" fill="#005BFF"/>
</svg>
