<svg width="38" height="38" viewBox="0 0 38 38" fill="none" xmlns="http://www.w3.org/2000/svg">
<path fill-rule="evenodd" clip-rule="evenodd" d="M0 38H38V0H0V38Z" fill="#001A34"/>
<path fill-rule="evenodd" clip-rule="evenodd" d="M27.7939 21.4404C25.9139 19.6964 26.1659 19.9784 28.4299 16.9614C29.8089 15.1234 30.3589 14.0014 30.1879 13.5204C30.0229 13.0624 29.0099 13.1834 29.0099 13.1834L25.6349 13.2054C25.6349 13.2054 25.3839 13.1704 25.1989 13.2814C25.0179 13.3904 24.8999 13.6434 24.8999 13.6434C24.8999 13.6434 24.3659 15.0654 23.6539 16.2754C22.1509 18.8274 21.5509 18.9614 21.3049 18.8024C20.7329 18.4334 20.8759 17.3204 20.8759 16.5284C20.8759 14.0544 21.2519 13.0244 20.1459 12.7564C19.7789 12.6694 19.5089 12.6104 18.5699 12.6004C17.3659 12.5874 16.3479 12.6044 15.7709 12.8864C15.3869 13.0754 15.0899 13.4944 15.2709 13.5174C15.4939 13.5474 15.9989 13.6544 16.2669 14.0184C16.6119 14.4894 16.6009 15.5454 16.6009 15.5454C16.6009 15.5454 16.7989 18.4574 16.1369 18.8184C15.6819 19.0664 15.0579 18.5604 13.7179 16.2454C13.0309 15.0594 12.5129 13.7484 12.5129 13.7484C12.5129 13.7484 12.4129 13.5034 12.2339 13.3724C12.0189 13.2124 11.7169 13.1634 11.7169 13.1634L8.50892 13.1834C8.50892 13.1834 8.02692 13.1974 7.85092 13.4064C7.69292 13.5924 7.83792 13.9784 7.83792 13.9784C7.83792 13.9784 10.3489 19.8524 13.1919 22.8124C15.7989 25.5274 18.7599 25.3484 18.7599 25.3484H20.1009C20.1009 25.3484 20.5059 25.3034 20.7129 25.0814C20.9029 24.8764 20.8979 24.4924 20.8979 24.4924C20.8979 24.4924 20.8709 22.6914 21.7059 22.4264C22.5299 22.1654 23.5879 24.1664 24.7089 24.9354C25.5569 25.5174 26.1999 25.3904 26.1999 25.3904L29.1979 25.3484C29.1979 25.3484 30.7659 25.2524 30.0229 24.0194C29.9619 23.9184 29.5889 23.1074 27.7939 21.4404Z" fill="white"/>
</svg>
