<svg width="124" height="38" viewBox="0 0 124 38" fill="none" xmlns="http://www.w3.org/2000/svg">
<path fill-rule="evenodd" clip-rule="evenodd" d="M0 38H124V0H0V38Z" fill="#001A34"/>
<path fill-rule="evenodd" clip-rule="evenodd" d="M97.385 27.407H99.075V16.08H97.385V27.407ZM62.23 26.122C61.062 26.122 60.056 25.159 60.056 23.787C60.056 22.4 61.062 21.451 62.23 21.451C63.398 21.451 64.405 22.4 64.405 23.787C64.405 25.159 63.398 26.122 62.23 26.122ZM62.23 19.933C60.1 19.933 58.362 21.553 58.362 23.787C58.362 26.005 60.1 27.64 62.23 27.64C64.361 27.64 66.099 26.005 66.099 23.787C66.099 21.553 64.361 19.933 62.23 19.933ZM53.792 26.122C52.625 26.122 51.617 25.159 51.617 23.787C51.617 22.4 52.625 21.451 53.792 21.451C54.96 21.451 55.967 22.4 55.967 23.787C55.967 25.159 54.96 26.122 53.792 26.122ZM53.792 19.933C51.661 19.933 49.925 21.553 49.925 23.787C49.925 26.005 51.661 27.64 53.792 27.64C55.924 27.64 57.66 26.005 57.66 23.787C57.66 21.553 55.924 19.933 53.792 19.933ZM75.361 27.407H77.054V16.08H75.361V27.407ZM103.023 26.12C102.47 26.12 101.697 25.843 101.697 25.158C101.697 24.284 102.659 23.949 103.49 23.949C104.233 23.949 104.583 24.109 105.034 24.328C104.903 25.377 104 26.12 103.023 26.12ZM103.228 19.913C102.004 19.913 100.736 20.452 100.211 21.646L101.712 22.273C102.033 21.646 102.63 21.442 103.257 21.442C104.131 21.442 105.02 21.967 105.034 22.9V23.016C104.729 22.841 104.073 22.579 103.271 22.579C101.654 22.579 100.008 23.468 100.008 25.129C100.008 26.645 101.333 27.621 102.819 27.621C103.956 27.621 104.583 27.111 104.977 26.513H105.034V27.388H106.667V23.045C106.667 21.035 105.166 19.913 103.228 19.913ZM79.551 23.67C79.507 22.181 80.703 21.422 81.564 21.422C82.236 21.422 82.806 21.758 82.995 22.24L79.551 23.67ZM84.805 22.385C84.483 21.524 83.506 19.933 81.506 19.933C79.521 19.933 77.872 21.495 77.872 23.787C77.872 25.947 79.507 27.64 81.696 27.64C83.462 27.64 84.483 26.56 84.907 25.932L83.594 25.057C83.155 25.699 82.557 26.122 81.696 26.122C80.835 26.122 80.222 25.728 79.827 24.955L84.98 22.823L84.805 22.385ZM70.646 26.122C69.479 26.122 68.501 25.144 68.501 23.801C68.501 22.444 69.479 21.451 70.646 21.451C71.8 21.451 72.704 22.444 72.704 23.801C72.704 25.144 71.8 26.122 70.646 26.122ZM72.588 20.794H72.529C72.149 20.342 71.42 19.933 70.5 19.933C68.574 19.933 66.808 21.626 66.808 23.801C66.808 25.962 68.574 27.64 70.5 27.64C71.42 27.64 72.149 27.231 72.529 26.764H72.588V27.319C72.588 28.793 71.8 29.582 70.529 29.582C69.493 29.582 68.851 28.837 68.589 28.209L67.114 28.823C67.537 29.844 68.661 31.1 70.529 31.1C72.515 31.1 74.193 29.932 74.193 27.085V20.167H72.588V20.794ZM92.78 21.539H90.376V17.656H92.78C94.044 17.656 94.762 18.703 94.762 19.598C94.762 20.476 94.044 21.539 92.78 21.539ZM92.736 16.08H88.686V27.407H90.376V23.115H92.736C94.61 23.115 96.452 21.759 96.452 19.598C96.452 17.437 94.61 16.08 92.736 16.08ZM10.715 29.687C11.061 29.766 11.437 29.73 11.79 29.536L24.386 22.608L21.049 19.254L10.715 29.687ZM112.612 20.16L110.674 25.071H110.615L108.604 20.16H106.783L109.8 27.023L108.08 30.841H109.843L114.491 20.16H112.612ZM43.755 21.116V22.75H47.667C47.55 23.67 47.243 24.341 46.776 24.809C46.207 25.378 45.316 26.005 43.755 26.005C41.347 26.005 39.464 24.064 39.464 21.656C39.464 19.247 41.347 17.306 43.755 17.306C45.054 17.306 46.003 17.817 46.703 18.474L47.856 17.321C46.879 16.386 45.579 15.671 43.755 15.671C40.456 15.671 37.683 18.357 37.683 21.656C37.683 24.955 40.456 27.64 43.755 27.64C45.535 27.64 46.879 27.056 47.93 25.962C49.01 24.881 49.346 23.364 49.346 22.137C49.346 21.758 49.316 21.408 49.258 21.116H43.755ZM29.65 16.983L25.538 14.721L21.731 18.564L25.271 22.122L29.65 19.713C30.722 19.124 30.722 17.572 29.65 16.983ZM24.653 14.234L11.79 7.16C11.312 6.898 10.789 6.921 10.362 7.137L21.047 17.875L24.653 14.234ZM9.67597 7.823C9.57097 8.031 9.50897 8.267 9.50897 8.525V28.171C9.50897 28.56 9.64597 28.9 9.86497 29.164L20.363 18.565L9.67597 7.823Z" fill="white"/>
<mask id="mask0" mask-type="alpha" maskUnits="userSpaceOnUse" x="39" y="7" width="51" height="8">
<path fill-rule="evenodd" clip-rule="evenodd" d="M39 7.00023H89.221V14.693H39V7.00023Z" fill="white"/>
</mask>
<g mask="url(#mask0)">
<path fill-rule="evenodd" clip-rule="evenodd" d="M61.167 13.258L62.83 8.61003H61.897L60.782 12.155H60.712L59.594 8.61003H58.634L60.249 13.09L60.184 13.308C60.112 13.691 59.765 13.959 59.376 13.93C59.28 13.931 59.184 13.927 59.089 13.913V14.673C59.171 14.685 59.38 14.693 59.453 14.693C60.363 14.693 60.786 14.345 61.167 13.258ZM50.518 9.35203H52.576V8.61003H49.637V13.073H50.518V9.35203ZM87.54 12.398H86.496V11.089H87.43C88.024 11.089 88.341 11.299 88.341 11.745C88.341 12.167 88.062 12.398 87.54 12.398ZM86.496 9.28603H87.467C87.935 9.28603 88.156 9.51203 88.156 9.86003C88.156 10.237 87.901 10.442 87.369 10.442H86.496V9.28603ZM88.267 10.757V10.689C88.709 10.591 89.023 10.198 89.021 9.74503C89.021 9.05203 88.508 8.61003 87.635 8.61003H85.623V13.073H87.656C88.636 13.073 89.221 12.566 89.221 11.786C89.228 11.244 88.808 10.792 88.267 10.757ZM69.401 11.681H69.332V8.61003H68.459V13.073H69.332L71.393 9.98703H71.459V13.073H72.332V8.61003H71.459L69.401 11.681ZM74.855 13.073H75.736V9.35203H77.143V8.61003H73.449V9.35203H74.855V13.073ZM65.365 12.405C64.85 12.405 64.481 12.2 64.395 11.807H63.518C63.599 12.708 64.391 13.155 65.365 13.155C66.468 13.155 67.19 12.594 67.19 11.745C67.195 11.237 66.821 10.806 66.316 10.741V10.671C66.738 10.571 67.032 10.191 67.022 9.75703C67.022 9.00303 66.415 8.52403 65.354 8.52403C64.509 8.40703 63.727 8.98803 63.595 9.83103H64.443C64.501 9.47903 64.861 9.27003 65.354 9.27003C65.896 9.27003 66.157 9.52003 66.157 9.84803C66.157 10.221 65.886 10.425 65.354 10.425H64.697V11.111H65.365C65.989 11.111 66.313 11.315 66.313 11.745C66.313 12.147 65.952 12.405 65.365 12.405ZM78.789 10.399C78.798 9.76903 79.315 9.26503 79.945 9.27403C79.979 9.27303 80.015 9.27403 80.049 9.27703C80.642 9.32003 81.087 9.83703 81.043 10.43H78.789V10.399ZM79.952 13.159C80.825 13.254 81.641 12.71 81.888 11.868H81.039C80.828 12.247 80.408 12.461 79.978 12.409C79.939 12.41 79.901 12.408 79.863 12.405C79.215 12.351 78.733 11.779 78.789 11.131V11.081H81.941V10.775C81.941 9.37203 81.19 8.52403 79.948 8.52403C79.852 8.52403 79.754 8.52903 79.658 8.54203C78.53 8.69303 77.74 9.72903 77.891 10.856C77.876 10.966 77.869 11.075 77.872 11.187C77.902 12.306 78.833 13.19 79.952 13.159ZM55.816 9.32703C56.563 9.32703 57.01 9.89703 57.01 10.84C57.01 11.786 56.563 12.357 55.813 12.357C55.074 12.357 54.611 11.775 54.611 10.843C54.611 9.90903 55.074 9.32703 55.816 9.32703ZM54.628 12.398H54.697C54.971 12.894 55.507 13.186 56.071 13.148C57.197 13.148 57.915 12.258 57.915 10.84C57.915 9.42103 57.197 8.53603 56.063 8.53603C55.48 8.52203 54.938 8.83503 54.66 9.34803H54.595V8.61003H53.747V14.558H54.628V12.398ZM41.222 12.398C40.456 12.398 39.936 12.032 39.883 11.467H39C39.002 11.489 39.006 11.512 39.009 11.534C39.155 12.611 40.146 13.363 41.222 13.217C41.236 13.219 41.249 13.22 41.263 13.222C42.349 13.333 43.319 12.544 43.432 11.458C43.461 10.7 42.873 10.062 42.115 10.029V9.95803C42.748 9.81803 43.195 9.25303 43.189 8.60603C43.189 7.66703 42.37 7.01503 41.205 7.01503C41.162 7.00903 41.119 7.00503 41.075 7.00303C40.053 6.94303 39.175 7.72303 39.115 8.74403H39.983C39.984 8.73603 39.986 8.72603 39.987 8.71703C40.067 8.14003 40.601 7.73703 41.177 7.81903C41.873 7.81903 42.284 8.17103 42.284 8.71603C42.283 8.74303 42.281 8.77003 42.277 8.79603C42.209 9.34103 41.713 9.72703 41.168 9.65903H40.378V10.462H41.193C42.018 10.462 42.489 10.823 42.489 11.409C42.489 11.987 41.989 12.398 41.222 12.398ZM47.303 11.43L47.3 11.465C47.24 12.043 46.725 12.464 46.146 12.405C45.667 12.405 45.318 12.172 45.318 11.771C45.318 11.376 45.598 11.167 46.212 11.126L47.303 11.057V11.43ZM46.093 10.479C45.032 10.545 44.433 11.007 44.433 11.811C44.433 11.857 44.436 11.901 44.44 11.946C44.518 12.687 45.181 13.224 45.921 13.148C46.462 13.172 46.974 12.904 47.262 12.446H47.331V13.073H48.181V10.024C48.181 9.08103 47.549 8.52403 46.43 8.52403C45.417 8.52403 44.695 9.01603 44.605 9.78203H45.458C45.557 9.46703 45.896 9.28603 46.389 9.28603C46.991 9.28603 47.303 9.55303 47.303 10.024V10.409L46.093 10.479Z" fill="#FEFEFE"/>
</g>
</svg>
