<svg width="38" height="38" viewBox="0 0 38 38" fill="none" xmlns="http://www.w3.org/2000/svg">
<path fill-rule="evenodd" clip-rule="evenodd" d="M0 38H38V0H0V38Z" fill="#001A34"/>
<path fill-rule="evenodd" clip-rule="evenodd" d="M27.5469 23.2432C27.4999 24.2662 27.3289 24.8222 27.1859 25.1922C26.9949 25.6822 26.7679 26.0322 26.4009 26.3992C26.0319 26.7672 25.6829 26.9952 25.1929 27.1852C24.8219 27.3292 24.2669 27.5002 23.2429 27.5472C22.1359 27.5972 21.8039 27.6082 18.9999 27.6082C16.1959 27.6082 15.8639 27.5972 14.7569 27.5472C13.7339 27.5002 13.1779 27.3292 12.8079 27.1852C12.3179 26.9952 11.9679 26.7672 11.5999 26.3992C11.2329 26.0322 11.0049 25.6822 10.8149 25.1922C10.6709 24.8222 10.4999 24.2662 10.4529 23.2432C10.4019 22.1362 10.3919 21.8042 10.3919 19.0002C10.3919 16.1962 10.4019 15.8642 10.4529 14.7572C10.4999 13.7332 10.6709 13.1782 10.8149 12.8072C11.0049 12.3172 11.2329 11.9682 11.5999 11.5992C11.9679 11.2322 12.3179 11.0052 12.8079 10.8142C13.1779 10.6712 13.7339 10.5002 14.7569 10.4532C15.8639 10.4022 16.1959 10.3912 18.9999 10.3912C21.8039 10.3912 22.1359 10.4022 23.2429 10.4532C24.2669 10.5002 24.8219 10.6712 25.1929 10.8142C25.6829 11.0052 26.0319 11.2322 26.4009 11.5992C26.7679 11.9682 26.9949 12.3172 27.1859 12.8072C27.3289 13.1782 27.4999 13.7332 27.5469 14.7572C27.5979 15.8642 27.6089 16.1962 27.6089 19.0002C27.6089 21.8042 27.5979 22.1362 27.5469 23.2432ZM29.4369 14.6712C29.3859 13.5532 29.2079 12.7902 28.9489 12.1222C28.6809 11.4312 28.3209 10.8462 27.7369 10.2632C27.1539 9.6792 26.5679 9.3192 25.8779 9.0512C25.2099 8.7922 24.4469 8.6142 23.3289 8.5632C22.2089 8.5122 21.8519 8.5002 18.9999 8.5002C16.1489 8.5002 15.7909 8.5122 14.6709 8.5632C13.5529 8.6142 12.7899 8.7922 12.1219 9.0512C11.4319 9.3192 10.8459 9.6792 10.2629 10.2632C9.67888 10.8462 9.31888 11.4312 9.05188 12.1222C8.79188 12.7902 8.61388 13.5532 8.56388 14.6712C8.51188 15.7912 8.49988 16.1482 8.49988 19.0002C8.49988 21.8512 8.51188 22.2092 8.56388 23.3292C8.61388 24.4472 8.79188 25.2102 9.05188 25.8782C9.31888 26.5682 9.67888 27.1542 10.2629 27.7372C10.8459 28.3212 11.4319 28.6802 12.1219 28.9492C12.7899 29.2082 13.5529 29.3862 14.6709 29.4362C15.7909 29.4882 16.1489 29.5002 18.9999 29.5002C21.8519 29.5002 22.2089 29.4882 23.3289 29.4362C24.4469 29.3862 25.2099 29.2082 25.8779 28.9492C26.5679 28.6802 27.1539 28.3212 27.7369 27.7372C28.3209 27.1542 28.6809 26.5682 28.9489 25.8782C29.2079 25.2102 29.3859 24.4472 29.4369 23.3292C29.4879 22.2092 29.4999 21.8512 29.4999 19.0002C29.4999 16.1482 29.4879 15.7912 29.4369 14.6712ZM24.6049 12.1352C23.9089 12.1352 23.3449 12.6992 23.3449 13.3952C23.3449 14.0912 23.9089 14.6552 24.6049 14.6552C25.3009 14.6552 25.8649 14.0912 25.8649 13.3952C25.8649 12.6992 25.3009 12.1352 24.6049 12.1352ZM18.9999 22.5002C17.0679 22.5002 15.4999 20.9322 15.4999 19.0002C15.4999 17.0662 17.0679 15.5002 18.9999 15.5002C20.9329 15.5002 22.4999 17.0662 22.4999 19.0002C22.4999 20.9322 20.9329 22.5002 18.9999 22.5002ZM18.9999 13.6082C16.0229 13.6082 13.6089 16.0222 13.6089 19.0002C13.6089 21.9772 16.0229 24.3912 18.9999 24.3912C21.9779 24.3912 24.3919 21.9772 24.3919 19.0002C24.3919 16.0222 21.9779 13.6082 18.9999 13.6082Z" fill="white"/>
</svg>
