<svg width="124" height="38" viewBox="0 0 124 38" fill="none" xmlns="http://www.w3.org/2000/svg">
<path fill-rule="evenodd" clip-rule="evenodd" d="M0 38H124V0H0V38Z" fill="#001A34"/>
<path fill-rule="evenodd" clip-rule="evenodd" d="M59.998 13.917L61.661 9.269H60.728L59.613 12.814H59.543L58.425 9.269H57.465L59.08 13.749L59.015 13.967C58.943 14.35 58.596 14.618 58.207 14.589C58.111 14.59 58.015 14.586 57.92 14.572V15.332C58.002 15.344 58.211 15.352 58.284 15.352C59.194 15.352 59.617 15.004 59.998 13.917ZM92.363 27.986C90.87 27.986 89.983 26.852 89.983 24.906C89.983 22.979 90.87 21.826 92.363 21.826C93.855 21.826 94.743 22.97 94.743 24.906C94.743 26.852 93.855 27.986 92.363 27.986ZM92.363 20.309C89.769 20.309 88.106 22.083 88.106 24.906C88.106 27.738 89.753 29.505 92.363 29.505C94.975 29.505 96.62 27.738 96.62 24.906C96.62 22.082 94.965 20.309 92.363 20.309ZM49.349 10.011H51.407V9.269H48.468V13.732H49.349V10.011ZM40.519 24.531L42.352 19.131H42.404L44.237 24.531H40.519ZM41.362 17.084L36.918 29.394H38.905L40.032 26.066H44.725L45.85 29.394H47.871L43.427 17.084H41.362ZM53.205 27.926C51.797 27.926 50.851 26.715 50.851 24.906C50.851 23.114 51.797 21.896 53.205 21.896C54.638 21.896 55.576 23.09 55.576 24.906C55.576 26.74 54.638 27.926 53.205 27.926ZM53.69 20.325C52.519 20.287 51.421 20.896 50.833 21.911H50.799V20.419H49.016V32.363H50.858V27.917H50.9C51.463 28.938 52.56 29.549 53.725 29.487C55.977 29.487 57.47 27.695 57.47 24.906C57.47 22.125 55.969 20.325 53.69 20.325ZM85.411 18.295H83.56V20.419H82.255V21.878H83.56V27.021C83.56 28.762 84.269 29.445 86.086 29.445C86.43 29.451 86.771 29.423 87.109 29.359V27.91C86.908 27.935 86.706 27.949 86.503 27.952C85.753 27.952 85.411 27.594 85.411 26.825V21.878H87.118V20.419H85.411V18.295ZM77.86 22.441L76.504 22.107C74.918 21.716 74.269 21.203 74.269 20.333C74.269 19.241 75.284 18.491 76.768 18.491C78.252 18.491 79.268 19.232 79.379 20.461H81.238C81.18 18.338 79.396 16.879 76.794 16.879C74.166 16.879 72.314 18.338 72.314 20.461C72.314 22.177 73.364 23.234 75.625 23.779L77.22 24.164C78.816 24.557 79.489 25.129 79.489 26.084C79.489 27.185 78.372 27.986 76.819 27.986C75.199 27.986 74.014 27.185 73.877 25.964H71.991C72.11 28.19 73.953 29.599 76.684 29.599C79.601 29.599 81.435 28.156 81.435 25.854C81.435 24.053 80.386 23.038 77.86 22.441ZM86.371 13.057H85.327V11.748H86.261C86.855 11.748 87.172 11.958 87.172 12.404C87.172 12.826 86.893 13.057 86.371 13.057ZM85.327 9.945H86.298C86.766 9.945 86.987 10.171 86.987 10.519C86.987 10.896 86.732 11.101 86.2 11.101H85.327V9.945ZM87.098 11.416V11.348C87.54 11.25 87.854 10.857 87.852 10.404C87.852 9.711 87.339 9.269 86.466 9.269H84.454V13.732H86.487C87.467 13.732 88.052 13.225 88.052 12.445C88.059 11.903 87.639 11.451 87.098 11.416ZM63.082 27.926C61.676 27.926 60.728 26.715 60.728 24.906C60.728 23.114 61.676 21.896 63.082 21.896C64.516 21.896 65.454 23.09 65.454 24.906C65.454 26.74 64.516 27.926 63.082 27.926ZM63.568 20.325C62.396 20.287 61.299 20.896 60.711 21.911H60.677V20.419H58.894V32.363H60.736V27.917H60.778C61.341 28.938 62.438 29.549 63.602 29.487C65.855 29.487 67.349 27.695 67.349 24.906C67.349 22.125 65.847 20.325 63.568 20.325ZM68.232 12.34H68.163V9.269H67.29V13.732H68.163L70.224 10.646H70.29V13.732H71.163V9.269H70.29L68.232 12.34ZM73.686 13.732H74.567V10.011H75.974V9.269H72.28V10.011H73.686V13.732ZM27.344 19.287C27.365 17.605 28.247 16.052 29.68 15.171C28.771 13.874 27.305 13.081 25.723 13.031C24.059 12.857 22.444 14.028 21.597 14.028C20.731 14.028 19.426 13.05 18.019 13.078C16.169 13.139 14.485 14.165 13.586 15.782C11.668 19.102 13.098 23.98 14.935 26.663C15.853 27.977 16.928 29.444 18.333 29.393C19.708 29.336 20.221 28.516 21.881 28.516C23.525 28.516 24.007 29.393 25.44 29.359C26.916 29.336 27.846 28.039 28.732 26.713C29.393 25.777 29.9 24.742 30.237 23.647C28.484 22.907 27.346 21.189 27.344 19.287ZM64.196 13.064C63.681 13.064 63.312 12.859 63.226 12.466H62.349C62.43 13.367 63.222 13.814 64.196 13.814C65.299 13.814 66.021 13.253 66.021 12.404C66.026 11.896 65.652 11.465 65.147 11.4V11.33C65.569 11.23 65.863 10.85 65.853 10.416C65.853 9.662 65.246 9.183 64.185 9.183C63.34 9.066 62.558 9.647 62.426 10.49H63.274C63.332 10.138 63.692 9.929 64.185 9.929C64.727 9.929 64.988 10.179 64.988 10.507C64.988 10.88 64.717 11.084 64.185 11.084H63.528V11.77H64.196C64.82 11.77 65.144 11.974 65.144 12.404C65.144 12.806 64.783 13.064 64.196 13.064ZM77.62 11.058C77.629 10.428 78.146 9.924 78.776 9.933C78.81 9.932 78.846 9.933 78.88 9.936C79.473 9.979 79.918 10.496 79.874 11.089H77.62V11.058ZM78.783 13.818C79.656 13.913 80.472 13.369 80.719 12.527H79.87C79.659 12.906 79.239 13.12 78.809 13.068C78.77 13.069 78.732 13.067 78.694 13.064C78.046 13.01 77.564 12.438 77.62 11.79V11.74H80.772V11.434C80.772 10.031 80.021 9.183 78.779 9.183C78.683 9.183 78.585 9.188 78.489 9.201C77.361 9.352 76.571 10.388 76.722 11.515C76.707 11.625 76.7 11.734 76.703 11.846C76.733 12.965 77.664 13.849 78.783 13.818ZM104.995 24.06C105.003 22.805 106.026 21.794 107.28 21.801C107.337 21.8 107.393 21.801 107.447 21.804C108.638 21.87 109.549 22.889 109.482 24.079H104.995V24.06ZM111.325 25.366V24.735C111.325 22.014 109.764 20.309 107.28 20.309C104.756 20.309 103.127 22.135 103.127 24.949C103.127 27.756 104.747 29.505 107.358 29.505C109.389 29.505 110.976 28.387 111.223 26.758H109.474C109.138 27.59 108.295 28.104 107.401 28.02C107.303 28.023 107.206 28.021 107.108 28.013C105.823 27.898 104.872 26.764 104.986 25.478V25.366H111.325ZM54.647 9.986C55.394 9.986 55.841 10.556 55.841 11.499C55.841 12.445 55.394 13.016 54.644 13.016C53.905 13.016 53.442 12.434 53.442 11.502C53.442 10.568 53.905 9.986 54.647 9.986ZM53.459 13.057H53.528C53.802 13.553 54.338 13.845 54.902 13.807C56.028 13.807 56.746 12.917 56.746 11.499C56.746 10.08 56.028 9.195 54.894 9.195C54.311 9.181 53.769 9.494 53.491 10.007H53.426V9.269H52.578V15.217H53.459V13.057ZM40.053 13.057C39.287 13.057 38.767 12.691 38.714 12.126H37.831C37.833 12.148 37.837 12.171 37.84 12.193C37.986 13.27 38.977 14.022 40.053 13.876C40.067 13.878 40.08 13.879 40.094 13.881C41.18 13.992 42.15 13.203 42.263 12.117C42.292 11.359 41.704 10.721 40.946 10.688V10.617C41.579 10.477 42.026 9.912 42.02 9.265C42.02 8.326 41.201 7.674 40.036 7.674C39.993 7.668 39.95 7.664 39.906 7.662C38.884 7.602 38.006 8.382 37.946 9.403H38.814C38.815 9.395 38.817 9.385 38.818 9.376C38.898 8.799 39.432 8.396 40.008 8.478C40.704 8.478 41.115 8.83 41.115 9.375C41.114 9.402 41.112 9.429 41.108 9.455C41.04 10 40.544 10.386 39.999 10.318H39.209V11.121H40.024C40.849 11.121 41.32 11.482 41.32 12.068C41.32 12.646 40.82 13.057 40.053 13.057ZM25.74 7.807C24.512 7.936 23.376 8.523 22.56 9.452C21.756 10.368 21.348 11.567 21.427 12.784C22.673 12.798 23.855 12.238 24.635 11.268C25.439 10.302 25.836 9.061 25.74 7.807ZM46.134 12.089L46.131 12.124C46.071 12.702 45.556 13.123 44.977 13.064C44.498 13.064 44.149 12.831 44.149 12.43C44.149 12.035 44.429 11.826 45.043 11.785L46.134 11.716V12.089ZM44.924 11.138C43.863 11.204 43.264 11.666 43.264 12.47C43.264 12.516 43.267 12.56 43.271 12.605C43.349 13.346 44.012 13.883 44.752 13.807C45.293 13.831 45.805 13.563 46.093 13.105H46.162V13.732H47.012V10.683C47.012 9.74 46.38 9.183 45.261 9.183C44.248 9.183 43.526 9.675 43.436 10.441H44.289C44.388 10.126 44.727 9.945 45.22 9.945C45.822 9.945 46.134 10.212 46.134 10.683V11.068L44.924 11.138ZM99.939 21.946H99.896V20.419H98.14V29.394H99.981V24.07C99.971 23.976 99.967 23.88 99.971 23.785C100.013 22.761 100.877 21.964 101.901 22.006C102.182 21.997 102.461 22.034 102.729 22.116V20.394C102.522 20.348 102.31 20.324 102.098 20.325C101.085 20.286 100.185 20.963 99.939 21.946Z" fill="white"/>
</svg>
