<svg width="40" height="40" viewBox="0 0 40 40" fill="none" xmlns="http://www.w3.org/2000/svg">
<path d="M19.1499 26.6667C20.6166 26.6667 21.9833 26.2334 23.1333 25.5001L27.1999 29.5667L29.5666 27.2001L25.4999 23.1501C26.2333 21.9834 26.6666 20.6334 26.6666 19.1667C26.6666 15.0167 23.3166 11.6667 19.1666 11.6667C15.0166 11.6667 11.6666 15.0167 11.6666 19.1667C11.6666 23.3167 15.0166 26.6667 19.1499 26.6667ZM19.1666 15.0001C21.4666 15.0001 23.3333 16.8667 23.3333 19.1667C23.3333 21.4667 21.4666 23.3334 19.1666 23.3334C16.8666 23.3334 14.9999 21.4667 14.9999 19.1667C14.9999 16.8667 16.8666 15.0001 19.1666 15.0001ZM33.3333 6.66675H6.66659C4.83325 6.66675 3.33325 8.16675 3.33325 10.0001V30.0001C3.33325 31.8334 4.83325 33.3334 6.66659 33.3334H33.3333C35.1666 33.3334 36.6666 31.8334 36.6666 30.0001V10.0001C36.6666 8.16675 35.1666 6.66675 33.3333 6.66675ZM33.3333 30.0001H6.66659V10.0001H33.3333V30.0001Z" fill="#484848"/>
</svg>
