<svg width="40" height="40" viewBox="0 0 40 40" fill="none" xmlns="http://www.w3.org/2000/svg">
<g clip-path="url(#clip0)">
<path d="M35.6669 20.3667C35.6669 11.2167 28.5669 5 20.6669 5C12.8502 5 5.66691 11.0833 5.66691 20.4667C4.66691 21.0333 4.00024 22.1 4.00024 23.3333V26.6667C4.00024 28.5 5.50024 30 7.33358 30H9.00024V19.8333C9.00024 13.3833 14.2169 8.16667 20.6669 8.16667C27.1169 8.16667 32.3336 13.3833 32.3336 19.8333V31.6667H19.0002V35H32.3336C34.1669 35 35.6669 33.5 35.6669 31.6667V29.6333C36.6502 29.1167 37.3336 28.1 37.3336 26.9V23.0667C37.3336 21.9 36.6502 20.8833 35.6669 20.3667Z" fill="#484848"/>
<path d="M15.6669 23.3333C16.5874 23.3333 17.3336 22.5871 17.3336 21.6667C17.3336 20.7462 16.5874 20 15.6669 20C14.7464 20 14.0002 20.7462 14.0002 21.6667C14.0002 22.5871 14.7464 23.3333 15.6669 23.3333Z" fill="#484848"/>
<path d="M25.6669 23.3333C26.5874 23.3333 27.3336 22.5871 27.3336 21.6667C27.3336 20.7462 26.5874 20 25.6669 20C24.7464 20 24.0002 20.7462 24.0002 21.6667C24.0002 22.5871 24.7464 23.3333 25.6669 23.3333Z" fill="#484848"/>
<path d="M30.6673 18.3833C29.8673 13.6333 25.7339 10 20.7506 10C15.7006 10 10.2673 14.1833 10.7006 20.75C14.8173 19.0667 17.9173 15.4 18.8006 10.9333C20.9839 15.3167 25.4673 18.3333 30.6673 18.3833Z" fill="#484848"/>
</g>
<defs>
<clipPath id="clip0">
<rect width="40" height="40" fill="white"/>
</clipPath>
</defs>
</svg>
