<svg width="40" height="40" viewBox="0 0 40 40" fill="none" xmlns="http://www.w3.org/2000/svg">
<path d="M18.3333 39.3167V33.3167C9.98325 32.8834 3.33325 25.9501 3.33325 17.5001C3.33325 8.76675 10.4333 1.66675 19.1666 1.66675C27.8999 1.66675 34.9999 8.76675 34.9999 17.5001C34.9999 25.7501 29.2666 34.0501 20.7166 38.1667L18.3333 39.3167ZM19.1666 5.00008C12.2666 5.00008 6.66659 10.6001 6.66659 17.5001C6.66659 24.4001 12.2666 30.0001 19.1666 30.0001H21.6666V33.8334C27.7333 30.0001 31.6666 23.7001 31.6666 17.5001C31.6666 10.6001 26.0666 5.00008 19.1666 5.00008ZM17.4999 24.1667H20.8333V27.5001H17.4999V24.1667ZM20.8333 21.6667H17.4999C17.4999 16.2501 22.4999 16.6667 22.4999 13.3334C22.4999 11.5001 20.9999 10.0001 19.1666 10.0001C17.3333 10.0001 15.8333 11.5001 15.8333 13.3334H12.4999C12.4999 9.65008 15.4833 6.66675 19.1666 6.66675C22.8499 6.66675 25.8333 9.65008 25.8333 13.3334C25.8333 17.5001 20.8333 17.9167 20.8333 21.6667Z" fill="#484848"/>
</svg>
