<svg width="40" height="40" viewBox="0 0 40 40" fill="none" xmlns="http://www.w3.org/2000/svg">
<path d="M26.3663 12.0333L24.6996 12.7C24.3496 12.4333 23.9829 12.2167 23.5829 12.05L23.3329 10.2833C23.2996 10.1167 23.1663 10 22.9996 10H20.3329C20.1663 10 20.0329 10.1167 20.0163 10.2833L19.7663 12.05C19.3663 12.2167 18.9829 12.4333 18.6496 12.7L16.9829 12.0333C16.8329 11.9833 16.6496 12.0333 16.5829 12.1833L15.2496 14.4833C15.1663 14.6333 15.1996 14.8167 15.3329 14.9167L16.7496 16.0167C16.6996 16.2167 16.6663 16.45 16.6663 16.6667C16.6663 16.8833 16.6829 17.1 16.7163 17.3167L15.3163 18.4167C15.1829 18.5167 15.1496 18.7 15.2329 18.8333L16.5663 21.15C16.6496 21.3 16.8163 21.35 16.9829 21.3L18.6329 20.6333C18.9829 20.9 19.3496 21.1167 19.7663 21.2833L19.9996 23.05C20.0329 23.2167 20.1663 23.3333 20.3329 23.3333H22.9996C23.1663 23.3333 23.2996 23.2167 23.3329 23.05L23.5829 21.2833C23.9829 21.1167 24.3663 20.9 24.6996 20.6333L26.3496 21.3C26.4996 21.3667 26.6829 21.3 26.7496 21.15L28.0829 18.8333C28.1663 18.6833 28.1329 18.5167 27.9996 18.4167L26.6163 17.3167C26.6496 17.1 26.6663 16.8833 26.6663 16.6667C26.6663 16.4333 26.6496 16.2167 26.6163 16.0167L28.0329 14.9167C28.1663 14.8167 28.1996 14.6333 28.1163 14.4833L26.7829 12.1833C26.6996 12.0333 26.5163 11.9833 26.3663 12.0333ZM21.6663 19.05C20.3496 19.05 19.2829 17.9833 19.2829 16.6667C19.2829 15.35 20.3496 14.2833 21.6663 14.2833C22.9829 14.2833 24.0496 15.35 24.0496 16.6667C24.0496 17.9833 22.9829 19.05 21.6663 19.05Z" fill="#EA9662"/>
<path d="M33.2332 15.1C32.5165 9.65 27.8498 5.33333 22.3498 5.01667C22.1165 5 21.8998 5 21.6665 5C15.7832 5 10.9498 9.35 10.1332 15L6.91649 20.8C6.23316 21.9 7.03316 23.3333 8.33316 23.3333H9.99983V26.6667C9.99983 28.5 11.4998 30 13.3332 30H14.9998V35H26.6665V27.2C31.0332 25.1167 33.9165 20.4 33.2332 15.1ZM24.8165 24.3833L23.3332 25.0833V31.6667H18.3332V26.6667H13.3332V20H11.1665L13.3832 16.1167C13.6832 11.7667 17.2498 8.33333 21.6665 8.33333C26.2665 8.33333 29.9998 12.0667 29.9998 16.6667C29.9998 20.15 27.8498 23.1333 24.8165 24.3833Z" fill="#EA9662"/>
</svg>
