<svg width="92" height="92" viewBox="0 0 92 92" fill="none" xmlns="http://www.w3.org/2000/svg">
<path d="M90.6523 51.1912C91.3968 51.1912 92 50.5878 92 49.8435V46.5445C92 41.7976 88.1382 37.9356 83.3912 37.9356H82.3926C84.5015 36.027 85.8286 33.2699 85.8286 30.2083C85.8286 24.4609 81.1528 19.785 75.4053 19.785C69.6578 19.785 64.982 24.4609 64.982 30.2083C64.982 33.2699 66.3092 36.027 68.418 37.9356H67.4189C64.1917 37.9356 61.2819 39.7293 59.8081 42.5148C59.6268 42.4582 59.444 42.4046 59.2593 42.3552L52.0673 40.429V36.6C55.4728 34.5674 57.7782 30.8798 57.8693 26.6552H59.4324C61.7769 26.6552 63.6843 24.7478 63.6843 22.4033C63.6843 20.3978 62.2881 18.7132 60.4169 18.2677V14.5982C60.4165 6.54871 53.868 0 45.8185 0C37.7691 0 31.2203 6.54871 31.2203 14.5982V18.3716C29.5345 18.9365 28.3161 20.5298 28.3161 22.4033C28.3161 24.7476 30.2234 26.6552 32.568 26.6552H34.1311C34.2222 30.8797 36.5274 34.5674 39.933 36.6V40.429L32.7407 42.3552C32.5561 42.4048 32.3734 42.4582 32.1923 42.5148C30.7185 39.7294 27.8086 37.9356 24.5814 37.9356H23.5824C25.6912 36.027 27.0184 33.2699 27.0184 30.2083C27.0184 24.4609 22.3425 19.785 16.595 19.785C10.8476 19.785 6.17173 24.4609 6.17173 30.2083C6.17173 33.2699 7.4989 36.027 9.60771 37.9356H8.60883C3.86184 37.9356 0 41.7975 0 46.5445V49.8435C0 50.5878 0.603211 51.1912 1.34766 51.1912C2.0921 51.1912 2.69531 50.5878 2.69531 49.8435V46.5445C2.69531 43.2838 5.34822 40.6309 8.60883 40.6309H24.5813C26.7179 40.6309 28.6485 41.7777 29.6925 43.573C25.2367 45.9887 22.3262 50.6978 22.3262 55.9295V63.1673H2.69531V56.1326C2.69531 55.3883 2.0921 54.7849 1.34766 54.7849C0.603211 54.7849 0 55.3883 0 56.1326V64.515C0 65.2593 0.603211 65.8627 1.34766 65.8627H31.6705C30.5692 67.5812 29.7631 69.5153 29.3394 71.6033C29.1915 72.3328 29.6628 73.044 30.3922 73.1921C31.1212 73.3398 31.8331 72.8689 31.981 72.1395C33.3268 65.507 39.2227 60.693 46.0002 60.693C53.8879 60.693 60.3051 67.1109 60.3051 74.9998C60.3051 82.8875 53.8879 89.3047 46.0002 89.3047C39.2225 89.3047 33.3266 84.4916 31.981 77.86C31.8331 77.1305 31.1212 76.6595 30.3922 76.8074C29.6626 76.9555 29.1913 77.6667 29.3394 78.3962C30.939 86.2787 37.9457 92 46 92C55.3739 92 63.0002 84.3737 63.0002 74.9998C63.0002 71.6391 62.02 68.5032 60.3308 65.8627H90.6523C91.3968 65.8627 92 65.2593 92 64.515V56.1326C92 55.3883 91.3968 54.7849 90.6523 54.7849C89.9079 54.7849 89.3047 55.3883 89.3047 56.1326V63.1673H69.6738V55.9295C69.6738 50.6979 66.7634 45.9889 62.3075 43.573C63.3515 41.7777 65.2821 40.6309 67.4188 40.6309H83.3912C86.6518 40.6309 89.3047 43.2837 89.3047 46.5445V49.8435C89.3047 50.5878 89.9079 51.1912 90.6523 51.1912ZM8.86686 30.2083C8.86686 25.9472 12.3336 22.4803 16.5949 22.4803C20.8561 22.4803 24.3229 25.9471 24.3229 30.2083C24.3229 34.4603 20.8711 37.9207 16.6225 37.9356H16.5672C12.3187 37.9205 8.86686 34.4603 8.86686 30.2083ZM43.1397 46.8109L41.8352 47.898C41.2282 48.4039 40.4477 48.5591 39.6928 48.3232C38.9386 48.0874 38.385 47.5153 38.1741 46.7536L37.3842 43.9018L40.1749 43.1543C40.634 44.7325 41.7173 46.0471 43.1397 46.8109ZM51.8251 43.1545L54.6158 43.9018L53.8259 46.7536C53.6152 47.5153 53.0615 48.0872 52.3074 48.323C51.5525 48.5588 50.772 48.4037 50.165 47.8979L48.8604 46.8107C50.2827 46.0471 51.366 44.7325 51.8251 43.1545ZM60.9886 22.4033C60.9886 23.2614 60.2902 23.9599 59.432 23.9599H57.8755V20.8468H59.069H59.4322C60.2902 20.8466 60.9886 21.5449 60.9886 22.4033ZM33.9157 14.5982C33.9157 8.03491 39.2552 2.69531 45.8185 2.69531C52.3816 2.69531 57.7212 8.03491 57.7212 14.5982V18.1513H53.2605C52.0017 18.1513 50.9779 17.1273 50.9779 15.8687C50.9779 15.1245 50.3747 14.5211 49.6302 14.5211C48.8858 14.5211 48.2826 15.1245 48.2826 15.8687C48.2826 17.1273 47.2587 18.1513 46 18.1513H33.9157V14.5982ZM31.0114 22.4033C31.0114 21.5451 31.7098 20.8466 32.568 20.8466H34.1245V23.9597H32.568C31.7098 23.9597 31.0114 23.2614 31.0114 22.4033ZM36.8198 26.3965V20.8466H46C47.4301 20.8466 48.7215 20.2404 49.6302 19.2713C50.5391 20.2404 51.8303 20.8466 53.2605 20.8466H55.1802V26.3965C55.1802 31.4584 51.062 35.5765 46 35.5765C40.938 35.5765 36.8198 31.4584 36.8198 26.3965ZM46 38.272C47.1712 38.272 48.3022 38.0988 49.3718 37.7815V41.4622C49.3718 43.3214 47.8592 44.8338 46 44.8338C44.1408 44.8338 42.6282 43.3214 42.6282 41.4622V37.7815C43.6978 38.0988 44.8288 38.272 46 38.272ZM66.9785 55.9295V63.1673H58.1952C55.1035 59.9811 50.7793 57.9977 46 57.9977C41.2857 57.9977 36.9321 59.9603 33.8096 63.1673H25.0215V55.9295C25.0215 50.7991 28.4828 46.2877 33.4382 44.9587L34.7805 44.5992L35.5763 47.4729C36.0295 49.1093 37.2677 50.389 38.8885 50.8956C39.3796 51.049 39.8822 51.1241 40.3808 51.1241C41.5272 51.1241 42.6515 50.7261 43.5607 49.9684L46 47.9358L48.4393 49.9686C49.3488 50.7263 50.4726 51.1243 51.6192 51.1243C52.1176 51.1243 52.6202 51.0492 53.1115 50.8958C54.7323 50.389 55.9703 49.1095 56.4235 47.4731L57.2195 44.5992L58.5616 44.9585C63.5172 46.2877 66.9785 50.7991 66.9785 55.9295ZM67.6773 30.2083C67.6773 25.9472 71.144 22.4803 75.4053 22.4803C79.6666 22.4803 83.1333 25.9471 83.1333 30.2083C83.1333 34.4603 79.6815 37.9207 75.433 37.9356H75.3776C71.1291 37.9205 67.6773 34.4603 67.6773 30.2083Z" fill="#484848"/>
<path d="M44.1179 82.9809C45.3247 82.9809 46.4591 82.5111 47.3126 81.6577L54.2476 74.7227C56.0091 72.9612 56.0091 70.0948 54.2474 68.3332C52.4858 66.5717 49.6196 66.5721 47.8579 68.3332L44.1179 72.0736C42.3543 70.3367 39.5064 70.3448 37.7529 72.098C35.9916 73.8595 35.9916 76.7257 37.7529 78.4873L40.9234 81.6577C41.7768 82.5111 42.9113 82.9809 44.1179 82.9809ZM39.6588 74.0041C40.0144 73.6487 40.4811 73.4712 40.9479 73.4712C41.4147 73.4712 41.8814 73.6489 42.2366 74.0039L43.165 74.9326C43.4177 75.1854 43.7605 75.3273 44.1181 75.3273C44.4757 75.3273 44.8182 75.1854 45.0712 74.9326L49.7641 70.2393C50.4747 69.5288 51.6312 69.5283 52.3419 70.2393C53.0525 70.95 53.0525 72.1063 52.3419 72.8169L45.407 79.7518C45.0627 80.0961 44.6049 80.2856 44.1181 80.2856C43.6313 80.2856 43.1735 80.0961 42.8294 79.752L39.659 76.5817C38.9483 75.8711 38.9483 74.7146 39.6588 74.0041Z" fill="#484848"/>
</svg>
