<svg width="92" height="92" viewBox="0 0 92 92" fill="none" xmlns="http://www.w3.org/2000/svg">
<g clip-path="url(#clip0)">
<path d="M54.0459 54.1169C54.7899 54.1169 55.3929 53.5139 55.3929 52.7699V50.5323C55.3929 49.7882 54.7899 49.1853 54.0459 49.1853C53.3012 49.1853 52.6982 49.7882 52.6982 50.5323V52.7699C52.6982 53.5139 53.3012 54.1169 54.0459 54.1169Z" fill="#484848"/>
<path d="M31.8354 54.1169C32.5795 54.1169 33.1831 53.5139 33.1831 52.7699V50.5323C33.1831 49.7882 32.5795 49.1853 31.8354 49.1853C31.0914 49.1853 30.4878 49.7882 30.4878 50.5323V52.7699C30.4878 53.5139 31.0914 54.1169 31.8354 54.1169Z" fill="#484848"/>
<path d="M45.7268 51.0369C45.4994 50.8873 44.4907 50.4992 43.8611 51.4236C43.5593 51.8665 43.1192 51.9198 42.9409 51.9198C42.762 51.9198 42.3148 51.8714 42.02 51.4236C41.6115 50.801 40.7763 50.6283 40.1544 51.0369C39.5325 51.4454 39.3591 52.2806 39.7676 52.9025C40.4716 53.975 41.6579 54.6152 42.9409 54.6152C44.2233 54.6152 45.4095 53.975 46.1135 52.9025C46.5221 52.2806 46.3487 51.4454 45.7268 51.0369Z" fill="#484848"/>
<path d="M31.8355 58.416C35.5662 58.416 38.6005 55.381 38.6005 51.6511C38.6005 50.6186 38.3675 49.6401 37.9519 48.7642C41.0508 47.0768 44.8299 47.0775 47.9288 48.7656C47.514 49.6415 47.2809 50.6193 47.2809 51.6511C47.2809 55.381 50.3153 58.416 54.0459 58.416C57.7758 58.416 60.8108 55.381 60.8108 51.6511C60.8108 47.9212 57.7758 44.8861 54.0459 44.8861C52.3262 44.8861 50.7554 45.5326 49.5607 46.5932C45.4862 44.2109 40.3946 44.2102 36.32 46.5918C35.1254 45.5319 33.5552 44.8861 31.8362 44.8861C28.1063 44.8861 25.0713 47.9212 25.0713 51.6511C25.0706 55.381 28.1056 58.416 31.8355 58.416ZM54.0459 47.5814C56.2899 47.5814 58.1155 49.4071 58.1155 51.6511C58.1155 53.8951 56.2899 55.7207 54.0459 55.7207C51.8019 55.7207 49.9763 53.8951 49.9763 51.6511C49.9763 49.4071 51.8019 47.5814 54.0459 47.5814ZM31.8355 47.5814C34.0795 47.5814 35.9059 49.4071 35.9059 51.6511C35.9059 53.8951 34.0802 55.7207 31.8355 55.7207C29.5916 55.7207 27.7659 53.8951 27.7659 51.6511C27.7659 49.4071 29.5916 47.5814 31.8355 47.5814Z" fill="#484848"/>
<path d="M90.04 72.426C89.5971 68.7824 86.9011 65.7635 83.3312 64.9135C82.8314 64.7949 82.4377 64.4474 82.3036 64.0081C81.3174 60.7723 78.3807 58.5978 74.9961 58.5978C72.3632 58.5978 70.5453 60.0451 70.0112 60.6628C68.8488 59.2807 67.3397 58.9473 66.9888 58.854C67.0709 58.6301 67.1488 58.4048 67.2225 58.1787C72.2643 58.1605 76.1086 54.3309 76.1086 49.5916C76.1086 44.8531 72.2537 40.9975 67.5152 40.9975C58.3287 40.9975 51.0815 39.6344 45.3715 36.3502C54.2485 29.4758 56.9719 19.4835 57.8015 13.9258C58.3181 10.4696 57.1586 6.97552 54.7504 4.56448C61.5167 6.84076 68.7646 11.778 72.1611 22.2827C73.6821 26.9854 75.2958 30.7532 76.7193 34.0775C80.087 41.9395 82.3113 47.1329 80.2421 56.9237C80.0884 57.6523 80.5559 58.3584 81.2816 58.5213C82.1043 58.7052 82.7451 58.1156 82.8792 57.481C85.1246 46.8563 82.6384 41.0509 79.197 33.0162C77.796 29.7453 76.2083 26.0385 74.7259 21.453C72.1843 13.5931 67.398 7.75394 60.499 4.09772C54.1095 0.711029 47.4246 0 42.9415 0C38.3412 0 32.5758 0.647156 26.5787 3.50461C25.9063 3.82397 25.6213 4.62836 25.9414 5.30008C26.2615 5.9718 27.0658 6.25748 27.7376 5.93741C33.35 3.26315 39.1028 2.70233 42.9408 2.70233C46.496 2.70233 49.6307 3.79169 52.2593 5.93951C54.4633 7.7413 55.566 10.6493 55.1357 13.5271C54.4289 18.2621 52.5064 25.1071 47.3628 30.8297C41.052 37.8502 32.2663 41.034 19.1315 41.034C13.8076 41.034 9.77373 44.8531 9.77373 49.5916C9.77373 54.3302 13.2299 58.416 18.6647 58.178C19.0887 59.4745 19.639 60.714 20.3016 61.882C19.1975 62.2484 18.1825 62.7102 17.2722 63.2682C16.0473 64.0179 15.3539 65.3269 15.4163 66.7679C15.4542 67.6376 15.7771 68.4525 16.3092 69.1032C14.5488 71.5753 13.5907 74.5464 13.5907 77.6068V82.3404C13.5907 85.075 14.7348 87.5457 16.5675 89.3054H10.4974C8.73772 89.3054 7.12193 88.4989 6.06346 87.0937C5.00078 85.6829 4.67229 83.8986 5.16081 82.1979C5.3777 81.4427 5.61424 80.6825 5.84236 79.9476C7.43147 74.8321 9.07393 69.5426 6.47127 60.2845C3.0916 48.2608 5.50685 42.621 9.16377 34.0845C10.5872 30.7603 12.2009 26.9924 13.7212 22.2897C15.582 16.5355 18.7707 11.9492 23.1998 8.65729C23.7971 8.21368 23.9213 7.36929 23.4777 6.77197C23.0334 6.17465 22.189 6.05042 21.5924 6.49402C16.7043 10.1271 13.1934 15.1625 11.1572 21.4607C9.67476 26.0456 8.08705 29.7523 6.68605 33.0232C2.9435 41.7605 0.239058 48.0741 3.87703 61.0137C6.2635 69.5047 4.80845 74.1885 3.26848 79.1474C3.03615 79.8964 2.79539 80.6706 2.57078 81.4532C1.84572 83.9744 2.33424 86.6213 3.91072 88.7151C5.48299 90.8026 7.8835 92 10.4974 92H78.1933C81.0823 91.967 83.6316 90.4551 85.1877 87.8524C86.228 86.1124 86.6133 84.0544 86.2736 82.0575C86.1585 81.3837 86.4105 80.6958 86.9306 80.2621C89.2391 78.3367 90.4022 75.407 90.04 72.426ZM73.4133 49.5916C73.4133 52.7144 70.9742 55.2771 67.9005 55.4764C68.1097 54.3007 68.2171 53.1019 68.2171 51.8841V43.7357C71.1398 44.0845 73.4133 46.577 73.4133 49.5916ZM42.9534 38.0418C48.961 41.823 56.5409 43.7357 65.5141 43.7357C65.5169 43.7357 65.5197 43.735 65.5218 43.735V51.8841C65.5218 54.2347 65.069 56.5054 64.1769 58.6448C61.158 58.9747 58.6207 61.046 57.718 64.0081C57.5839 64.4474 57.1902 64.7949 56.6904 64.9135C54.2429 65.4961 52.2067 67.0985 51.0253 69.2218C50.0013 69.405 48.9561 69.4984 47.9082 69.4984H37.9741C28.2619 69.4984 20.3598 61.597 20.3598 51.8841V43.7427H20.3844C30.2672 43.7427 37.5635 41.4425 42.9534 38.0418ZM34.6948 71.9276C35.7624 72.1017 42.9415 72.5762 50.0308 72.0828C50.0125 72.1965 49.9332 72.9587 49.9255 73.2248C49.4496 74.1618 49.0123 75.0918 48.6122 76.0078C46.8188 76.5034 44.9146 76.756 42.9408 76.756C40.7453 76.756 38.5694 76.4276 36.6054 75.8092C36.0418 74.5352 35.408 73.2332 34.6948 71.9276ZM12.4683 49.5916C12.4683 46.577 14.7425 44.0845 17.6652 43.7357V51.8841C17.6652 53.1096 17.774 54.3105 17.9832 55.4764C14.9089 55.2778 12.4683 52.7151 12.4683 49.5916ZM16.286 82.3404V77.6068C16.286 75.0848 17.082 72.6366 18.5454 70.6081L22.0311 72.3474C22.0311 72.3474 19.7808 74.9388 20.9501 78.0384C21.4913 79.4717 22.4445 80.6656 23.8195 81.3332C26.8539 82.8051 30.6561 85.3326 32.6221 89.3047H23.2503C19.4102 89.3047 16.286 86.1805 16.286 82.3404ZM35.568 89.3047C33.4686 83.9576 28.7174 80.7141 24.9966 78.9088C24.2856 78.5641 23.7592 77.9584 23.5135 77.2039C23.265 76.4416 23.3359 75.6316 23.7128 74.9241L25.0605 72.393C25.2311 72.0722 25.681 71.1289 24.4723 70.554L18.8016 67.7239C18.3882 67.5176 18.1292 67.1161 18.1088 66.6514C18.0997 66.4359 18.1362 65.899 18.6802 65.5663C19.6004 65.002 20.668 64.5541 21.857 64.2256C24.1873 67.2614 27.3529 69.624 31.0091 70.9632C35.5456 78.2307 37.367 86.0815 37.9622 89.3047H35.568ZM40.706 89.3047C40.3873 87.425 39.5899 83.5217 37.8752 78.927C39.5085 79.2724 41.2219 79.4514 42.9408 79.4514C44.4604 79.4514 45.9464 79.3173 47.3839 79.0534C45.7 83.5975 44.9125 87.4453 44.5959 89.3047H40.706ZM47.3375 89.3047C47.7545 87.0474 48.7701 82.5208 50.8962 77.5239C51.4289 78.5564 52.1659 79.4907 53.0911 80.2621C53.6112 80.6958 53.8631 81.3837 53.748 82.0575C53.6659 82.5425 53.6266 83.0325 53.6287 83.5196C51.8683 85.2617 50.5607 87.2011 49.7331 89.3047H47.3375ZM54.2976 86.7912C54.4513 87.1555 54.9876 88.4652 55.9085 89.3047H52.6811C53.1142 88.4315 53.654 87.5927 54.2976 86.7912ZM68.6628 89.3054L61.855 89.3047C59.8981 89.2808 58.2262 88.2743 57.1474 86.4697C56.4363 85.28 56.1731 83.8741 56.4054 82.5103C56.6806 80.8931 56.072 79.2387 54.817 78.1921C53.2132 76.855 52.406 74.8202 52.6573 72.751C52.9647 70.2213 54.836 68.1254 57.3151 67.5351C58.7421 67.1961 59.8841 66.1454 60.2961 64.7935C60.9341 62.6997 62.8349 61.2931 65.0255 61.2931C65.6987 61.2931 66.35 61.4258 66.9628 61.6869C67.996 62.1284 68.6628 63.1482 68.6628 64.2867V89.3054ZM85.2039 78.1921C83.9489 79.2387 83.341 80.8931 83.6162 82.5096C83.8485 83.8741 83.5853 85.28 82.8743 86.4697C81.7947 88.2757 80.1214 89.2822 78.1778 89.3047H71.3588V64.2867C71.3588 63.1489 72.0263 62.1284 73.0588 61.6869C73.6716 61.4258 74.3237 61.2931 74.9961 61.2931C77.1867 61.2931 79.0875 62.6997 79.7255 64.7935C80.1375 66.1447 81.2802 67.1954 82.7072 67.5351C85.1856 68.1254 87.0569 70.2213 87.3643 72.751C87.6156 74.8202 86.8084 76.855 85.2039 78.1921Z" fill="#484848"/>
</g>
<defs>
<clipPath id="clip0">
<rect width="92" height="92" fill="white"/>
</clipPath>
</defs>
</svg>
