<svg width="92" height="92" viewBox="0 0 92 92" fill="none" xmlns="http://www.w3.org/2000/svg">
<path d="M79.3986 0H12.6016C11.8573 0 11.2539 0.603211 11.2539 1.34766V71.8175C11.2539 72.5619 11.8573 73.1652 12.6016 73.1652C13.3458 73.1652 13.9492 72.5619 13.9492 71.8175V2.69531H78.0509V20.355C78.0509 21.0994 78.6543 21.7027 79.3986 21.7027C80.1429 21.7027 80.7462 21.0994 80.7462 20.355V1.34766C80.7462 0.603211 80.1429 0 79.3986 0Z" fill="#484848"/>
<path d="M79.3986 25.2964C78.6543 25.2964 78.0509 25.8996 78.0509 26.644V71.1532H61.2471C60.5028 71.1532 59.8994 71.7564 59.8994 72.5009V89.3047H13.9492V78.1066C13.9492 77.3621 13.3458 76.7589 12.6016 76.7589C11.8573 76.7589 11.2539 77.3621 11.2539 78.1066V90.6524C11.2539 91.3968 11.8573 92 12.6016 92H61.2466C61.604 92 61.9468 91.8581 62.1994 91.6054L80.3515 73.4534C80.6043 73.2006 80.7462 72.8579 80.7462 72.5003V26.644C80.7462 25.8998 80.1429 25.2964 79.3986 25.2964ZM76.1446 73.8485L62.5949 87.3982V73.8485H76.1446Z" fill="#484848"/>
<path d="M31.2202 28.9378V35.1094C31.2202 35.8538 31.8236 36.4571 32.5679 36.4571H59.4319C60.1761 36.4571 60.7795 35.8538 60.7795 35.1094V28.9378C60.7795 24.216 56.9577 20.3716 52.2454 20.3315C53.7081 18.7878 54.6082 16.706 54.6082 14.4166C54.6082 9.66996 50.7465 5.80847 45.9999 5.80847C41.2532 5.80847 37.3916 9.66996 37.3916 14.4166C37.3916 16.706 38.2916 18.7878 39.7543 20.3315C35.042 20.3716 31.2202 24.216 31.2202 28.9378ZM45.9999 8.50378C49.2603 8.50378 51.9128 11.1563 51.9128 14.4166C51.9128 17.6772 49.2603 20.3296 45.9999 20.3296C42.7394 20.3296 40.0869 17.677 40.0869 14.4166C40.0869 11.1563 42.7394 8.50378 45.9999 8.50378ZM33.9155 28.9378C33.9155 25.6774 36.5681 23.0251 39.8283 23.0251H52.1712C55.4317 23.0251 58.084 25.6776 58.084 28.9378V33.7617H53.1557V31.479C53.1557 30.7345 52.5523 30.1313 51.8081 30.1313C51.0638 30.1313 50.4604 30.7345 50.4604 31.479V33.7617H41.5389V31.479C41.5389 30.7345 40.9356 30.1313 40.1913 30.1313C39.447 30.1313 38.8436 30.7345 38.8436 31.479V33.7617H33.9153V28.9378H33.9155Z" fill="#484848"/>
<path d="M28.3171 40.9185V46.726C28.3171 47.4704 28.9205 48.0736 29.6648 48.0736H35.864C36.6083 48.0736 37.2117 47.4704 37.2117 46.726C37.2117 45.9815 36.6083 45.3783 35.864 45.3783H31.0125V42.2661H60.9879V45.3783H42.1531C41.4088 45.3783 40.8054 45.9815 40.8054 46.726C40.8054 47.4704 41.4088 48.0736 42.1531 48.0736H62.3356C63.0798 48.0736 63.6832 47.4704 63.6832 46.726V40.9185C63.6832 40.174 63.0798 39.5708 62.3356 39.5708H29.6648C28.9205 39.5708 28.3171 40.174 28.3171 40.9185Z" fill="#484848"/>
<path d="M73.5901 51.1869H31.842C31.0978 51.1869 30.4944 51.7901 30.4944 52.5345C30.4944 53.279 31.0978 53.8822 31.842 53.8822H73.5901C74.3344 53.8822 74.9377 53.279 74.9377 52.5345C74.9377 51.7901 74.3344 51.1869 73.5901 51.1869Z" fill="#484848"/>
<path d="M18.4099 53.8822H26.0335C26.7778 53.8822 27.3812 53.279 27.3812 52.5345C27.3812 51.7901 26.7778 51.1869 26.0335 51.1869H18.4099C17.6656 51.1869 17.0623 51.7901 17.0623 52.5345C17.0623 53.279 17.6656 53.8822 18.4099 53.8822Z" fill="#484848"/>
<path d="M18.4099 59.6906H26.0335C26.7778 59.6906 27.3812 59.0873 27.3812 58.3429C27.3812 57.5985 26.7778 56.9952 26.0335 56.9952H18.4099C17.6656 56.9952 17.0623 57.5985 17.0623 58.3429C17.0623 59.0873 17.6656 59.6906 18.4099 59.6906Z" fill="#484848"/>
<path d="M73.5901 56.9952H31.842C31.0978 56.9952 30.4944 57.5985 30.4944 58.3429C30.4944 59.0873 31.0978 59.6906 31.842 59.6906H73.5901C74.3344 59.6906 74.9377 59.0873 74.9377 58.3429C74.9377 57.5985 74.3344 56.9952 73.5901 56.9952Z" fill="#484848"/>
<path d="M18.4099 65.4991H26.0335C26.7778 65.4991 27.3812 64.8959 27.3812 64.1515C27.3812 63.407 26.7778 62.8038 26.0335 62.8038H18.4099C17.6656 62.8038 17.0623 63.407 17.0623 64.1515C17.0623 64.8959 17.6656 65.4991 18.4099 65.4991Z" fill="#484848"/>
<path d="M73.5901 62.8038H31.842C31.0978 62.8038 30.4944 63.407 30.4944 64.1515C30.4944 64.8959 31.0978 65.4991 31.842 65.4991H73.5901C74.3344 65.4991 74.9377 64.8959 74.9377 64.1515C74.9377 63.407 74.3344 62.8038 73.5901 62.8038Z" fill="#484848"/>
<path d="M18.4099 73.8485H32.931C33.6753 73.8485 34.2787 73.2453 34.2787 72.5009C34.2787 71.7564 33.6753 71.1532 32.931 71.1532H18.4099C17.6656 71.1532 17.0623 71.7564 17.0623 72.5009C17.0623 73.2453 17.6656 73.8485 18.4099 73.8485Z" fill="#484848"/>
<path d="M20.2253 79.5029C19.4811 79.5029 18.8777 80.1061 18.8777 80.8506C18.8777 81.595 19.4811 82.1982 20.2253 82.1982H31.116C31.8603 82.1982 32.4637 81.595 32.4637 80.8506C32.4637 80.1061 31.8603 79.5029 31.116 79.5029H20.2253Z" fill="#484848"/>
</svg>
