<svg width="25" height="25" viewBox="0 0 25 25" fill="none" xmlns="http://www.w3.org/2000/svg">
<path d="M21.3388 3.66113C18.9779 1.30024 15.8389 0 12.5 0C9.16108 0 6.02202 1.30024 3.66113 3.66113C1.3002 6.02207 0 9.16113 0 12.5C0 15.8389 1.3002 18.9779 3.66113 21.3388C6.02207 23.6998 9.16108 25 12.5 25C15.8389 25 18.9779 23.6998 21.3388 21.3388C23.6998 18.9779 25 15.8389 25 12.5C25 9.16113 23.6998 6.02212 21.3388 3.66113ZM12.5 23.5352C6.41519 23.5352 1.46484 18.5848 1.46484 12.5C1.46484 6.41519 6.41519 1.46484 12.5 1.46484C18.5848 1.46484 23.5352 6.41519 23.5352 12.5C23.5352 18.5848 18.5848 23.5352 12.5 23.5352Z" fill="#EA9662"/>
<path d="M18.4719 8.48935C18.1859 8.20341 17.7222 8.20341 17.4362 8.4894L10.9684 14.9571L7.56379 11.5525C7.27781 11.2665 6.81404 11.2665 6.528 11.5525C6.24197 11.8385 6.24197 12.3022 6.528 12.5883L10.4505 16.5108C10.5935 16.6538 10.781 16.7253 10.9684 16.7253C11.1558 16.7253 11.3433 16.6537 11.4863 16.5108L18.4719 9.52514C18.7579 9.23915 18.7579 8.77538 18.4719 8.48935Z" fill="#EA9662"/>
</svg>
