<svg width="89" height="89" viewBox="0 0 89 89" fill="none" xmlns="http://www.w3.org/2000/svg">
<path d="M78.0536 23.658C78.1382 20.8698 77.114 18.2319 75.175 16.233C75.121 16.1776 75.0612 16.1294 75.0057 16.074C75.0889 15.5852 75.14 15.0891 75.14 14.5902C75.14 9.76228 71.2137 5.83607 66.3859 5.83607C66.3421 5.83607 66.2998 5.84628 66.256 5.84628C64.1857 2.27315 60.3499 0 56.1727 0C54.1039 0 52.1225 0.566098 50.3542 1.59033C48.6311 0.585066 46.6352 0 44.5006 0C40.1338 0 36.3243 2.41467 34.3225 5.97613C33.8308 5.89151 33.3333 5.83607 32.8285 5.83607C28.0006 5.83607 24.0744 9.76228 24.0744 14.5902C24.0744 14.7098 24.1021 14.8294 24.1065 14.9491C22.0099 16.4037 20.456 18.6171 19.9249 21.163C19.283 24.243 20.0314 27.3857 21.9807 29.7829C22.4534 30.3636 22.983 30.8815 23.555 31.3382C21.9413 33.7164 20.6997 36.3208 19.8695 39.0856L19.21 41.2829C17.7291 46.2231 15.0183 50.7621 11.3693 54.4111C10.7988 54.9816 10.7988 55.9037 11.3693 56.4742L12.0521 57.157C16.041 61.1445 18.2383 66.448 18.2383 72.0885C18.2383 77.3906 22.5526 81.7049 27.8547 81.7049C29.4406 81.7049 31.0178 81.3081 32.4141 80.5567L35.7465 78.7621V89H63.4678V76.7472C63.4678 74.5762 64.1434 72.4985 65.4215 70.7404L69.7401 64.8008C73.2724 59.9437 75.14 54.2025 75.14 48.1957V47.1963C75.14 42.1247 73.7802 37.2064 71.2225 32.8731C75.0947 31.4331 77.9267 27.8497 78.0536 23.658ZM72.2219 47.1977V48.1972C72.2219 53.5824 70.5484 58.7312 67.3809 63.085L63.0622 69.0246C61.4194 71.2832 60.5498 73.9546 60.5498 76.7472V86.082H38.6645V77.1907L41.4411 75.6952L40.0564 73.1244L31.0295 77.9859C30.0578 78.5111 28.9592 78.7869 27.8547 78.7869C24.1619 78.7869 21.1563 75.7813 21.1563 72.0885C21.1563 65.8235 18.7752 59.9233 14.439 55.4237C17.9232 51.6273 20.5261 47.0577 22.007 42.1203L22.6664 39.9231C23.4164 37.4223 24.5398 35.0675 25.9565 32.9884L26.0966 32.806C27.2944 33.2875 28.5813 33.5574 29.9104 33.5574H40.1236C42.5368 33.5574 44.5006 35.5212 44.5006 37.9344V40.6745L43.8455 43.2934L40.3979 41.226L34.661 46.9628L36.7284 50.4105L32.8285 51.3866V59.5001L36.7284 60.4762L34.661 63.9239L40.3979 69.6607L43.8455 67.5933L44.8216 71.4918H52.9352L53.9113 67.5919L57.3589 69.6593L63.0958 63.9224L61.0284 60.4748L64.9268 59.4987V51.3866L61.0269 50.4105L63.0943 46.9628L57.3575 41.226L53.9098 43.2934L53.2547 40.6745V37.9344C53.2547 35.5212 55.2185 33.5574 57.6318 33.5574H67.4772C67.7223 33.5574 67.9631 33.5384 68.2053 33.5224C70.83 37.6003 72.2219 42.3217 72.2219 47.1977ZM58.0534 50.9853C58.2314 51.3486 58.3875 51.7236 58.5232 52.1102L58.7815 52.8558L62.0088 53.6626V57.2212L58.7815 58.028L58.5232 58.7736C58.3875 59.1617 58.2314 59.5352 58.0534 59.8985L57.7062 60.6105L59.422 63.4687L56.9052 65.9855L54.047 64.2697L53.335 64.6169C52.9717 64.7949 52.5967 64.951 52.2101 65.0867L51.4645 65.345L50.6577 68.5738H47.0977L46.2908 65.3464L45.5453 65.0882C45.1572 64.9525 44.7837 64.7964 44.4204 64.6184L43.7084 64.2711L40.8502 65.9869L38.3333 63.4701L40.0492 60.6119L39.7019 59.8999C39.5239 59.5366 39.3678 59.1617 39.2321 58.775L38.9739 58.0295L35.7465 57.2226V53.6626L38.9739 52.8558L39.2321 52.1102C39.3678 51.7221 39.5239 51.3486 39.7019 50.9853L40.0492 50.2733L38.3333 47.4151L40.8502 44.8983L43.7084 46.6141L44.4204 46.2669C44.7837 46.0889 45.1586 45.9328 45.5453 45.7971L46.2908 45.5388L47.0977 42.3115H50.6562L51.463 45.5388L52.2086 45.7971C52.5967 45.9328 52.9702 46.0889 53.3335 46.2669L54.0455 46.6141L56.9037 44.8983L59.4205 47.4151L57.7047 50.2733L58.0534 50.9853ZM67.4772 30.6393H57.6318C53.6093 30.6393 50.3367 33.9119 50.3367 37.9344V39.3934H47.4186V37.9344C47.4186 33.9119 44.1461 30.6393 40.1236 30.6393H29.9104C27.7044 30.6393 25.6399 29.656 24.2465 27.9416C22.8532 26.2273 22.3192 23.976 22.7802 21.7583C23.3536 19.0139 25.5801 16.7874 28.3245 16.2141L27.7292 13.3588C27.5133 13.404 27.309 13.4813 27.0989 13.5411C27.595 10.823 29.9688 8.7541 32.8285 8.7541C32.9554 8.7541 33.0794 8.77452 33.2049 8.78182C32.9685 9.7083 32.8285 10.6727 32.8285 11.6721H35.7465C35.7465 6.84425 39.6727 2.91803 44.5006 2.91803C49.3285 2.91803 53.2547 6.84425 53.2547 11.6721H56.1727C56.1727 8.53087 54.9194 5.67995 52.8929 3.58043C53.9288 3.16023 55.0303 2.91803 56.1727 2.91803C58.9638 2.91803 61.5492 4.27638 63.1833 6.4649C62.4611 6.74941 61.7666 7.10979 61.1319 7.58835L62.8842 9.91985C63.8997 9.15679 65.1107 8.7541 66.3859 8.7541C69.4367 8.7541 71.9185 11.1133 72.1723 14.0985C70.8359 13.4726 69.3695 13.1311 67.8449 13.1311V16.0492C69.835 16.0492 71.6952 16.8356 73.0813 18.2654C74.4674 19.6938 75.1969 21.5774 75.1356 23.5704C75.0189 27.4674 71.5829 30.6393 67.4772 30.6393Z" fill="#ffffff"/>
<path d="M48.8778 48.1475C44.8553 48.1475 41.5828 51.4201 41.5828 55.4426C41.5828 59.4651 44.8553 62.7377 48.8778 62.7377C52.9004 62.7377 56.1729 59.4651 56.1729 55.4426C56.1729 51.4201 52.9004 48.1475 48.8778 48.1475ZM48.8778 59.8197C46.4646 59.8197 44.5008 57.8558 44.5008 55.4426C44.5008 53.0294 46.4646 51.0656 48.8778 51.0656C51.2911 51.0656 53.2549 53.0294 53.2549 55.4426C53.2549 57.8558 51.2911 59.8197 48.8778 59.8197Z" fill="#ffffff"/>
<path d="M67.8452 18.9672C65.7106 18.9672 63.935 20.505 63.5513 22.5287L52.7137 24.1963C52.0221 22.9197 50.728 22.0341 49.2062 21.9188L46.9944 13.8037C48.1295 13.0115 48.878 11.6998 48.878 10.2131C48.878 7.7999 46.9141 5.83606 44.5009 5.83606C42.0877 5.83606 40.1239 7.7999 40.1239 10.2131C40.1239 10.8055 40.245 11.3716 40.4594 11.8866L31.9855 19.5129C31.3654 19.1758 30.6651 18.9672 29.9107 18.9672C27.4975 18.9672 25.5337 20.931 25.5337 23.3443C25.5337 25.7575 27.4975 27.7213 29.9107 27.7213C32.324 27.7213 34.2878 25.7575 34.2878 23.3443C34.2878 22.7519 34.1667 22.1858 33.9522 21.6693L42.4262 14.043C42.9543 14.3305 43.5438 14.5099 44.1741 14.5566L46.386 22.6716C45.2494 23.4639 44.5009 24.7756 44.5009 26.2623C44.5009 28.6755 46.4647 30.6393 48.878 30.6393C51.0125 30.6393 52.7881 29.1015 53.1718 27.0779L64.0094 25.4102C64.7506 26.7788 66.1819 27.7213 67.8452 27.7213C70.2584 27.7213 72.2222 25.7575 72.2222 23.3443C72.2222 20.931 70.2584 18.9672 67.8452 18.9672ZM29.9107 24.8033C29.1054 24.8033 28.4517 24.1496 28.4517 23.3443C28.4517 22.5389 29.1054 21.8852 29.9107 21.8852C30.7161 21.8852 31.3698 22.5389 31.3698 23.3443C31.3698 24.1496 30.7161 24.8033 29.9107 24.8033ZM44.5009 11.6721C43.6955 11.6721 43.0419 11.0185 43.0419 10.2131C43.0419 9.40773 43.6955 8.75409 44.5009 8.75409C45.3063 8.75409 45.9599 9.40773 45.9599 10.2131C45.9599 11.0185 45.3063 11.6721 44.5009 11.6721ZM48.878 27.7213C48.0726 27.7213 47.4189 27.0677 47.4189 26.2623C47.4189 25.4569 48.0726 24.8033 48.878 24.8033C49.6833 24.8033 50.337 25.4569 50.337 26.2623C50.337 27.0677 49.6833 27.7213 48.878 27.7213ZM67.8452 24.8033C67.0398 24.8033 66.3862 24.1496 66.3862 23.3443C66.3862 22.5389 67.0398 21.8852 67.8452 21.8852C68.6505 21.8852 69.3042 22.5389 69.3042 23.3443C69.3042 24.1496 68.6505 24.8033 67.8452 24.8033Z" fill="#ffffff"/>
<path d="M59.0909 16.0492H56.1729V18.9672H59.0909V16.0492Z" fill="#ffffff"/>
<path d="M40.1236 23.3443H37.2056V26.2623H40.1236V23.3443Z" fill="#ffffff"/>
</svg>
