<svg width="50" height="40" viewBox="0 0 50 40" fill="none" xmlns="http://www.w3.org/2000/svg">
<path d="M11.6927 32.0939C11.2875 32.0939 10.9589 32.4225 10.9589 32.8278C10.9589 33.718 10.2346 34.4423 9.3444 34.4423C8.45418 34.4423 7.72992 33.718 7.72992 32.8278C7.72992 31.9376 8.45418 31.2133 9.3444 31.2133C9.74968 31.2133 10.0783 30.8847 10.0783 30.4795C10.0783 30.0742 9.74968 29.7456 9.3444 29.7456C7.64489 29.7456 6.26221 31.1283 6.26221 32.8278C6.26221 34.5273 7.64489 35.91 9.3444 35.91C11.0439 35.91 12.4266 34.5273 12.4266 32.8278C12.4266 32.4225 12.098 32.0939 11.6927 32.0939Z" fill="#484848"/>
<path d="M43.004 32.0939C42.5987 32.0939 42.2702 32.4225 42.2702 32.8278C42.2702 33.718 41.5459 34.4423 40.6557 34.4423C39.7655 34.4423 39.0412 33.718 39.0412 32.8278C39.0412 31.9376 39.7655 31.2133 40.6557 31.2133C41.061 31.2133 41.3895 30.8847 41.3895 30.4795C41.3895 30.0742 41.061 29.7456 40.6557 29.7456C38.9562 29.7456 37.5735 31.1283 37.5735 32.8278C37.5735 34.5273 38.9562 35.91 40.6557 35.91C42.3552 35.91 43.7379 34.5273 43.7379 32.8278C43.7379 32.4225 43.4093 32.0939 43.004 32.0939Z" fill="#484848"/>
<path d="M43.7867 19.5695H42.2212C41.8159 19.5695 41.4873 19.898 41.4873 20.3033C41.4873 20.7086 41.8159 21.0372 42.2212 21.0372H43.7867C44.192 21.0372 44.5206 20.7086 44.5206 20.3033C44.5206 19.898 44.192 19.5695 43.7867 19.5695Z" fill="#484848"/>
<path d="M32.0451 25.8317H17.955C17.5498 25.8317 17.2212 26.1602 17.2212 26.5655C17.2212 26.9708 17.5498 27.2994 17.955 27.2994H32.0451C32.4504 27.2994 32.7789 26.9708 32.7789 26.5655C32.7789 26.1602 32.4504 25.8317 32.0451 25.8317Z" fill="#484848"/>
<path d="M46.1363 16.4384H36.3051L29.632 8.34012C29.6245 8.33092 29.6166 8.32192 29.6086 8.31321C29.0022 7.64618 28.1817 7.21546 27.2994 7.0865V3.86497C27.2994 2.16546 25.9167 0.782779 24.2172 0.782779H21.0372V0.733855C21.0372 0.328571 20.7086 0 20.3033 0C19.898 0 19.5695 0.328571 19.5695 0.733855V0.782779H15.5577V0.733855C15.5577 0.328571 15.2292 0 14.8239 0C14.4186 0 14.09 0.328571 14.09 0.733855V0.782779H10.91C9.21047 0.782779 7.82779 2.16546 7.82779 3.86497V7.04863C6.53767 7.08611 5.36184 7.75 4.66575 8.84384C4.6591 8.85431 4.65264 8.86507 4.64648 8.87593L0.593053 16.0267C0.20499 16.6433 0 17.3538 0 18.0827V26.5656C0 28.0612 0.88229 29.4358 2.24775 30.0676C2.44364 30.1583 2.66967 30.1581 2.86526 30.067C3.04423 29.9839 3.18043 29.8322 3.24628 29.6478H4.0093C3.45225 30.5787 3.13112 31.6662 3.13112 32.8278C3.13112 36.2538 5.9184 39.0411 9.34442 39.0411C12.7704 39.0411 15.5577 36.2538 15.5577 32.8278C15.5577 31.6662 15.2366 30.5787 14.6795 29.6478H15.4403C15.4589 29.718 15.477 29.7884 15.4931 29.8593C15.5691 30.1934 15.8661 30.4305 16.2087 30.4305H33.791C34.1337 30.4305 34.4307 30.1934 34.5066 29.8593C34.5227 29.7884 34.5408 29.718 34.5594 29.6478H35.3202C34.7631 30.5787 34.442 31.6662 34.442 32.8278C34.442 36.2538 37.2293 39.0411 40.6553 39.0411C44.0813 39.0411 46.8686 36.2538 46.8686 32.8278C46.8686 31.6662 46.5475 30.5787 45.9904 29.6478H46.7512C46.7698 29.718 46.7879 29.7884 46.804 29.8593C46.8799 30.1934 47.177 30.4305 47.5196 30.4305H47.6979C48.9675 30.4305 50 29.3979 50 28.1289V20.3021C50 18.1716 48.2667 16.4384 46.1363 16.4384ZM48.5323 22.7006H47.7006C47.242 22.7006 46.8689 22.3275 46.8689 21.8689C46.8689 21.4103 47.242 21.0372 47.7006 21.0372H48.5323V22.7006ZM29.8007 10.8528L34.4033 16.4384H11.3544L13.7538 11.9716C14.1977 11.2757 14.9532 10.8611 15.7798 10.8611H29.6967C29.7321 10.8611 29.7666 10.8577 29.8007 10.8528ZM24.2172 2.25049C25.1074 2.25049 25.8317 2.97476 25.8317 3.86497V7.04501H21.0372V2.25049H24.2172ZM19.5695 2.25049V7.04501H15.5577V2.25049H19.5695ZM10.91 2.25049H14.09V7.04501H9.2955V3.86497C9.2955 2.97476 10.0198 2.25049 10.91 2.25049ZM5.22515 10.8313C5.29041 10.8503 5.3592 10.8611 5.43053 10.8611H8.8999L6.49922 15.3298C6.05636 16.0244 5.30205 16.4384 4.47691 16.4384H2.04677L5.22515 10.8313ZM9.34442 37.5734C6.72769 37.5734 4.59883 35.4445 4.59883 32.8278C4.59883 30.2111 6.72769 28.0822 9.34442 28.0822C11.9612 28.0822 14.09 30.2111 14.09 32.8278C14.09 35.4445 11.9612 37.5734 9.34442 37.5734ZM13.4617 28.18C12.3646 27.207 10.9228 26.6145 9.34442 26.6145C7.76605 26.6145 6.32427 27.207 5.2271 28.18H3.84442C4.94129 26.2245 7.03209 24.9511 9.34442 24.9511C10.8036 24.9511 12.173 25.4352 13.3047 26.3513C13.9321 26.8591 14.454 27.4832 14.8449 28.18H13.4617ZM40.6556 37.5734C38.0388 37.5734 35.91 35.4445 35.91 32.8278C35.91 30.2111 38.0388 28.0822 40.6556 28.0822C43.2723 28.0822 45.4012 30.2111 45.4012 32.8278C45.4012 35.4445 43.2723 37.5734 40.6556 37.5734ZM44.7729 28.18C43.6757 27.207 42.234 26.6145 40.6556 26.6145C39.0772 26.6145 37.6354 27.207 36.5383 28.18H35.1551C35.546 27.4831 36.0679 26.8591 36.6953 26.3513C37.827 25.4352 39.1964 24.9511 40.6556 24.9511C42.1148 24.9511 43.4841 25.4352 44.6159 26.3513C45.2432 26.8591 45.7652 27.4832 46.1561 28.18H44.7729ZM48.0567 28.8818C47.5951 27.4498 46.7172 26.1639 45.5392 25.2105C44.1634 24.0968 42.429 23.4834 40.6556 23.4834C38.8822 23.4834 37.1477 24.0968 35.7719 25.2105C34.5717 26.1819 33.6832 27.4983 33.2289 28.9628H16.7711C16.3168 27.4983 15.4283 26.1819 14.2281 25.2105C12.8523 24.0968 11.1178 23.4834 9.34442 23.4834C6.19168 23.4834 3.37241 25.4025 2.17603 28.2566C1.73131 27.8142 1.46771 27.2077 1.46771 26.5656V21.0372H39.09C39.4953 21.0372 39.8239 20.7086 39.8239 20.3033C39.8239 19.898 39.4953 19.5695 39.09 19.5695H1.46771V18.0827C1.46771 18.0229 1.47025 17.9633 1.47466 17.904C1.48865 17.9047 1.50245 17.9061 1.51663 17.9061H4.47691C5.81888 17.9061 7.04472 17.2267 7.75597 16.0886C7.76448 16.0751 7.7725 16.0612 7.78014 16.0471L10.7738 10.4746C10.896 10.2472 10.8896 9.97221 10.7571 9.75068C10.6247 9.52916 10.3854 9.39335 10.1272 9.39335H6.07759C6.53366 8.83757 7.21135 8.51272 7.94276 8.51272H26.7419C27.4129 8.51272 28.0569 8.79521 28.5115 9.28826L28.5981 9.39335H15.7798C14.4365 9.39335 13.2093 10.0735 12.4974 11.2127C12.4888 11.2263 12.4808 11.2402 12.4732 11.2544L9.48082 16.825C9.35861 17.0524 9.36497 17.3273 9.49746 17.5488C9.62994 17.7704 9.86898 17.9061 10.1272 17.9061H35.9589H46.1363C47.202 17.9061 48.107 18.6056 48.4173 19.5695H47.7006C46.4327 19.5695 45.4012 20.601 45.4012 21.8689C45.4012 23.1368 46.4327 24.1683 47.7006 24.1683H48.5323V28.1289C48.5323 28.4605 48.3377 28.7476 48.0567 28.8818Z" fill="#484848"/>
</svg>
