<svg width="50" height="50" viewBox="0 0 50 50" fill="none" xmlns="http://www.w3.org/2000/svg">
<g clip-path="url(#clip0)">
<path d="M4.69192 41.3159C4.60835 42.0735 4.70368 42.8401 4.97025 43.5542C5.33986 44.8816 6.53921 45.8072 7.91692 45.8284C8.14595 45.8278 8.37433 45.8041 8.59858 45.7575C10.968 45.184 13.3047 44.483 15.5986 43.6575C17.4703 44.76 18.6544 48.1084 18.9627 49.3642C19.0538 49.7376 19.3884 50.0002 19.7727 50L40.6319 49.9425C40.8957 49.9419 41.1436 49.8164 41.3003 49.6042C41.457 49.392 41.5039 49.1181 41.4269 48.8659C41.2227 48.2967 40.9388 47.7594 40.5836 47.27C40.3872 46.988 40.2099 46.6932 40.0528 46.3875C39.6769 45.6176 39.362 44.8193 39.1111 44C38.6352 42.3905 38.3072 40.7409 38.1311 39.0717C37.9732 37.761 38.0038 36.4345 38.2219 35.1325C38.2756 34.8365 38.1656 34.5345 37.9341 34.3424C37.7026 34.1503 37.3855 34.0979 37.1044 34.2053C36.8234 34.3127 36.6221 34.5633 36.5778 34.8609C36.3339 36.3188 36.2999 37.8041 36.4769 39.2717C36.6641 41.0395 37.0125 42.7865 37.5178 44.4909C37.7924 45.3892 38.137 46.2647 38.5486 47.1092C38.7371 47.4813 38.9507 47.8401 39.1878 48.1834L39.2494 48.2759L20.4019 48.3334C19.8488 46.3564 18.8454 44.5343 17.4703 43.01C17.6878 42.935 17.8928 42.8625 18.0836 42.7959C18.7069 42.5767 19.1777 42.4109 19.4169 42.3367C22.9819 41.215 24.7644 39.5917 24.7153 37.5109C24.7143 37.2886 24.6229 37.0762 24.4621 36.9228C24.3012 36.7693 24.0848 36.688 23.8628 36.6975C23.4028 36.7084 23.0387 37.0901 23.0494 37.55C23.0694 38.4084 22.3686 39.6609 18.9153 40.7467C18.6694 40.8242 18.1811 40.9967 17.5344 41.2234C16.9394 41.4317 16.2069 41.6892 15.4044 41.9634C13.0627 42.8123 10.6767 43.534 8.25692 44.125C7.47844 44.2746 6.72143 43.7804 6.54525 43.0075C6.36498 42.5395 6.29594 42.036 6.34358 41.5367C6.36692 41.3642 6.40608 41.1917 6.44358 41.0192C6.61453 40.4408 6.64143 39.8295 6.52192 39.2383C6.28294 38.4742 5.72324 37.8518 4.98858 37.5334L4.81108 37.4309C4.9003 37.2483 5.0072 37.075 5.13025 36.9134C5.26853 36.7363 5.32943 36.5108 5.29915 36.2882C5.26887 36.0656 5.14997 35.8646 4.96942 35.7309C4.77025 35.5825 4.29525 35.2259 3.95358 34.9525C3.99525 34.8742 4.04442 34.7859 4.08775 34.7109C4.21525 34.485 4.36108 34.2242 4.50442 33.9258C4.77108 33.3434 4.84916 32.6923 4.72775 32.0634C4.53442 31.0417 3.56108 30.5434 2.84942 30.18C2.60935 30.0659 2.37913 29.9321 2.16108 29.78C1.98633 29.6596 1.82112 29.5258 1.66692 29.38C1.66692 29.255 1.79858 28.9517 2.43858 28.1667C3.92456 26.2469 5.19811 24.1717 6.23692 21.9775C6.43692 21.6334 6.54884 21.2453 6.56275 20.8475C6.47817 20.0094 6.03395 19.2493 5.34525 18.7642C5.01192 18.4559 4.69108 18.1642 4.65608 17.9075C4.65932 17.7059 4.70474 17.5072 4.78942 17.3242C4.92525 16.9617 5.08442 16.6059 5.24358 16.2509C5.5826 15.5501 5.85276 14.818 6.05025 14.065L6.11775 13.7717C6.29524 12.9173 6.52682 12.075 6.81108 11.25C7.4633 9.43733 8.47812 7.77659 9.79358 6.36919C11.4044 4.66502 13.8403 3.50336 17.2411 2.81669C19.8098 2.25411 22.4162 1.8795 25.0394 1.69586C28.3735 1.49049 31.695 2.26231 34.5969 3.91669C34.8576 4.06079 35.1753 4.05488 35.4304 3.90119C35.6855 3.74751 35.8393 3.46939 35.8338 3.17161C35.8282 2.87383 35.6642 2.60162 35.4036 2.45752C32.225 0.662394 28.5972 -0.180834 24.9528 0.0283551C22.248 0.215779 19.5605 0.600693 16.9119 1.18002C13.1619 1.93669 10.4369 3.25835 8.57858 5.22085C7.1088 6.79192 5.97461 8.64603 5.24525 10.67C4.9379 11.5607 4.68739 12.4701 4.49525 13.3925L4.42775 13.6842C4.25259 14.3329 4.01625 14.9635 3.72192 15.5675C3.54942 15.9534 3.37775 16.3392 3.23025 16.7342C3.03663 17.1742 2.95916 17.6565 3.00525 18.135C3.17451 18.8791 3.60538 19.5377 4.21942 19.9909C4.62692 20.365 4.89442 20.6284 4.89692 20.8667C4.86514 20.9921 4.81606 21.1124 4.75108 21.2242C3.75527 23.3291 2.53425 25.3199 1.10942 27.1617C0.51525 27.8909 -0.108917 28.745 0.0177498 29.6067C0.197865 30.2636 0.630829 30.8224 1.22192 31.1609C1.497 31.3508 1.78713 31.5181 2.08942 31.6609C2.44858 31.8434 3.04858 32.15 3.08942 32.37C3.14361 32.6521 3.11166 32.9439 2.99775 33.2075C2.87442 33.4675 2.74775 33.6934 2.63608 33.8884C2.31108 34.4642 1.82108 35.3342 2.59025 35.9834C2.76942 36.1425 3.07692 36.3842 3.35858 36.5992C3.15003 36.9657 3.05654 37.3864 3.09025 37.8067C3.13503 38.1322 3.31198 38.4249 3.57942 38.6159C3.76608 38.7484 3.96358 38.8659 4.16275 38.9759C4.65108 39.2559 4.84192 39.3859 4.90775 39.6425C4.95227 39.982 4.92155 40.3271 4.81775 40.6534C4.76858 40.8792 4.72108 41.0975 4.69192 41.3159Z" fill="#484848"/>
<path d="M9.30551 14.8282L9.38885 14.4674C9.5349 13.7709 9.72104 13.0833 9.94635 12.4082C10.4487 11.0172 11.2264 9.74181 12.233 8.65824C13.3132 7.63973 14.6355 6.91376 16.0747 6.54908C16.3595 6.46214 16.5762 6.22989 16.6433 5.9398C16.7104 5.64972 16.6176 5.34587 16.4 5.14272C16.1823 4.93957 15.8728 4.86798 15.588 4.95491C13.8712 5.40154 12.2985 6.28292 11.0213 7.51408C9.86046 8.76163 8.96338 10.2307 8.38385 11.8332C8.13405 12.5727 7.92814 13.3262 7.76718 14.0899L7.68385 14.4507C7.60682 14.744 7.69519 15.056 7.91458 15.2653C8.13397 15.4747 8.44975 15.5483 8.7391 15.4576C9.02845 15.3669 9.2457 15.1262 9.30635 14.8291L9.30551 14.8282Z" fill="#484848"/>
<path d="M7.50106 18.3334C7.9613 18.3334 8.33439 17.9603 8.33439 17.5001C8.33439 17.0398 7.9613 16.6667 7.50106 16.6667C7.04082 16.6667 6.66772 17.0398 6.66772 17.5001C6.66772 17.9603 7.04082 18.3334 7.50106 18.3334Z" fill="#484848"/>
<path d="M42.476 25.6118L47.2902 20.7535L47.4418 20.5951L47.4485 20.5868C47.466 20.5685 47.4843 20.5501 47.5018 20.531C50.8849 16.8915 50.7881 11.2294 47.2827 7.70762C43.8144 4.16544 38.1438 4.06669 34.5543 7.48595C34.4777 7.55817 34.4018 7.63234 34.3268 7.70845C34.321 7.71428 34.3193 7.72262 34.3135 7.72845L25.6018 16.5143C24.6074 17.5206 24.6074 19.1396 25.6018 20.146C26.0756 20.6247 26.7208 20.8947 27.3943 20.896L35.741 29.3251C36.0909 29.6817 36.0909 30.2527 35.741 30.6093C35.5762 30.7768 35.351 30.8712 35.116 30.8712C34.881 30.8712 34.6558 30.7768 34.491 30.6093L24.3443 20.371C24.0203 20.044 23.4926 20.0415 23.1656 20.3655C22.8386 20.6895 22.8361 21.2173 23.1602 21.5443L33.3077 31.7851C33.6581 32.1418 33.6581 32.7135 33.3077 33.0701C32.9598 33.4088 32.4055 33.4088 32.0577 33.0701L18.861 19.7501C18.801 19.6893 18.7418 19.6276 18.6843 19.5651C15.9073 16.5806 15.9868 11.9346 18.8643 9.04678C20.2618 7.63067 22.1685 6.83352 24.1581 6.83352C26.1477 6.83352 28.0543 7.63067 29.4518 9.04678C29.66 9.26419 29.9693 9.35241 30.2609 9.27756C30.5525 9.2027 30.781 8.97642 30.8587 8.6856C30.9365 8.39478 30.8513 8.08464 30.636 7.87428C28.9255 6.14213 26.5925 5.16718 24.1581 5.16718C21.7237 5.16718 19.3907 6.14213 17.6802 7.87428C14.1741 11.3961 14.0774 17.0589 17.461 20.6985C17.4668 20.7051 17.4685 20.7135 17.4752 20.7201L17.6718 20.9185L17.6768 20.9235L30.8685 34.2368C31.3465 34.7209 31.9985 34.9934 32.6789 34.9934C33.3593 34.9934 34.0113 34.7209 34.4893 34.2368C34.9397 33.778 35.2014 33.1668 35.2227 32.5243C35.8639 32.5012 36.4724 32.2348 36.9243 31.7793C37.3748 31.3205 37.6367 30.7094 37.6585 30.0668C38.3002 30.0424 38.9085 29.7742 39.3593 29.3168C39.8097 28.8583 40.0717 28.2475 40.0935 27.6051C40.7354 27.5802 41.3437 27.3121 41.7952 26.8551C42.1348 26.5131 42.3708 26.0821 42.476 25.6118ZM26.7852 17.6885L35.7018 8.69595C38.6349 5.90336 43.2675 5.98578 46.0993 8.88095C48.9768 11.7687 49.0563 16.4147 46.2793 19.3993L46.2327 19.4476L42.1052 23.6143C42.0163 23.4799 41.9147 23.3543 41.8018 23.2393L33.9793 15.3451L34.716 14.6018C35.7725 15.6147 37.1417 16.2388 38.5993 16.3718C40.2911 16.4022 41.9101 15.6843 43.0235 14.4101C43.2329 14.1977 43.3131 13.8897 43.2339 13.6021C43.1547 13.3145 42.928 13.091 42.6393 13.0158C42.3506 12.9406 42.0438 13.0252 41.8343 13.2376C41.0458 14.1575 39.8992 14.6931 38.6877 14.7076C37.3928 14.5323 36.2083 13.8847 35.3618 12.8893C35.2126 12.7053 34.9921 12.5935 34.7554 12.5819C34.5188 12.5702 34.2884 12.6599 34.1218 12.8285L32.2201 14.7501L29.7927 17.2001L28.0476 18.961C27.8828 19.129 27.6572 19.2236 27.4218 19.2235C27.1866 19.2238 26.9613 19.1291 26.7968 18.961C26.4512 18.609 26.446 18.0467 26.7852 17.6885ZM38.1785 28.1543C37.8314 28.4948 37.2756 28.4948 36.9285 28.1543L29.0952 20.251C29.136 20.2151 29.1785 20.1868 29.2202 20.1476L30.371 18.9868L38.1677 26.8593L38.1752 26.8701C38.526 27.2257 38.5275 27.7968 38.1785 28.1543ZM39.3677 25.6993L31.5427 17.8018L32.8035 16.5293L40.6135 24.411C40.9634 24.7675 40.9634 25.3386 40.6135 25.6951C40.2677 26.0332 39.7157 26.035 39.3677 25.6993Z" fill="#484848"/>
</g>
<defs>
<clipPath id="clip0">
<rect width="50" height="50" fill="white"/>
</clipPath>
</defs>
</svg>
