<svg width="50" height="50" viewBox="0 0 50 50" fill="none" xmlns="http://www.w3.org/2000/svg">
<path d="M39.5871 32.0395L30.6452 29.246V26.9992C32.025 25.8581 33.0468 24.3048 33.5396 22.5331C35.5371 22.2944 37.0968 20.6089 37.0968 18.5484V10.4839C37.0968 4.70323 32.3936 0 26.6129 0H23.3871C17.6065 0 12.9033 4.70323 12.9033 10.4839V18.5484C12.9033 20.6089 14.4629 22.2944 16.4605 22.5323C16.9533 24.304 17.975 25.8573 19.3549 26.9984V29.2452L10.413 32.0395C8.0436 32.7798 6.45166 34.946 6.45166 37.4282V50H43.5484V37.4282C43.5484 34.946 41.9565 32.7798 39.5871 32.0395ZM33.8371 20.8298C33.8541 20.6081 33.871 20.3871 33.871 20.1613V16.2774C34.8073 16.6113 35.4839 17.4984 35.4839 18.5484C35.4839 19.6105 34.7912 20.5056 33.8371 20.8298ZM35.4839 15.3435C35.0129 14.9871 34.4702 14.7202 33.871 14.5984V14.325C34.5283 13.8516 35.075 13.3266 35.4839 12.7597V15.3435ZM23.3871 1.6129H26.6129C31.2323 1.6129 35.0339 5.1629 35.4428 9.67742H33.8234C33.4202 6.05403 30.342 3.22581 26.6129 3.22581H23.3871C19.6581 3.22581 16.5799 6.05403 16.1767 9.67742H14.5573C14.9662 5.1629 18.7678 1.6129 23.3871 1.6129ZM32.1936 9.67742H17.8065C18.2 6.94597 20.5492 4.83871 23.3871 4.83871H26.6129C29.4509 4.83871 31.8 6.94597 32.1936 9.67742ZM14.5162 12.7589C14.925 13.3266 15.4718 13.8516 16.1291 14.325V14.5976C15.5299 14.7202 14.9871 14.9863 14.5162 15.3427V12.7589ZM14.5162 18.5484C14.5162 17.4984 15.1928 16.6113 16.1291 16.2774V20.1613C16.1291 20.3871 16.146 20.6081 16.1629 20.8298C15.2089 20.5056 14.5162 19.6105 14.5162 18.5484ZM15.517 11.2903H34.4839C33.5388 13.371 29.167 15.3226 25.0009 15.3226C20.8347 15.3226 16.4621 13.371 15.517 11.2903ZM17.742 20.1613V15.2831C19.8444 16.3169 22.4888 16.9355 25 16.9355C27.5113 16.9355 30.1557 16.3169 32.2581 15.2831V20.1613C32.2581 24.1629 29.0017 27.4194 25 27.4194C20.9984 27.4194 17.742 24.1629 17.742 20.1613ZM29.0323 28.0532V29.5677C28.6242 30.0637 27.2807 31.4516 25 31.4516C22.7146 31.4516 21.3783 30.0694 20.9678 29.5677V28.0532C22.1791 28.6742 23.5476 29.0323 25 29.0323C26.4525 29.0323 27.821 28.6742 29.0323 28.0532ZM19.8783 30.7718C20.5936 31.5702 22.2928 33.0645 25 33.0645C27.7073 33.0645 29.4065 31.5702 30.1218 30.7718L30.9589 31.0331L25 38.9782L19.0412 31.0331L19.8783 30.7718ZM12.9033 48.3871H8.06456V43.5484H12.9033V48.3871ZM24.1936 48.3871H14.5162V37.0968H12.9033V41.9355H8.06456V37.4282C8.06456 35.6548 9.20166 34.1081 10.8944 33.5798L17.4081 31.5444L23.6259 39.8355C22.5355 40.3532 21.7742 41.4565 21.7742 42.7419C21.7742 44.2419 22.8041 45.5065 24.1936 45.8661V48.3871ZM26.6129 48.3871H25.8065V44.3548H25C24.1105 44.3548 23.3871 43.6315 23.3871 42.7419C23.3871 41.8524 24.1105 41.129 25 41.129C25.8896 41.129 26.6129 41.8524 26.6129 42.7419V48.3871ZM41.9355 48.3871H37.0968V43.5484H41.9355V48.3871ZM41.9355 41.9355H37.0968V37.0968H35.4839V48.3871H28.2259V42.7419C28.2259 41.4565 27.4646 40.3532 26.3734 39.8347L32.5912 31.5435L39.1049 33.579C40.7984 34.1081 41.9355 35.6548 41.9355 37.4282V41.9355Z" fill="#484848"/>
<path d="M29.0323 18.5483C29.4777 18.5483 29.8387 18.1873 29.8387 17.7419C29.8387 17.2965 29.4777 16.9354 29.0323 16.9354C28.5869 16.9354 28.2258 17.2965 28.2258 17.7419C28.2258 18.1873 28.5869 18.5483 29.0323 18.5483Z" fill="#484848"/>
<path d="M20.9678 18.5483C21.4132 18.5483 21.7743 18.1873 21.7743 17.7419C21.7743 17.2965 21.4132 16.9354 20.9678 16.9354C20.5224 16.9354 20.1614 17.2965 20.1614 17.7419C20.1614 18.1873 20.5224 18.5483 20.9678 18.5483Z" fill="#484848"/>
<path d="M26.6129 21.7742C26.6129 22.6637 25.8895 23.3871 25 23.3871C24.1105 23.3871 23.3871 22.6637 23.3871 21.7742H21.7742C21.7742 23.5532 23.2209 25 25 25C26.779 25 28.2258 23.5532 28.2258 21.7742H26.6129Z" fill="#484848"/>
<path d="M25.8065 6.45166H24.1936V8.06456H25.8065V6.45166Z" fill="#484848"/>
</svg>
